%FSLAX45Y45*%
G04 Gerber Fmt 4.5, Leading zero omitted, Abs format (unit mm)*
G04 Created by KiCad (PCBNEW 5.1.6-c6e7f7d~87~ubuntu20.04.1) date 2020-08-14 09:28:02*
%MOMM*%
%LPD*%
G01*
G04 APERTURE LIST*
%TA.AperFunction,Profile*%
%ADD10C,0.200000*%
%TD*%
%ADD11C,0.200000*%
%ADD12C,0.300000*%
G04 APERTURE END LIST*
D10*
X11300000Y-5250000D02*
G75*
G03*
X11300000Y-5250000I-1850000J0D01*
G01*
D11*
D12*
X7876428Y-7575714D02*
X7876428Y-7275714D01*
X7947857Y-7275714D01*
X7990714Y-7290000D01*
X8019286Y-7318571D01*
X8033571Y-7347143D01*
X8047857Y-7404286D01*
X8047857Y-7447143D01*
X8033571Y-7504286D01*
X8019286Y-7532857D01*
X7990714Y-7561429D01*
X7947857Y-7575714D01*
X7876428Y-7575714D01*
X8176428Y-7575714D02*
X8176428Y-7375714D01*
X8176428Y-7432857D02*
X8190714Y-7404286D01*
X8205000Y-7390000D01*
X8233571Y-7375714D01*
X8262143Y-7375714D01*
X8362143Y-7575714D02*
X8362143Y-7375714D01*
X8362143Y-7275714D02*
X8347857Y-7290000D01*
X8362143Y-7304286D01*
X8376428Y-7290000D01*
X8362143Y-7275714D01*
X8362143Y-7304286D01*
X8547857Y-7575714D02*
X8519286Y-7561429D01*
X8505000Y-7532857D01*
X8505000Y-7275714D01*
X8705000Y-7575714D02*
X8676428Y-7561429D01*
X8662143Y-7532857D01*
X8662143Y-7275714D01*
X9047857Y-7575714D02*
X9047857Y-7275714D01*
X9147857Y-7490000D01*
X9247857Y-7275714D01*
X9247857Y-7575714D01*
X9519286Y-7575714D02*
X9519286Y-7418571D01*
X9505000Y-7390000D01*
X9476428Y-7375714D01*
X9419286Y-7375714D01*
X9390714Y-7390000D01*
X9519286Y-7561429D02*
X9490714Y-7575714D01*
X9419286Y-7575714D01*
X9390714Y-7561429D01*
X9376428Y-7532857D01*
X9376428Y-7504286D01*
X9390714Y-7475714D01*
X9419286Y-7461429D01*
X9490714Y-7461429D01*
X9519286Y-7447143D01*
X9662143Y-7375714D02*
X9662143Y-7675714D01*
X9662143Y-7390000D02*
X9690714Y-7375714D01*
X9747857Y-7375714D01*
X9776428Y-7390000D01*
X9790714Y-7404286D01*
X9805000Y-7432857D01*
X9805000Y-7518571D01*
X9790714Y-7547143D01*
X9776428Y-7561429D01*
X9747857Y-7575714D01*
X9690714Y-7575714D01*
X9662143Y-7561429D01*
X9933571Y-7547143D02*
X9947857Y-7561429D01*
X9933571Y-7575714D01*
X9919286Y-7561429D01*
X9933571Y-7547143D01*
X9933571Y-7575714D01*
X9933571Y-7390000D02*
X9947857Y-7404286D01*
X9933571Y-7418571D01*
X9919286Y-7404286D01*
X9933571Y-7390000D01*
X9933571Y-7418571D01*
M02*
