G04 #@! TF.GenerationSoftware,KiCad,Pcbnew,5.1.6-c6e7f7d~87~ubuntu20.04.1*
G04 #@! TF.CreationDate,2020-08-14T09:59:52+02:00*
G04 #@! TF.ProjectId,reverse-polarity,72657665-7273-4652-9d70-6f6c61726974,rev?*
G04 #@! TF.SameCoordinates,Original*
G04 #@! TF.FileFunction,Legend,Top*
G04 #@! TF.FilePolarity,Positive*
%FSLAX46Y46*%
G04 Gerber Fmt 4.6, Leading zero omitted, Abs format (unit mm)*
G04 Created by KiCad (PCBNEW 5.1.6-c6e7f7d~87~ubuntu20.04.1) date 2020-08-14 09:59:52*
%MOMM*%
%LPD*%
G01*
G04 APERTURE LIST*
%ADD10C,0.100000*%
%ADD11C,0.150000*%
%ADD12C,0.300000*%
%ADD13C,0.400000*%
%ADD14C,0.120000*%
G04 APERTURE END LIST*
D10*
D11*
X177002200Y-166007200D02*
X177002200Y-198007200D01*
X285002200Y-198007200D01*
X285002200Y-166007200D01*
X177002200Y-166007200D01*
D10*
D11*
X10000000Y-10000000D02*
X10000000Y-200007200D01*
X287002200Y-200007200D01*
X287002200Y-10000000D01*
X10000000Y-10000000D01*
D10*
D11*
X12000000Y-12000000D02*
X12000000Y-198007200D01*
X285002200Y-198007200D01*
X285002200Y-12000000D01*
X12000000Y-12000000D01*
D10*
D11*
X60000000Y-12000000D02*
X60000000Y-10000000D01*
D10*
D11*
X110000000Y-12000000D02*
X110000000Y-10000000D01*
D10*
D11*
X160000000Y-12000000D02*
X160000000Y-10000000D01*
D10*
D11*
X210000000Y-12000000D02*
X210000000Y-10000000D01*
D10*
D11*
X260000000Y-12000000D02*
X260000000Y-10000000D01*
D10*
D11*
X36065476Y-11588095D02*
X35322619Y-11588095D01*
X35694047Y-11588095D02*
X35694047Y-10288095D01*
X35570238Y-10473809D01*
X35446428Y-10597619D01*
X35322619Y-10659523D01*
D10*
D11*
X85322619Y-10411904D02*
X85384523Y-10350000D01*
X85508333Y-10288095D01*
X85817857Y-10288095D01*
X85941666Y-10350000D01*
X86003571Y-10411904D01*
X86065476Y-10535714D01*
X86065476Y-10659523D01*
X86003571Y-10845238D01*
X85260714Y-11588095D01*
X86065476Y-11588095D01*
D10*
D11*
X135260714Y-10288095D02*
X136065476Y-10288095D01*
X135632142Y-10783333D01*
X135817857Y-10783333D01*
X135941666Y-10845238D01*
X136003571Y-10907142D01*
X136065476Y-11030952D01*
X136065476Y-11340476D01*
X136003571Y-11464285D01*
X135941666Y-11526190D01*
X135817857Y-11588095D01*
X135446428Y-11588095D01*
X135322619Y-11526190D01*
X135260714Y-11464285D01*
D10*
D11*
X185941666Y-10721428D02*
X185941666Y-11588095D01*
X185632142Y-10226190D02*
X185322619Y-11154761D01*
X186127380Y-11154761D01*
D10*
D11*
X236003571Y-10288095D02*
X235384523Y-10288095D01*
X235322619Y-10907142D01*
X235384523Y-10845238D01*
X235508333Y-10783333D01*
X235817857Y-10783333D01*
X235941666Y-10845238D01*
X236003571Y-10907142D01*
X236065476Y-11030952D01*
X236065476Y-11340476D01*
X236003571Y-11464285D01*
X235941666Y-11526190D01*
X235817857Y-11588095D01*
X235508333Y-11588095D01*
X235384523Y-11526190D01*
X235322619Y-11464285D01*
D10*
D11*
X285941666Y-10288095D02*
X285694047Y-10288095D01*
X285570238Y-10350000D01*
X285508333Y-10411904D01*
X285384523Y-10597619D01*
X285322619Y-10845238D01*
X285322619Y-11340476D01*
X285384523Y-11464285D01*
X285446428Y-11526190D01*
X285570238Y-11588095D01*
X285817857Y-11588095D01*
X285941666Y-11526190D01*
X286003571Y-11464285D01*
X286065476Y-11340476D01*
X286065476Y-11030952D01*
X286003571Y-10907142D01*
X285941666Y-10845238D01*
X285817857Y-10783333D01*
X285570238Y-10783333D01*
X285446428Y-10845238D01*
X285384523Y-10907142D01*
X285322619Y-11030952D01*
D10*
D11*
X60000000Y-198007200D02*
X60000000Y-200007200D01*
D10*
D11*
X110000000Y-198007200D02*
X110000000Y-200007200D01*
D10*
D11*
X160000000Y-198007200D02*
X160000000Y-200007200D01*
D10*
D11*
X210000000Y-198007200D02*
X210000000Y-200007200D01*
D10*
D11*
X260000000Y-198007200D02*
X260000000Y-200007200D01*
D10*
D11*
X36065476Y-199595295D02*
X35322619Y-199595295D01*
X35694047Y-199595295D02*
X35694047Y-198295295D01*
X35570238Y-198481009D01*
X35446428Y-198604819D01*
X35322619Y-198666723D01*
D10*
D11*
X85322619Y-198419104D02*
X85384523Y-198357200D01*
X85508333Y-198295295D01*
X85817857Y-198295295D01*
X85941666Y-198357200D01*
X86003571Y-198419104D01*
X86065476Y-198542914D01*
X86065476Y-198666723D01*
X86003571Y-198852438D01*
X85260714Y-199595295D01*
X86065476Y-199595295D01*
D10*
D11*
X135260714Y-198295295D02*
X136065476Y-198295295D01*
X135632142Y-198790533D01*
X135817857Y-198790533D01*
X135941666Y-198852438D01*
X136003571Y-198914342D01*
X136065476Y-199038152D01*
X136065476Y-199347676D01*
X136003571Y-199471485D01*
X135941666Y-199533390D01*
X135817857Y-199595295D01*
X135446428Y-199595295D01*
X135322619Y-199533390D01*
X135260714Y-199471485D01*
D10*
D11*
X185941666Y-198728628D02*
X185941666Y-199595295D01*
X185632142Y-198233390D02*
X185322619Y-199161961D01*
X186127380Y-199161961D01*
D10*
D11*
X236003571Y-198295295D02*
X235384523Y-198295295D01*
X235322619Y-198914342D01*
X235384523Y-198852438D01*
X235508333Y-198790533D01*
X235817857Y-198790533D01*
X235941666Y-198852438D01*
X236003571Y-198914342D01*
X236065476Y-199038152D01*
X236065476Y-199347676D01*
X236003571Y-199471485D01*
X235941666Y-199533390D01*
X235817857Y-199595295D01*
X235508333Y-199595295D01*
X235384523Y-199533390D01*
X235322619Y-199471485D01*
D10*
D11*
X285941666Y-198295295D02*
X285694047Y-198295295D01*
X285570238Y-198357200D01*
X285508333Y-198419104D01*
X285384523Y-198604819D01*
X285322619Y-198852438D01*
X285322619Y-199347676D01*
X285384523Y-199471485D01*
X285446428Y-199533390D01*
X285570238Y-199595295D01*
X285817857Y-199595295D01*
X285941666Y-199533390D01*
X286003571Y-199471485D01*
X286065476Y-199347676D01*
X286065476Y-199038152D01*
X286003571Y-198914342D01*
X285941666Y-198852438D01*
X285817857Y-198790533D01*
X285570238Y-198790533D01*
X285446428Y-198852438D01*
X285384523Y-198914342D01*
X285322619Y-199038152D01*
D10*
D11*
X10000000Y-60000000D02*
X12000000Y-60000000D01*
D10*
D11*
X10000000Y-110000000D02*
X12000000Y-110000000D01*
D10*
D11*
X10000000Y-160000000D02*
X12000000Y-160000000D01*
D10*
D11*
X10690476Y-35216666D02*
X11309523Y-35216666D01*
X10566666Y-35588095D02*
X11000000Y-34288095D01*
X11433333Y-35588095D01*
D10*
D11*
X11092857Y-84907142D02*
X11278571Y-84969047D01*
X11340476Y-85030952D01*
X11402380Y-85154761D01*
X11402380Y-85340476D01*
X11340476Y-85464285D01*
X11278571Y-85526190D01*
X11154761Y-85588095D01*
X10659523Y-85588095D01*
X10659523Y-84288095D01*
X11092857Y-84288095D01*
X11216666Y-84350000D01*
X11278571Y-84411904D01*
X11340476Y-84535714D01*
X11340476Y-84659523D01*
X11278571Y-84783333D01*
X11216666Y-84845238D01*
X11092857Y-84907142D01*
X10659523Y-84907142D01*
D10*
D11*
X11402380Y-135464285D02*
X11340476Y-135526190D01*
X11154761Y-135588095D01*
X11030952Y-135588095D01*
X10845238Y-135526190D01*
X10721428Y-135402380D01*
X10659523Y-135278571D01*
X10597619Y-135030952D01*
X10597619Y-134845238D01*
X10659523Y-134597619D01*
X10721428Y-134473809D01*
X10845238Y-134350000D01*
X11030952Y-134288095D01*
X11154761Y-134288095D01*
X11340476Y-134350000D01*
X11402380Y-134411904D01*
D10*
D11*
X10659523Y-185588095D02*
X10659523Y-184288095D01*
X10969047Y-184288095D01*
X11154761Y-184350000D01*
X11278571Y-184473809D01*
X11340476Y-184597619D01*
X11402380Y-184845238D01*
X11402380Y-185030952D01*
X11340476Y-185278571D01*
X11278571Y-185402380D01*
X11154761Y-185526190D01*
X10969047Y-185588095D01*
X10659523Y-185588095D01*
D10*
D11*
X287002200Y-60000000D02*
X285002200Y-60000000D01*
D10*
D11*
X287002200Y-110000000D02*
X285002200Y-110000000D01*
D10*
D11*
X287002200Y-160000000D02*
X285002200Y-160000000D01*
D10*
D11*
X285692676Y-35216666D02*
X286311723Y-35216666D01*
X285568866Y-35588095D02*
X286002200Y-34288095D01*
X286435533Y-35588095D01*
D10*
D11*
X286095057Y-84907142D02*
X286280771Y-84969047D01*
X286342676Y-85030952D01*
X286404580Y-85154761D01*
X286404580Y-85340476D01*
X286342676Y-85464285D01*
X286280771Y-85526190D01*
X286156961Y-85588095D01*
X285661723Y-85588095D01*
X285661723Y-84288095D01*
X286095057Y-84288095D01*
X286218866Y-84350000D01*
X286280771Y-84411904D01*
X286342676Y-84535714D01*
X286342676Y-84659523D01*
X286280771Y-84783333D01*
X286218866Y-84845238D01*
X286095057Y-84907142D01*
X285661723Y-84907142D01*
D10*
D11*
X286404580Y-135464285D02*
X286342676Y-135526190D01*
X286156961Y-135588095D01*
X286033152Y-135588095D01*
X285847438Y-135526190D01*
X285723628Y-135402380D01*
X285661723Y-135278571D01*
X285599819Y-135030952D01*
X285599819Y-134845238D01*
X285661723Y-134597619D01*
X285723628Y-134473809D01*
X285847438Y-134350000D01*
X286033152Y-134288095D01*
X286156961Y-134288095D01*
X286342676Y-134350000D01*
X286404580Y-134411904D01*
D10*
D11*
X285661723Y-185588095D02*
X285661723Y-184288095D01*
X285971247Y-184288095D01*
X286156961Y-184350000D01*
X286280771Y-184473809D01*
X286342676Y-184597619D01*
X286404580Y-184845238D01*
X286404580Y-185030952D01*
X286342676Y-185278571D01*
X286280771Y-185402380D01*
X286156961Y-185526190D01*
X285971247Y-185588095D01*
X285661723Y-185588095D01*
D10*
D11*
X200434342Y-193785771D02*
X200434342Y-192285771D01*
X200791485Y-192285771D01*
X201005771Y-192357200D01*
X201148628Y-192500057D01*
X201220057Y-192642914D01*
X201291485Y-192928628D01*
X201291485Y-193142914D01*
X201220057Y-193428628D01*
X201148628Y-193571485D01*
X201005771Y-193714342D01*
X200791485Y-193785771D01*
X200434342Y-193785771D01*
X202577200Y-193785771D02*
X202577200Y-193000057D01*
X202505771Y-192857200D01*
X202362914Y-192785771D01*
X202077200Y-192785771D01*
X201934342Y-192857200D01*
X202577200Y-193714342D02*
X202434342Y-193785771D01*
X202077200Y-193785771D01*
X201934342Y-193714342D01*
X201862914Y-193571485D01*
X201862914Y-193428628D01*
X201934342Y-193285771D01*
X202077200Y-193214342D01*
X202434342Y-193214342D01*
X202577200Y-193142914D01*
X203077200Y-192785771D02*
X203648628Y-192785771D01*
X203291485Y-192285771D02*
X203291485Y-193571485D01*
X203362914Y-193714342D01*
X203505771Y-193785771D01*
X203648628Y-193785771D01*
X204720057Y-193714342D02*
X204577200Y-193785771D01*
X204291485Y-193785771D01*
X204148628Y-193714342D01*
X204077200Y-193571485D01*
X204077200Y-193000057D01*
X204148628Y-192857200D01*
X204291485Y-192785771D01*
X204577200Y-192785771D01*
X204720057Y-192857200D01*
X204791485Y-193000057D01*
X204791485Y-193142914D01*
X204077200Y-193285771D01*
X205434342Y-193642914D02*
X205505771Y-193714342D01*
X205434342Y-193785771D01*
X205362914Y-193714342D01*
X205434342Y-193642914D01*
X205434342Y-193785771D01*
X205434342Y-192857200D02*
X205505771Y-192928628D01*
X205434342Y-193000057D01*
X205362914Y-192928628D01*
X205434342Y-192857200D01*
X205434342Y-193000057D01*
D10*
D11*
X177002200Y-194507200D02*
X285002200Y-194507200D01*
D10*
D11*
X178434342Y-196585771D02*
X178434342Y-195085771D01*
X179291485Y-196585771D02*
X178648628Y-195728628D01*
X179291485Y-195085771D02*
X178434342Y-195942914D01*
X179934342Y-196585771D02*
X179934342Y-195585771D01*
X179934342Y-195085771D02*
X179862914Y-195157200D01*
X179934342Y-195228628D01*
X180005771Y-195157200D01*
X179934342Y-195085771D01*
X179934342Y-195228628D01*
X181505771Y-196442914D02*
X181434342Y-196514342D01*
X181220057Y-196585771D01*
X181077200Y-196585771D01*
X180862914Y-196514342D01*
X180720057Y-196371485D01*
X180648628Y-196228628D01*
X180577200Y-195942914D01*
X180577200Y-195728628D01*
X180648628Y-195442914D01*
X180720057Y-195300057D01*
X180862914Y-195157200D01*
X181077200Y-195085771D01*
X181220057Y-195085771D01*
X181434342Y-195157200D01*
X181505771Y-195228628D01*
X182791485Y-196585771D02*
X182791485Y-195800057D01*
X182720057Y-195657200D01*
X182577200Y-195585771D01*
X182291485Y-195585771D01*
X182148628Y-195657200D01*
X182791485Y-196514342D02*
X182648628Y-196585771D01*
X182291485Y-196585771D01*
X182148628Y-196514342D01*
X182077200Y-196371485D01*
X182077200Y-196228628D01*
X182148628Y-196085771D01*
X182291485Y-196014342D01*
X182648628Y-196014342D01*
X182791485Y-195942914D01*
X184148628Y-196585771D02*
X184148628Y-195085771D01*
X184148628Y-196514342D02*
X184005771Y-196585771D01*
X183720057Y-196585771D01*
X183577200Y-196514342D01*
X183505771Y-196442914D01*
X183434342Y-196300057D01*
X183434342Y-195871485D01*
X183505771Y-195728628D01*
X183577200Y-195657200D01*
X183720057Y-195585771D01*
X184005771Y-195585771D01*
X184148628Y-195657200D01*
X186005771Y-195800057D02*
X186505771Y-195800057D01*
X186720057Y-196585771D02*
X186005771Y-196585771D01*
X186005771Y-195085771D01*
X186720057Y-195085771D01*
X187362914Y-196442914D02*
X187434342Y-196514342D01*
X187362914Y-196585771D01*
X187291485Y-196514342D01*
X187362914Y-196442914D01*
X187362914Y-196585771D01*
X188077200Y-196585771D02*
X188077200Y-195085771D01*
X188434342Y-195085771D01*
X188648628Y-195157200D01*
X188791485Y-195300057D01*
X188862914Y-195442914D01*
X188934342Y-195728628D01*
X188934342Y-195942914D01*
X188862914Y-196228628D01*
X188791485Y-196371485D01*
X188648628Y-196514342D01*
X188434342Y-196585771D01*
X188077200Y-196585771D01*
X189577200Y-196442914D02*
X189648628Y-196514342D01*
X189577200Y-196585771D01*
X189505771Y-196514342D01*
X189577200Y-196442914D01*
X189577200Y-196585771D01*
X190220057Y-196157200D02*
X190934342Y-196157200D01*
X190077200Y-196585771D02*
X190577200Y-195085771D01*
X191077200Y-196585771D01*
X191577200Y-196442914D02*
X191648628Y-196514342D01*
X191577200Y-196585771D01*
X191505771Y-196514342D01*
X191577200Y-196442914D01*
X191577200Y-196585771D01*
X194577200Y-195585771D02*
X194577200Y-197085771D01*
X194577200Y-195657200D02*
X194720057Y-195585771D01*
X195005771Y-195585771D01*
X195148628Y-195657200D01*
X195220057Y-195728628D01*
X195291485Y-195871485D01*
X195291485Y-196300057D01*
X195220057Y-196442914D01*
X195148628Y-196514342D01*
X195005771Y-196585771D01*
X194720057Y-196585771D01*
X194577200Y-196514342D01*
X196577200Y-196514342D02*
X196434342Y-196585771D01*
X196148628Y-196585771D01*
X196005771Y-196514342D01*
X195934342Y-196442914D01*
X195862914Y-196300057D01*
X195862914Y-195871485D01*
X195934342Y-195728628D01*
X196005771Y-195657200D01*
X196148628Y-195585771D01*
X196434342Y-195585771D01*
X196577200Y-195657200D01*
X197220057Y-196585771D02*
X197220057Y-195085771D01*
X197220057Y-195657200D02*
X197362914Y-195585771D01*
X197648628Y-195585771D01*
X197791485Y-195657200D01*
X197862914Y-195728628D01*
X197934342Y-195871485D01*
X197934342Y-196300057D01*
X197862914Y-196442914D01*
X197791485Y-196514342D01*
X197648628Y-196585771D01*
X197362914Y-196585771D01*
X197220057Y-196514342D01*
X198577200Y-195585771D02*
X198577200Y-196585771D01*
X198577200Y-195728628D02*
X198648628Y-195657200D01*
X198791485Y-195585771D01*
X199005771Y-195585771D01*
X199148628Y-195657200D01*
X199220057Y-195800057D01*
X199220057Y-196585771D01*
X200505771Y-196514342D02*
X200362914Y-196585771D01*
X200077200Y-196585771D01*
X199934342Y-196514342D01*
X199862914Y-196371485D01*
X199862914Y-195800057D01*
X199934342Y-195657200D01*
X200077200Y-195585771D01*
X200362914Y-195585771D01*
X200505771Y-195657200D01*
X200577200Y-195800057D01*
X200577200Y-195942914D01*
X199862914Y-196085771D01*
X201077200Y-195585771D02*
X201362914Y-196585771D01*
X201648628Y-195871485D01*
X201934342Y-196585771D01*
X202220057Y-195585771D01*
X204648628Y-195085771D02*
X203934342Y-195085771D01*
X203862914Y-195800057D01*
X203934342Y-195728628D01*
X204077200Y-195657200D01*
X204434342Y-195657200D01*
X204577200Y-195728628D01*
X204648628Y-195800057D01*
X204720057Y-195942914D01*
X204720057Y-196300057D01*
X204648628Y-196442914D01*
X204577200Y-196514342D01*
X204434342Y-196585771D01*
X204077200Y-196585771D01*
X203934342Y-196514342D01*
X203862914Y-196442914D01*
X205362914Y-196442914D02*
X205434342Y-196514342D01*
X205362914Y-196585771D01*
X205291485Y-196514342D01*
X205362914Y-196442914D01*
X205362914Y-196585771D01*
X206862914Y-196585771D02*
X206005771Y-196585771D01*
X206434342Y-196585771D02*
X206434342Y-195085771D01*
X206291485Y-195300057D01*
X206148628Y-195442914D01*
X206005771Y-195514342D01*
X207505771Y-196442914D02*
X207577200Y-196514342D01*
X207505771Y-196585771D01*
X207434342Y-196514342D01*
X207505771Y-196442914D01*
X207505771Y-196585771D01*
X208862914Y-195085771D02*
X208577200Y-195085771D01*
X208434342Y-195157200D01*
X208362914Y-195228628D01*
X208220057Y-195442914D01*
X208148628Y-195728628D01*
X208148628Y-196300057D01*
X208220057Y-196442914D01*
X208291485Y-196514342D01*
X208434342Y-196585771D01*
X208720057Y-196585771D01*
X208862914Y-196514342D01*
X208934342Y-196442914D01*
X209005771Y-196300057D01*
X209005771Y-195942914D01*
X208934342Y-195800057D01*
X208862914Y-195728628D01*
X208720057Y-195657200D01*
X208434342Y-195657200D01*
X208291485Y-195728628D01*
X208220057Y-195800057D01*
X208148628Y-195942914D01*
X209648628Y-196014342D02*
X210791485Y-196014342D01*
X212148628Y-196514342D02*
X212005771Y-196585771D01*
X211720057Y-196585771D01*
X211577200Y-196514342D01*
X211505771Y-196442914D01*
X211434342Y-196300057D01*
X211434342Y-195871485D01*
X211505771Y-195728628D01*
X211577200Y-195657200D01*
X211720057Y-195585771D01*
X212005771Y-195585771D01*
X212148628Y-195657200D01*
X213434342Y-195085771D02*
X213148628Y-195085771D01*
X213005771Y-195157200D01*
X212934342Y-195228628D01*
X212791485Y-195442914D01*
X212720057Y-195728628D01*
X212720057Y-196300057D01*
X212791485Y-196442914D01*
X212862914Y-196514342D01*
X213005771Y-196585771D01*
X213291485Y-196585771D01*
X213434342Y-196514342D01*
X213505771Y-196442914D01*
X213577200Y-196300057D01*
X213577200Y-195942914D01*
X213505771Y-195800057D01*
X213434342Y-195728628D01*
X213291485Y-195657200D01*
X213005771Y-195657200D01*
X212862914Y-195728628D01*
X212791485Y-195800057D01*
X212720057Y-195942914D01*
X214791485Y-196514342D02*
X214648628Y-196585771D01*
X214362914Y-196585771D01*
X214220057Y-196514342D01*
X214148628Y-196371485D01*
X214148628Y-195800057D01*
X214220057Y-195657200D01*
X214362914Y-195585771D01*
X214648628Y-195585771D01*
X214791485Y-195657200D01*
X214862914Y-195800057D01*
X214862914Y-195942914D01*
X214148628Y-196085771D01*
X215362914Y-195085771D02*
X216362914Y-195085771D01*
X215720057Y-196585771D01*
X216720057Y-195585771D02*
X217291485Y-195585771D01*
X216934342Y-196585771D02*
X216934342Y-195300057D01*
X217005771Y-195157200D01*
X217148628Y-195085771D01*
X217291485Y-195085771D01*
X217648628Y-195085771D02*
X218648628Y-195085771D01*
X218005771Y-196585771D01*
X219862914Y-196585771D02*
X219862914Y-195085771D01*
X219862914Y-196514342D02*
X219720057Y-196585771D01*
X219434342Y-196585771D01*
X219291485Y-196514342D01*
X219220057Y-196442914D01*
X219148628Y-196300057D01*
X219148628Y-195871485D01*
X219220057Y-195728628D01*
X219291485Y-195657200D01*
X219434342Y-195585771D01*
X219720057Y-195585771D01*
X219862914Y-195657200D01*
X220220057Y-194677200D02*
X221648628Y-194677200D01*
X220791485Y-195728628D02*
X220648628Y-195657200D01*
X220577200Y-195585771D01*
X220505771Y-195442914D01*
X220505771Y-195371485D01*
X220577200Y-195228628D01*
X220648628Y-195157200D01*
X220791485Y-195085771D01*
X221077200Y-195085771D01*
X221220057Y-195157200D01*
X221291485Y-195228628D01*
X221362914Y-195371485D01*
X221362914Y-195442914D01*
X221291485Y-195585771D01*
X221220057Y-195657200D01*
X221077200Y-195728628D01*
X220791485Y-195728628D01*
X220648628Y-195800057D01*
X220577200Y-195871485D01*
X220505771Y-196014342D01*
X220505771Y-196300057D01*
X220577200Y-196442914D01*
X220648628Y-196514342D01*
X220791485Y-196585771D01*
X221077200Y-196585771D01*
X221220057Y-196514342D01*
X221291485Y-196442914D01*
X221362914Y-196300057D01*
X221362914Y-196014342D01*
X221291485Y-195871485D01*
X221220057Y-195800057D01*
X221077200Y-195728628D01*
X221648628Y-194677200D02*
X223077200Y-194677200D01*
X221862914Y-195085771D02*
X222862914Y-195085771D01*
X222220057Y-196585771D01*
X224077200Y-195585771D02*
X224077200Y-196585771D01*
X223434342Y-195585771D02*
X223434342Y-196371485D01*
X223505771Y-196514342D01*
X223648628Y-196585771D01*
X223862914Y-196585771D01*
X224005771Y-196514342D01*
X224077200Y-196442914D01*
X224791485Y-196585771D02*
X224791485Y-195085771D01*
X224791485Y-195657200D02*
X224934342Y-195585771D01*
X225220057Y-195585771D01*
X225362914Y-195657200D01*
X225434342Y-195728628D01*
X225505771Y-195871485D01*
X225505771Y-196300057D01*
X225434342Y-196442914D01*
X225362914Y-196514342D01*
X225220057Y-196585771D01*
X224934342Y-196585771D01*
X224791485Y-196514342D01*
X226791485Y-195585771D02*
X226791485Y-196585771D01*
X226148628Y-195585771D02*
X226148628Y-196371485D01*
X226220057Y-196514342D01*
X226362914Y-196585771D01*
X226577200Y-196585771D01*
X226720057Y-196514342D01*
X226791485Y-196442914D01*
X227505771Y-195585771D02*
X227505771Y-196585771D01*
X227505771Y-195728628D02*
X227577200Y-195657200D01*
X227720057Y-195585771D01*
X227934342Y-195585771D01*
X228077200Y-195657200D01*
X228148628Y-195800057D01*
X228148628Y-196585771D01*
X228648628Y-195585771D02*
X229220057Y-195585771D01*
X228862914Y-195085771D02*
X228862914Y-196371485D01*
X228934342Y-196514342D01*
X229077200Y-196585771D01*
X229220057Y-196585771D01*
X230362914Y-195585771D02*
X230362914Y-196585771D01*
X229720057Y-195585771D02*
X229720057Y-196371485D01*
X229791485Y-196514342D01*
X229934342Y-196585771D01*
X230148628Y-196585771D01*
X230291485Y-196514342D01*
X230362914Y-196442914D01*
X231005771Y-195228628D02*
X231077200Y-195157200D01*
X231220057Y-195085771D01*
X231577200Y-195085771D01*
X231720057Y-195157200D01*
X231791485Y-195228628D01*
X231862914Y-195371485D01*
X231862914Y-195514342D01*
X231791485Y-195728628D01*
X230934342Y-196585771D01*
X231862914Y-196585771D01*
X232791485Y-195085771D02*
X232934342Y-195085771D01*
X233077200Y-195157200D01*
X233148628Y-195228628D01*
X233220057Y-195371485D01*
X233291485Y-195657200D01*
X233291485Y-196014342D01*
X233220057Y-196300057D01*
X233148628Y-196442914D01*
X233077200Y-196514342D01*
X232934342Y-196585771D01*
X232791485Y-196585771D01*
X232648628Y-196514342D01*
X232577200Y-196442914D01*
X232505771Y-196300057D01*
X232434342Y-196014342D01*
X232434342Y-195657200D01*
X232505771Y-195371485D01*
X232577200Y-195228628D01*
X232648628Y-195157200D01*
X232791485Y-195085771D01*
X233934342Y-196442914D02*
X234005771Y-196514342D01*
X233934342Y-196585771D01*
X233862914Y-196514342D01*
X233934342Y-196442914D01*
X233934342Y-196585771D01*
X234934342Y-195085771D02*
X235077200Y-195085771D01*
X235220057Y-195157200D01*
X235291485Y-195228628D01*
X235362914Y-195371485D01*
X235434342Y-195657200D01*
X235434342Y-196014342D01*
X235362914Y-196300057D01*
X235291485Y-196442914D01*
X235220057Y-196514342D01*
X235077200Y-196585771D01*
X234934342Y-196585771D01*
X234791485Y-196514342D01*
X234720057Y-196442914D01*
X234648628Y-196300057D01*
X234577200Y-196014342D01*
X234577200Y-195657200D01*
X234648628Y-195371485D01*
X234720057Y-195228628D01*
X234791485Y-195157200D01*
X234934342Y-195085771D01*
X236720057Y-195585771D02*
X236720057Y-196585771D01*
X236362914Y-195014342D02*
X236005771Y-196085771D01*
X236934342Y-196085771D01*
X237505771Y-196442914D02*
X237577199Y-196514342D01*
X237505771Y-196585771D01*
X237434342Y-196514342D01*
X237505771Y-196442914D01*
X237505771Y-196585771D01*
X239005771Y-196585771D02*
X238148628Y-196585771D01*
X238577200Y-196585771D02*
X238577200Y-195085771D01*
X238434342Y-195300057D01*
X238291485Y-195442914D01*
X238148628Y-195514342D01*
D10*
D11*
X177002200Y-191507200D02*
X285002200Y-191507200D01*
D10*
D12*
X264411485Y-193785771D02*
X263911485Y-193071485D01*
X263554342Y-193785771D02*
X263554342Y-192285771D01*
X264125771Y-192285771D01*
X264268628Y-192357200D01*
X264340057Y-192428628D01*
X264411485Y-192571485D01*
X264411485Y-192785771D01*
X264340057Y-192928628D01*
X264268628Y-193000057D01*
X264125771Y-193071485D01*
X263554342Y-193071485D01*
X265625771Y-193714342D02*
X265482914Y-193785771D01*
X265197200Y-193785771D01*
X265054342Y-193714342D01*
X264982914Y-193571485D01*
X264982914Y-193000057D01*
X265054342Y-192857200D01*
X265197200Y-192785771D01*
X265482914Y-192785771D01*
X265625771Y-192857200D01*
X265697200Y-193000057D01*
X265697200Y-193142914D01*
X264982914Y-193285771D01*
X266197200Y-192785771D02*
X266554342Y-193785771D01*
X266911485Y-192785771D01*
X267482914Y-193642914D02*
X267554342Y-193714342D01*
X267482914Y-193785771D01*
X267411485Y-193714342D01*
X267482914Y-193642914D01*
X267482914Y-193785771D01*
X267482914Y-192857200D02*
X267554342Y-192928628D01*
X267482914Y-193000057D01*
X267411485Y-192928628D01*
X267482914Y-192857200D01*
X267482914Y-193000057D01*
D10*
D11*
X178362914Y-193714342D02*
X178577200Y-193785771D01*
X178934342Y-193785771D01*
X179077200Y-193714342D01*
X179148628Y-193642914D01*
X179220057Y-193500057D01*
X179220057Y-193357200D01*
X179148628Y-193214342D01*
X179077200Y-193142914D01*
X178934342Y-193071485D01*
X178648628Y-193000057D01*
X178505771Y-192928628D01*
X178434342Y-192857200D01*
X178362914Y-192714342D01*
X178362914Y-192571485D01*
X178434342Y-192428628D01*
X178505771Y-192357200D01*
X178648628Y-192285771D01*
X179005771Y-192285771D01*
X179220057Y-192357200D01*
X179862914Y-193785771D02*
X179862914Y-192785771D01*
X179862914Y-192285771D02*
X179791485Y-192357200D01*
X179862914Y-192428628D01*
X179934342Y-192357200D01*
X179862914Y-192285771D01*
X179862914Y-192428628D01*
X180434342Y-192785771D02*
X181220057Y-192785771D01*
X180434342Y-193785771D01*
X181220057Y-193785771D01*
X182362914Y-193714342D02*
X182220057Y-193785771D01*
X181934342Y-193785771D01*
X181791485Y-193714342D01*
X181720057Y-193571485D01*
X181720057Y-193000057D01*
X181791485Y-192857200D01*
X181934342Y-192785771D01*
X182220057Y-192785771D01*
X182362914Y-192857200D01*
X182434342Y-193000057D01*
X182434342Y-193142914D01*
X181720057Y-193285771D01*
X183077200Y-193642914D02*
X183148628Y-193714342D01*
X183077200Y-193785771D01*
X183005771Y-193714342D01*
X183077200Y-193642914D01*
X183077200Y-193785771D01*
X183077200Y-192857200D02*
X183148628Y-192928628D01*
X183077200Y-193000057D01*
X183005771Y-192928628D01*
X183077200Y-192857200D01*
X183077200Y-193000057D01*
X184862914Y-193357200D02*
X185577200Y-193357200D01*
X184720057Y-193785771D02*
X185220057Y-192285771D01*
X185720057Y-193785771D01*
X186862914Y-192785771D02*
X186862914Y-193785771D01*
X186505771Y-192214342D02*
X186148628Y-193285771D01*
X187077200Y-193285771D01*
D10*
D11*
X263434342Y-196585771D02*
X263434342Y-195085771D01*
X264791485Y-196585771D02*
X264791485Y-195085771D01*
X264791485Y-196514342D02*
X264648628Y-196585771D01*
X264362914Y-196585771D01*
X264220057Y-196514342D01*
X264148628Y-196442914D01*
X264077200Y-196300057D01*
X264077200Y-195871485D01*
X264148628Y-195728628D01*
X264220057Y-195657200D01*
X264362914Y-195585771D01*
X264648628Y-195585771D01*
X264791485Y-195657200D01*
X265505771Y-196442914D02*
X265577200Y-196514342D01*
X265505771Y-196585771D01*
X265434342Y-196514342D01*
X265505771Y-196442914D01*
X265505771Y-196585771D01*
X265505771Y-195657200D02*
X265577200Y-195728628D01*
X265505771Y-195800057D01*
X265434342Y-195728628D01*
X265505771Y-195657200D01*
X265505771Y-195800057D01*
X268148628Y-196585771D02*
X267291485Y-196585771D01*
X267720057Y-196585771D02*
X267720057Y-195085771D01*
X267577200Y-195300057D01*
X267434342Y-195442914D01*
X267291485Y-195514342D01*
X269862914Y-195014342D02*
X268577200Y-196942914D01*
X271148628Y-196585771D02*
X270291485Y-196585771D01*
X270720057Y-196585771D02*
X270720057Y-195085771D01*
X270577200Y-195300057D01*
X270434342Y-195442914D01*
X270291485Y-195514342D01*
D10*
D11*
X177002200Y-187507200D02*
X285002200Y-187507200D01*
D10*
D13*
X178714580Y-188211961D02*
X179857438Y-188211961D01*
X179036009Y-190211961D02*
X179286009Y-188211961D01*
X180274104Y-190211961D02*
X180440771Y-188878628D01*
X180524104Y-188211961D02*
X180416961Y-188307200D01*
X180500295Y-188402438D01*
X180607438Y-188307200D01*
X180524104Y-188211961D01*
X180500295Y-188402438D01*
X181107438Y-188878628D02*
X181869342Y-188878628D01*
X181476485Y-188211961D02*
X181262200Y-189926247D01*
X181333628Y-190116723D01*
X181512200Y-190211961D01*
X181702676Y-190211961D01*
X182655057Y-190211961D02*
X182476485Y-190116723D01*
X182405057Y-189926247D01*
X182619342Y-188211961D01*
X184190771Y-190116723D02*
X183988390Y-190211961D01*
X183607438Y-190211961D01*
X183428866Y-190116723D01*
X183357438Y-189926247D01*
X183452676Y-189164342D01*
X183571723Y-188973866D01*
X183774104Y-188878628D01*
X184155057Y-188878628D01*
X184333628Y-188973866D01*
X184405057Y-189164342D01*
X184381247Y-189354819D01*
X183405057Y-189545295D01*
X185155057Y-190021485D02*
X185238390Y-190116723D01*
X185131247Y-190211961D01*
X185047914Y-190116723D01*
X185155057Y-190021485D01*
X185131247Y-190211961D01*
X185286009Y-188973866D02*
X185369342Y-189069104D01*
X185262200Y-189164342D01*
X185178866Y-189069104D01*
X185286009Y-188973866D01*
X185262200Y-189164342D01*
D10*
D11*
X178934342Y-185600057D02*
X178434342Y-185600057D01*
X178434342Y-186385771D02*
X178434342Y-184885771D01*
X179148628Y-184885771D01*
X179720057Y-186385771D02*
X179720057Y-185385771D01*
X179720057Y-184885771D02*
X179648628Y-184957200D01*
X179720057Y-185028628D01*
X179791485Y-184957200D01*
X179720057Y-184885771D01*
X179720057Y-185028628D01*
X180648628Y-186385771D02*
X180505771Y-186314342D01*
X180434342Y-186171485D01*
X180434342Y-184885771D01*
X181791485Y-186314342D02*
X181648628Y-186385771D01*
X181362914Y-186385771D01*
X181220057Y-186314342D01*
X181148628Y-186171485D01*
X181148628Y-185600057D01*
X181220057Y-185457200D01*
X181362914Y-185385771D01*
X181648628Y-185385771D01*
X181791485Y-185457200D01*
X181862914Y-185600057D01*
X181862914Y-185742914D01*
X181148628Y-185885771D01*
X182505771Y-186242914D02*
X182577200Y-186314342D01*
X182505771Y-186385771D01*
X182434342Y-186314342D01*
X182505771Y-186242914D01*
X182505771Y-186385771D01*
X182505771Y-185457200D02*
X182577200Y-185528628D01*
X182505771Y-185600057D01*
X182434342Y-185528628D01*
X182505771Y-185457200D01*
X182505771Y-185600057D01*
X184362914Y-186385771D02*
X184362914Y-185385771D01*
X184362914Y-185671485D02*
X184434342Y-185528628D01*
X184505771Y-185457200D01*
X184648628Y-185385771D01*
X184791485Y-185385771D01*
X185862914Y-186314342D02*
X185720057Y-186385771D01*
X185434342Y-186385771D01*
X185291485Y-186314342D01*
X185220057Y-186171485D01*
X185220057Y-185600057D01*
X185291485Y-185457200D01*
X185434342Y-185385771D01*
X185720057Y-185385771D01*
X185862914Y-185457200D01*
X185934342Y-185600057D01*
X185934342Y-185742914D01*
X185220057Y-185885771D01*
X186434342Y-185385771D02*
X186791485Y-186385771D01*
X187148628Y-185385771D01*
X188291485Y-186314342D02*
X188148628Y-186385771D01*
X187862914Y-186385771D01*
X187720057Y-186314342D01*
X187648628Y-186171485D01*
X187648628Y-185600057D01*
X187720057Y-185457200D01*
X187862914Y-185385771D01*
X188148628Y-185385771D01*
X188291485Y-185457200D01*
X188362914Y-185600057D01*
X188362914Y-185742914D01*
X187648628Y-185885771D01*
X189005771Y-186385771D02*
X189005771Y-185385771D01*
X189005771Y-185671485D02*
X189077200Y-185528628D01*
X189148628Y-185457200D01*
X189291485Y-185385771D01*
X189434342Y-185385771D01*
X189862914Y-186314342D02*
X190005771Y-186385771D01*
X190291485Y-186385771D01*
X190434342Y-186314342D01*
X190505771Y-186171485D01*
X190505771Y-186100057D01*
X190434342Y-185957200D01*
X190291485Y-185885771D01*
X190077200Y-185885771D01*
X189934342Y-185814342D01*
X189862914Y-185671485D01*
X189862914Y-185600057D01*
X189934342Y-185457200D01*
X190077200Y-185385771D01*
X190291485Y-185385771D01*
X190434342Y-185457200D01*
X191720057Y-186314342D02*
X191577200Y-186385771D01*
X191291485Y-186385771D01*
X191148628Y-186314342D01*
X191077200Y-186171485D01*
X191077200Y-185600057D01*
X191148628Y-185457200D01*
X191291485Y-185385771D01*
X191577200Y-185385771D01*
X191720057Y-185457200D01*
X191791485Y-185600057D01*
X191791485Y-185742914D01*
X191077200Y-185885771D01*
X192434342Y-185814342D02*
X193577200Y-185814342D01*
X194291485Y-185385771D02*
X194291485Y-186885771D01*
X194291485Y-185457200D02*
X194434342Y-185385771D01*
X194720057Y-185385771D01*
X194862914Y-185457200D01*
X194934342Y-185528628D01*
X195005771Y-185671485D01*
X195005771Y-186100057D01*
X194934342Y-186242914D01*
X194862914Y-186314342D01*
X194720057Y-186385771D01*
X194434342Y-186385771D01*
X194291485Y-186314342D01*
X195862914Y-186385771D02*
X195720057Y-186314342D01*
X195648628Y-186242914D01*
X195577200Y-186100057D01*
X195577200Y-185671485D01*
X195648628Y-185528628D01*
X195720057Y-185457200D01*
X195862914Y-185385771D01*
X196077200Y-185385771D01*
X196220057Y-185457200D01*
X196291485Y-185528628D01*
X196362914Y-185671485D01*
X196362914Y-186100057D01*
X196291485Y-186242914D01*
X196220057Y-186314342D01*
X196077200Y-186385771D01*
X195862914Y-186385771D01*
X197220057Y-186385771D02*
X197077200Y-186314342D01*
X197005771Y-186171485D01*
X197005771Y-184885771D01*
X198434342Y-186385771D02*
X198434342Y-185600057D01*
X198362914Y-185457200D01*
X198220057Y-185385771D01*
X197934342Y-185385771D01*
X197791485Y-185457200D01*
X198434342Y-186314342D02*
X198291485Y-186385771D01*
X197934342Y-186385771D01*
X197791485Y-186314342D01*
X197720057Y-186171485D01*
X197720057Y-186028628D01*
X197791485Y-185885771D01*
X197934342Y-185814342D01*
X198291485Y-185814342D01*
X198434342Y-185742914D01*
X199148628Y-186385771D02*
X199148628Y-185385771D01*
X199148628Y-185671485D02*
X199220057Y-185528628D01*
X199291485Y-185457200D01*
X199434342Y-185385771D01*
X199577200Y-185385771D01*
X200077200Y-186385771D02*
X200077200Y-185385771D01*
X200077200Y-184885771D02*
X200005771Y-184957200D01*
X200077200Y-185028628D01*
X200148628Y-184957200D01*
X200077200Y-184885771D01*
X200077200Y-185028628D01*
X200577200Y-185385771D02*
X201148628Y-185385771D01*
X200791485Y-184885771D02*
X200791485Y-186171485D01*
X200862914Y-186314342D01*
X201005771Y-186385771D01*
X201148628Y-186385771D01*
X201505771Y-185385771D02*
X201862914Y-186385771D01*
X202220057Y-185385771D02*
X201862914Y-186385771D01*
X201720057Y-186742914D01*
X201648628Y-186814342D01*
X201505771Y-186885771D01*
X202791485Y-186242914D02*
X202862914Y-186314342D01*
X202791485Y-186385771D01*
X202720057Y-186314342D01*
X202791485Y-186242914D01*
X202791485Y-186385771D01*
X203505771Y-186385771D02*
X203505771Y-184885771D01*
X203648628Y-185814342D02*
X204077200Y-186385771D01*
X204077200Y-185385771D02*
X203505771Y-185957200D01*
X204720057Y-186385771D02*
X204720057Y-185385771D01*
X204720057Y-184885771D02*
X204648628Y-184957200D01*
X204720057Y-185028628D01*
X204791485Y-184957200D01*
X204720057Y-184885771D01*
X204720057Y-185028628D01*
X206077200Y-186314342D02*
X205934342Y-186385771D01*
X205648628Y-186385771D01*
X205505771Y-186314342D01*
X205434342Y-186242914D01*
X205362914Y-186100057D01*
X205362914Y-185671485D01*
X205434342Y-185528628D01*
X205505771Y-185457200D01*
X205648628Y-185385771D01*
X205934342Y-185385771D01*
X206077200Y-185457200D01*
X207362914Y-186385771D02*
X207362914Y-185600057D01*
X207291485Y-185457200D01*
X207148628Y-185385771D01*
X206862914Y-185385771D01*
X206720057Y-185457200D01*
X207362914Y-186314342D02*
X207220057Y-186385771D01*
X206862914Y-186385771D01*
X206720057Y-186314342D01*
X206648628Y-186171485D01*
X206648628Y-186028628D01*
X206720057Y-185885771D01*
X206862914Y-185814342D01*
X207220057Y-185814342D01*
X207362914Y-185742914D01*
X208720057Y-186385771D02*
X208720057Y-184885771D01*
X208720057Y-186314342D02*
X208577200Y-186385771D01*
X208291485Y-186385771D01*
X208148628Y-186314342D01*
X208077200Y-186242914D01*
X208005771Y-186100057D01*
X208005771Y-185671485D01*
X208077200Y-185528628D01*
X208148628Y-185457200D01*
X208291485Y-185385771D01*
X208577200Y-185385771D01*
X208720057Y-185457200D01*
X209077200Y-186528628D02*
X210220057Y-186528628D01*
X210577200Y-185385771D02*
X210577200Y-186885771D01*
X210577200Y-185457200D02*
X210720057Y-185385771D01*
X211005771Y-185385771D01*
X211148628Y-185457200D01*
X211220057Y-185528628D01*
X211291485Y-185671485D01*
X211291485Y-186100057D01*
X211220057Y-186242914D01*
X211148628Y-186314342D01*
X211005771Y-186385771D01*
X210720057Y-186385771D01*
X210577200Y-186314342D01*
X212577200Y-186314342D02*
X212434342Y-186385771D01*
X212148628Y-186385771D01*
X212005771Y-186314342D01*
X211934342Y-186242914D01*
X211862914Y-186100057D01*
X211862914Y-185671485D01*
X211934342Y-185528628D01*
X212005771Y-185457200D01*
X212148628Y-185385771D01*
X212434342Y-185385771D01*
X212577200Y-185457200D01*
X213220057Y-186385771D02*
X213220057Y-184885771D01*
X213220057Y-185457200D02*
X213362914Y-185385771D01*
X213648628Y-185385771D01*
X213791485Y-185457200D01*
X213862914Y-185528628D01*
X213934342Y-185671485D01*
X213934342Y-186100057D01*
X213862914Y-186242914D01*
X213791485Y-186314342D01*
X213648628Y-186385771D01*
X213362914Y-186385771D01*
X213220057Y-186314342D01*
D10*
D11*
X177002200Y-181507200D02*
X285002200Y-181507200D01*
D10*
D11*
X178362914Y-183614342D02*
X178577200Y-183685771D01*
X178934342Y-183685771D01*
X179077200Y-183614342D01*
X179148628Y-183542914D01*
X179220057Y-183400057D01*
X179220057Y-183257200D01*
X179148628Y-183114342D01*
X179077200Y-183042914D01*
X178934342Y-182971485D01*
X178648628Y-182900057D01*
X178505771Y-182828628D01*
X178434342Y-182757200D01*
X178362914Y-182614342D01*
X178362914Y-182471485D01*
X178434342Y-182328628D01*
X178505771Y-182257200D01*
X178648628Y-182185771D01*
X179005771Y-182185771D01*
X179220057Y-182257200D01*
X179862914Y-183685771D02*
X179862914Y-182185771D01*
X180505771Y-183685771D02*
X180505771Y-182900057D01*
X180434342Y-182757200D01*
X180291485Y-182685771D01*
X180077200Y-182685771D01*
X179934342Y-182757200D01*
X179862914Y-182828628D01*
X181791485Y-183614342D02*
X181648628Y-183685771D01*
X181362914Y-183685771D01*
X181220057Y-183614342D01*
X181148628Y-183471485D01*
X181148628Y-182900057D01*
X181220057Y-182757200D01*
X181362914Y-182685771D01*
X181648628Y-182685771D01*
X181791485Y-182757200D01*
X181862914Y-182900057D01*
X181862914Y-183042914D01*
X181148628Y-183185771D01*
X183077200Y-183614342D02*
X182934342Y-183685771D01*
X182648628Y-183685771D01*
X182505771Y-183614342D01*
X182434342Y-183471485D01*
X182434342Y-182900057D01*
X182505771Y-182757200D01*
X182648628Y-182685771D01*
X182934342Y-182685771D01*
X183077200Y-182757200D01*
X183148628Y-182900057D01*
X183148628Y-183042914D01*
X182434342Y-183185771D01*
X183577200Y-182685771D02*
X184148628Y-182685771D01*
X183791485Y-182185771D02*
X183791485Y-183471485D01*
X183862914Y-183614342D01*
X184005771Y-183685771D01*
X184148628Y-183685771D01*
X184648628Y-183542914D02*
X184720057Y-183614342D01*
X184648628Y-183685771D01*
X184577200Y-183614342D01*
X184648628Y-183542914D01*
X184648628Y-183685771D01*
X184648628Y-182757200D02*
X184720057Y-182828628D01*
X184648628Y-182900057D01*
X184577200Y-182828628D01*
X184648628Y-182757200D01*
X184648628Y-182900057D01*
D10*
D11*
X197002200Y-191507200D02*
X197002200Y-194507200D01*
D10*
D11*
X261002200Y-191507200D02*
X261002200Y-198007200D01*
D12*
X107678571Y-62535714D02*
X106178571Y-62535714D01*
X107107142Y-62392857D02*
X107678571Y-61964285D01*
X106678571Y-61964285D02*
X107250000Y-62535714D01*
X107678571Y-61321428D02*
X106678571Y-61321428D01*
X106964285Y-61321428D02*
X106821428Y-61250000D01*
X106750000Y-61178571D01*
X106678571Y-61035714D01*
X106678571Y-60892857D01*
X107678571Y-60392857D02*
X106178571Y-60392857D01*
X106750000Y-60392857D02*
X106678571Y-60250000D01*
X106678571Y-59964285D01*
X106750000Y-59821428D01*
X106821428Y-59750000D01*
X106964285Y-59678571D01*
X107392857Y-59678571D01*
X107535714Y-59750000D01*
X107607142Y-59821428D01*
X107678571Y-59964285D01*
X107678571Y-60250000D01*
X107607142Y-60392857D01*
X107678571Y-59035714D02*
X106178571Y-59035714D01*
X107678571Y-58392857D02*
X106892857Y-58392857D01*
X106750000Y-58464285D01*
X106678571Y-58607142D01*
X106678571Y-58821428D01*
X106750000Y-58964285D01*
X106821428Y-59035714D01*
X106678571Y-57821428D02*
X107678571Y-57464285D01*
X106678571Y-57107142D01*
X107607142Y-55964285D02*
X107678571Y-56107142D01*
X107678571Y-56392857D01*
X107607142Y-56535714D01*
X107464285Y-56607142D01*
X106892857Y-56607142D01*
X106750000Y-56535714D01*
X106678571Y-56392857D01*
X106678571Y-56107142D01*
X106750000Y-55964285D01*
X106892857Y-55892857D01*
X107035714Y-55892857D01*
X107178571Y-56607142D01*
X107607142Y-54678571D02*
X107678571Y-54821428D01*
X107678571Y-55107142D01*
X107607142Y-55250000D01*
X107464285Y-55321428D01*
X106892857Y-55321428D01*
X106750000Y-55250000D01*
X106678571Y-55107142D01*
X106678571Y-54821428D01*
X106750000Y-54678571D01*
X106892857Y-54607142D01*
X107035714Y-54607142D01*
X107178571Y-55321428D01*
X106964285Y-53035714D02*
X106892857Y-53107142D01*
X106821428Y-53250000D01*
X106821428Y-53392857D01*
X106892857Y-53535714D01*
X106964285Y-53607142D01*
X107107142Y-53678571D01*
X107250000Y-53678571D01*
X107392857Y-53607142D01*
X107464285Y-53535714D01*
X107535714Y-53392857D01*
X107535714Y-53250000D01*
X107464285Y-53107142D01*
X107392857Y-53035714D01*
X106821428Y-53035714D02*
X107392857Y-53035714D01*
X107464285Y-52964285D01*
X107464285Y-52892857D01*
X107392857Y-52750000D01*
X107250000Y-52678571D01*
X106892857Y-52678571D01*
X106678571Y-52821428D01*
X106535714Y-53035714D01*
X106464285Y-53321428D01*
X106535714Y-53607142D01*
X106678571Y-53821428D01*
X106892857Y-53964285D01*
X107178571Y-54035714D01*
X107464285Y-53964285D01*
X107678571Y-53821428D01*
X107821428Y-53607142D01*
X107892857Y-53321428D01*
X107821428Y-53035714D01*
X107678571Y-52821428D01*
X107678571Y-51821428D02*
X107607142Y-51964285D01*
X107535714Y-52035714D01*
X107392857Y-52107142D01*
X106964285Y-52107142D01*
X106821428Y-52035714D01*
X106750000Y-51964285D01*
X106678571Y-51821428D01*
X106678571Y-51607142D01*
X106750000Y-51464285D01*
X106821428Y-51392857D01*
X106964285Y-51321428D01*
X107392857Y-51321428D01*
X107535714Y-51392857D01*
X107607142Y-51464285D01*
X107678571Y-51607142D01*
X107678571Y-51821428D01*
X106678571Y-50678571D02*
X107678571Y-50678571D01*
X106821428Y-50678571D02*
X106750000Y-50607142D01*
X106678571Y-50464285D01*
X106678571Y-50250000D01*
X106750000Y-50107142D01*
X106892857Y-50035714D01*
X107678571Y-50035714D01*
X107678571Y-49107142D02*
X107607142Y-49250000D01*
X107464285Y-49321428D01*
X106178571Y-49321428D01*
X107678571Y-48535714D02*
X106678571Y-48535714D01*
X106178571Y-48535714D02*
X106250000Y-48607142D01*
X106321428Y-48535714D01*
X106250000Y-48464285D01*
X106178571Y-48535714D01*
X106321428Y-48535714D01*
X106678571Y-47821428D02*
X107678571Y-47821428D01*
X106821428Y-47821428D02*
X106750000Y-47750000D01*
X106678571Y-47607142D01*
X106678571Y-47392857D01*
X106750000Y-47250000D01*
X106892857Y-47178571D01*
X107678571Y-47178571D01*
X107607142Y-45892857D02*
X107678571Y-46035714D01*
X107678571Y-46321428D01*
X107607142Y-46464285D01*
X107464285Y-46535714D01*
X106892857Y-46535714D01*
X106750000Y-46464285D01*
X106678571Y-46321428D01*
X106678571Y-46035714D01*
X106750000Y-45892857D01*
X106892857Y-45821428D01*
X107035714Y-45821428D01*
X107178571Y-46535714D01*
X107535714Y-45178571D02*
X107607142Y-45107142D01*
X107678571Y-45178571D01*
X107607142Y-45250000D01*
X107535714Y-45178571D01*
X107678571Y-45178571D01*
X106678571Y-44464285D02*
X107678571Y-44464285D01*
X106821428Y-44464285D02*
X106750000Y-44392857D01*
X106678571Y-44250000D01*
X106678571Y-44035714D01*
X106750000Y-43892857D01*
X106892857Y-43821428D01*
X107678571Y-43821428D01*
X107678571Y-42892857D02*
X107607142Y-43035714D01*
X107535714Y-43107142D01*
X107392857Y-43178571D01*
X106964285Y-43178571D01*
X106821428Y-43107142D01*
X106750000Y-43035714D01*
X106678571Y-42892857D01*
X106678571Y-42678571D01*
X106750000Y-42535714D01*
X106821428Y-42464285D01*
X106964285Y-42392857D01*
X107392857Y-42392857D01*
X107535714Y-42464285D01*
X107607142Y-42535714D01*
X107678571Y-42678571D01*
X107678571Y-42892857D01*
X92428571Y-61678571D02*
X92428571Y-60178571D01*
X92785714Y-60178571D01*
X93000000Y-60250000D01*
X93142857Y-60392857D01*
X93214285Y-60535714D01*
X93285714Y-60821428D01*
X93285714Y-61035714D01*
X93214285Y-61321428D01*
X93142857Y-61464285D01*
X93000000Y-61607142D01*
X92785714Y-61678571D01*
X92428571Y-61678571D01*
X94785714Y-61535714D02*
X94714285Y-61607142D01*
X94500000Y-61678571D01*
X94357142Y-61678571D01*
X94142857Y-61607142D01*
X94000000Y-61464285D01*
X93928571Y-61321428D01*
X93857142Y-61035714D01*
X93857142Y-60821428D01*
X93928571Y-60535714D01*
X94000000Y-60392857D01*
X94142857Y-60250000D01*
X94357142Y-60178571D01*
X94500000Y-60178571D01*
X94714285Y-60250000D01*
X94785714Y-60321428D01*
X95428571Y-61107142D02*
X96571428Y-61107142D01*
X96000000Y-61678571D02*
X96000000Y-60535714D01*
X90750000Y-65392857D02*
X90964285Y-65464285D01*
X91035714Y-65535714D01*
X91107142Y-65678571D01*
X91107142Y-65892857D01*
X91035714Y-66035714D01*
X90964285Y-66107142D01*
X90821428Y-66178571D01*
X90250000Y-66178571D01*
X90250000Y-64678571D01*
X90750000Y-64678571D01*
X90892857Y-64750000D01*
X90964285Y-64821428D01*
X91035714Y-64964285D01*
X91035714Y-65107142D01*
X90964285Y-65250000D01*
X90892857Y-65321428D01*
X90750000Y-65392857D01*
X90250000Y-65392857D01*
X91678571Y-65750000D02*
X92392857Y-65750000D01*
X91535714Y-66178571D02*
X92035714Y-64678571D01*
X92535714Y-66178571D01*
X92821428Y-64678571D02*
X93678571Y-64678571D01*
X93250000Y-66178571D02*
X93250000Y-64678571D01*
X93964285Y-64678571D02*
X94821428Y-64678571D01*
X94392857Y-66178571D02*
X94392857Y-64678571D01*
X95321428Y-65392857D02*
X95821428Y-65392857D01*
X96035714Y-66178571D02*
X95321428Y-66178571D01*
X95321428Y-64678571D01*
X96035714Y-64678571D01*
X97535714Y-66178571D02*
X97035714Y-65464285D01*
X96678571Y-66178571D02*
X96678571Y-64678571D01*
X97250000Y-64678571D01*
X97392857Y-64750000D01*
X97464285Y-64821428D01*
X97535714Y-64964285D01*
X97535714Y-65178571D01*
X97464285Y-65321428D01*
X97392857Y-65392857D01*
X97250000Y-65464285D01*
X96678571Y-65464285D01*
X98464285Y-65464285D02*
X98464285Y-66178571D01*
X97964285Y-64678571D02*
X98464285Y-65464285D01*
X98964285Y-64678571D01*
X80357142Y-58178571D02*
X80357142Y-56678571D01*
X80714285Y-56678571D01*
X80928571Y-56750000D01*
X81071428Y-56892857D01*
X81142857Y-57035714D01*
X81214285Y-57321428D01*
X81214285Y-57535714D01*
X81142857Y-57821428D01*
X81071428Y-57964285D01*
X80928571Y-58107142D01*
X80714285Y-58178571D01*
X80357142Y-58178571D01*
X82714285Y-58035714D02*
X82642857Y-58107142D01*
X82428571Y-58178571D01*
X82285714Y-58178571D01*
X82071428Y-58107142D01*
X81928571Y-57964285D01*
X81857142Y-57821428D01*
X81785714Y-57535714D01*
X81785714Y-57321428D01*
X81857142Y-57035714D01*
X81928571Y-56892857D01*
X82071428Y-56750000D01*
X82285714Y-56678571D01*
X82428571Y-56678571D01*
X82642857Y-56750000D01*
X82714285Y-56821428D01*
X84500000Y-57607142D02*
X85642857Y-57607142D01*
X90678571Y-64107142D02*
X90892857Y-64178571D01*
X91250000Y-64178571D01*
X91392857Y-64107142D01*
X91464285Y-64035714D01*
X91535714Y-63892857D01*
X91535714Y-63750000D01*
X91464285Y-63607142D01*
X91392857Y-63535714D01*
X91250000Y-63464285D01*
X90964285Y-63392857D01*
X90821428Y-63321428D01*
X90750000Y-63250000D01*
X90678571Y-63107142D01*
X90678571Y-62964285D01*
X90750000Y-62821428D01*
X90821428Y-62750000D01*
X90964285Y-62678571D01*
X91321428Y-62678571D01*
X91535714Y-62750000D01*
X92178571Y-64178571D02*
X92178571Y-62678571D01*
X92750000Y-62678571D01*
X92892857Y-62750000D01*
X92964285Y-62821428D01*
X93035714Y-62964285D01*
X93035714Y-63178571D01*
X92964285Y-63321428D01*
X92892857Y-63392857D01*
X92750000Y-63464285D01*
X92178571Y-63464285D01*
X94535714Y-64178571D02*
X94035714Y-63464285D01*
X93678571Y-64178571D02*
X93678571Y-62678571D01*
X94250000Y-62678571D01*
X94392857Y-62750000D01*
X94464285Y-62821428D01*
X94535714Y-62964285D01*
X94535714Y-63178571D01*
X94464285Y-63321428D01*
X94392857Y-63392857D01*
X94250000Y-63464285D01*
X93678571Y-63464285D01*
X95178571Y-64178571D02*
X95178571Y-62678571D01*
X95892857Y-64178571D02*
X95892857Y-62678571D01*
X96750000Y-64178571D01*
X96750000Y-62678571D01*
X98250000Y-62750000D02*
X98107142Y-62678571D01*
X97892857Y-62678571D01*
X97678571Y-62750000D01*
X97535714Y-62892857D01*
X97464285Y-63035714D01*
X97392857Y-63321428D01*
X97392857Y-63535714D01*
X97464285Y-63821428D01*
X97535714Y-63964285D01*
X97678571Y-64107142D01*
X97892857Y-64178571D01*
X98035714Y-64178571D01*
X98250000Y-64107142D01*
X98321428Y-64035714D01*
X98321428Y-63535714D01*
X98035714Y-63535714D01*
D14*
X94030000Y-37550000D02*
X92530000Y-37550000D01*
X92530000Y-37550000D02*
X92530000Y-37820000D01*
X92530000Y-37820000D02*
X89700000Y-37820000D01*
X94030000Y-44450000D02*
X92530000Y-44450000D01*
X92530000Y-44450000D02*
X92530000Y-44180000D01*
X92530000Y-44180000D02*
X91430000Y-44180000D01*
D11*
X101704761Y-41547619D02*
X101609523Y-41500000D01*
X101514285Y-41404761D01*
X101371428Y-41261904D01*
X101276190Y-41214285D01*
X101180952Y-41214285D01*
X101228571Y-41452380D02*
X101133333Y-41404761D01*
X101038095Y-41309523D01*
X100990476Y-41119047D01*
X100990476Y-40785714D01*
X101038095Y-40595238D01*
X101133333Y-40500000D01*
X101228571Y-40452380D01*
X101419047Y-40452380D01*
X101514285Y-40500000D01*
X101609523Y-40595238D01*
X101657142Y-40785714D01*
X101657142Y-41119047D01*
X101609523Y-41309523D01*
X101514285Y-41404761D01*
X101419047Y-41452380D01*
X101228571Y-41452380D01*
X102609523Y-41452380D02*
X102038095Y-41452380D01*
X102323809Y-41452380D02*
X102323809Y-40452380D01*
X102228571Y-40595238D01*
X102133333Y-40690476D01*
X102038095Y-40738095D01*
X89380952Y-45952380D02*
X89380952Y-44952380D01*
X90428571Y-45952380D02*
X90095238Y-45476190D01*
X89857142Y-45952380D02*
X89857142Y-44952380D01*
X90238095Y-44952380D01*
X90333333Y-45000000D01*
X90380952Y-45047619D01*
X90428571Y-45142857D01*
X90428571Y-45285714D01*
X90380952Y-45380952D01*
X90333333Y-45428571D01*
X90238095Y-45476190D01*
X89857142Y-45476190D01*
X91333333Y-45952380D02*
X90857142Y-45952380D01*
X90857142Y-44952380D01*
X92238095Y-45952380D02*
X91904761Y-45476190D01*
X91666666Y-45952380D02*
X91666666Y-44952380D01*
X92047619Y-44952380D01*
X92142857Y-45000000D01*
X92190476Y-45047619D01*
X92238095Y-45142857D01*
X92238095Y-45285714D01*
X92190476Y-45380952D01*
X92142857Y-45428571D01*
X92047619Y-45476190D01*
X91666666Y-45476190D01*
X92714285Y-45952380D02*
X92904761Y-45952380D01*
X93000000Y-45904761D01*
X93047619Y-45857142D01*
X93142857Y-45714285D01*
X93190476Y-45523809D01*
X93190476Y-45142857D01*
X93142857Y-45047619D01*
X93095238Y-45000000D01*
X93000000Y-44952380D01*
X92809523Y-44952380D01*
X92714285Y-45000000D01*
X92666666Y-45047619D01*
X92619047Y-45142857D01*
X92619047Y-45380952D01*
X92666666Y-45476190D01*
X92714285Y-45523809D01*
X92809523Y-45571428D01*
X93000000Y-45571428D01*
X93095238Y-45523809D01*
X93142857Y-45476190D01*
X93190476Y-45380952D01*
X93523809Y-44952380D02*
X94142857Y-44952380D01*
X93809523Y-45333333D01*
X93952380Y-45333333D01*
X94047619Y-45380952D01*
X94095238Y-45428571D01*
X94142857Y-45523809D01*
X94142857Y-45761904D01*
X94095238Y-45857142D01*
X94047619Y-45904761D01*
X93952380Y-45952380D01*
X93666666Y-45952380D01*
X93571428Y-45904761D01*
X93523809Y-45857142D01*
X95000000Y-45285714D02*
X95000000Y-45952380D01*
X94761904Y-44904761D02*
X94523809Y-45619047D01*
X95142857Y-45619047D01*
X95428571Y-44952380D02*
X96047619Y-44952380D01*
X95714285Y-45333333D01*
X95857142Y-45333333D01*
X95952380Y-45380952D01*
X96000000Y-45428571D01*
X96047619Y-45523809D01*
X96047619Y-45761904D01*
X96000000Y-45857142D01*
X95952380Y-45904761D01*
X95857142Y-45952380D01*
X95571428Y-45952380D01*
X95476190Y-45904761D01*
X95428571Y-45857142D01*
X96333333Y-44952380D02*
X96904761Y-44952380D01*
X96619047Y-45952380D02*
X96619047Y-44952380D01*
X97809523Y-45952380D02*
X97476190Y-45476190D01*
X97238095Y-45952380D02*
X97238095Y-44952380D01*
X97619047Y-44952380D01*
X97714285Y-45000000D01*
X97761904Y-45047619D01*
X97809523Y-45142857D01*
X97809523Y-45285714D01*
X97761904Y-45380952D01*
X97714285Y-45428571D01*
X97619047Y-45476190D01*
X97238095Y-45476190D01*
X98238095Y-45952380D02*
X98238095Y-44952380D01*
X98619047Y-44952380D01*
X98714285Y-45000000D01*
X98761904Y-45047619D01*
X98809523Y-45142857D01*
X98809523Y-45285714D01*
X98761904Y-45380952D01*
X98714285Y-45428571D01*
X98619047Y-45476190D01*
X98238095Y-45476190D01*
X99571428Y-45428571D02*
X99714285Y-45476190D01*
X99761904Y-45523809D01*
X99809523Y-45619047D01*
X99809523Y-45761904D01*
X99761904Y-45857142D01*
X99714285Y-45904761D01*
X99619047Y-45952380D01*
X99238095Y-45952380D01*
X99238095Y-44952380D01*
X99571428Y-44952380D01*
X99666666Y-45000000D01*
X99714285Y-45047619D01*
X99761904Y-45142857D01*
X99761904Y-45238095D01*
X99714285Y-45333333D01*
X99666666Y-45380952D01*
X99571428Y-45428571D01*
X99238095Y-45428571D01*
X100571428Y-45428571D02*
X100238095Y-45428571D01*
X100238095Y-45952380D02*
X100238095Y-44952380D01*
X100714285Y-44952380D01*
X94166666Y-47452380D02*
X94166666Y-48166666D01*
X94119047Y-48309523D01*
X94023809Y-48404761D01*
X93880952Y-48452380D01*
X93785714Y-48452380D01*
X95166666Y-48452380D02*
X94595238Y-48452380D01*
X94880952Y-48452380D02*
X94880952Y-47452380D01*
X94785714Y-47595238D01*
X94690476Y-47690476D01*
X94595238Y-47738095D01*
X94166666Y-47452380D02*
X94166666Y-48166666D01*
X94119047Y-48309523D01*
X94023809Y-48404761D01*
X93880952Y-48452380D01*
X93785714Y-48452380D01*
X94547619Y-47452380D02*
X95166666Y-47452380D01*
X94833333Y-47833333D01*
X94976190Y-47833333D01*
X95071428Y-47880952D01*
X95119047Y-47928571D01*
X95166666Y-48023809D01*
X95166666Y-48261904D01*
X95119047Y-48357142D01*
X95071428Y-48404761D01*
X94976190Y-48452380D01*
X94690476Y-48452380D01*
X94595238Y-48404761D01*
X94547619Y-48357142D01*
M02*
