G04 #@! TF.GenerationSoftware,KiCad,Pcbnew,5.1.6-c6e7f7d~87~ubuntu20.04.1*
G04 #@! TF.CreationDate,2020-09-03T11:24:11+02:00*
G04 #@! TF.ProjectId,reverse-polarity,72657665-7273-4652-9d70-6f6c61726974,rev?*
G04 #@! TF.SameCoordinates,Original*
G04 #@! TF.FileFunction,Legend,Top*
G04 #@! TF.FilePolarity,Positive*
%FSLAX45Y45*%
G04 Gerber Fmt 4.5, Leading zero omitted, Abs format (unit mm)*
G04 Created by KiCad (PCBNEW 5.1.6-c6e7f7d~87~ubuntu20.04.1) date 2020-09-03 11:24:11*
%MOMM*%
%LPD*%
G01*
G04 APERTURE LIST*
%ADD10C,0.100000*%
%ADD11C,0.150000*%
%ADD12C,0.300000*%
%ADD13C,0.400000*%
%ADD14C,0.120000*%
G04 APERTURE END LIST*
D10*
D11*
X17700220Y-16600720D02*
X17700220Y-19800720D01*
X28500220Y-19800720D01*
X28500220Y-16600720D01*
X17700220Y-16600720D01*
D10*
D11*
X1000000Y-1000000D02*
X1000000Y-20000720D01*
X28700220Y-20000720D01*
X28700220Y-1000000D01*
X1000000Y-1000000D01*
D10*
D11*
X1200000Y-1200000D02*
X1200000Y-19800720D01*
X28500220Y-19800720D01*
X28500220Y-1200000D01*
X1200000Y-1200000D01*
D10*
D11*
X6000000Y-1200000D02*
X6000000Y-1000000D01*
D10*
D11*
X11000000Y-1200000D02*
X11000000Y-1000000D01*
D10*
D11*
X16000000Y-1200000D02*
X16000000Y-1000000D01*
D10*
D11*
X21000000Y-1200000D02*
X21000000Y-1000000D01*
D10*
D11*
X26000000Y-1200000D02*
X26000000Y-1000000D01*
D10*
D11*
X3606548Y-1158810D02*
X3532262Y-1158810D01*
X3569405Y-1158810D02*
X3569405Y-1028809D01*
X3557024Y-1047381D01*
X3544643Y-1059762D01*
X3532262Y-1065952D01*
D10*
D11*
X8532262Y-1041190D02*
X8538452Y-1035000D01*
X8550833Y-1028809D01*
X8581786Y-1028809D01*
X8594167Y-1035000D01*
X8600357Y-1041190D01*
X8606548Y-1053571D01*
X8606548Y-1065952D01*
X8600357Y-1084524D01*
X8526071Y-1158810D01*
X8606548Y-1158810D01*
D10*
D11*
X13526071Y-1028809D02*
X13606548Y-1028809D01*
X13563214Y-1078333D01*
X13581786Y-1078333D01*
X13594167Y-1084524D01*
X13600357Y-1090714D01*
X13606548Y-1103095D01*
X13606548Y-1134048D01*
X13600357Y-1146429D01*
X13594167Y-1152619D01*
X13581786Y-1158810D01*
X13544643Y-1158810D01*
X13532262Y-1152619D01*
X13526071Y-1146429D01*
D10*
D11*
X18594167Y-1072143D02*
X18594167Y-1158810D01*
X18563214Y-1022619D02*
X18532262Y-1115476D01*
X18612738Y-1115476D01*
D10*
D11*
X23600357Y-1028809D02*
X23538452Y-1028809D01*
X23532262Y-1090714D01*
X23538452Y-1084524D01*
X23550833Y-1078333D01*
X23581786Y-1078333D01*
X23594167Y-1084524D01*
X23600357Y-1090714D01*
X23606548Y-1103095D01*
X23606548Y-1134048D01*
X23600357Y-1146429D01*
X23594167Y-1152619D01*
X23581786Y-1158810D01*
X23550833Y-1158810D01*
X23538452Y-1152619D01*
X23532262Y-1146429D01*
D10*
D11*
X28594167Y-1028809D02*
X28569405Y-1028809D01*
X28557024Y-1035000D01*
X28550833Y-1041190D01*
X28538452Y-1059762D01*
X28532262Y-1084524D01*
X28532262Y-1134048D01*
X28538452Y-1146429D01*
X28544643Y-1152619D01*
X28557024Y-1158810D01*
X28581786Y-1158810D01*
X28594167Y-1152619D01*
X28600357Y-1146429D01*
X28606548Y-1134048D01*
X28606548Y-1103095D01*
X28600357Y-1090714D01*
X28594167Y-1084524D01*
X28581786Y-1078333D01*
X28557024Y-1078333D01*
X28544643Y-1084524D01*
X28538452Y-1090714D01*
X28532262Y-1103095D01*
D10*
D11*
X6000000Y-19800720D02*
X6000000Y-20000720D01*
D10*
D11*
X11000000Y-19800720D02*
X11000000Y-20000720D01*
D10*
D11*
X16000000Y-19800720D02*
X16000000Y-20000720D01*
D10*
D11*
X21000000Y-19800720D02*
X21000000Y-20000720D01*
D10*
D11*
X26000000Y-19800720D02*
X26000000Y-20000720D01*
D10*
D11*
X3606548Y-19959530D02*
X3532262Y-19959530D01*
X3569405Y-19959530D02*
X3569405Y-19829530D01*
X3557024Y-19848101D01*
X3544643Y-19860482D01*
X3532262Y-19866672D01*
D10*
D11*
X8532262Y-19841910D02*
X8538452Y-19835720D01*
X8550833Y-19829530D01*
X8581786Y-19829530D01*
X8594167Y-19835720D01*
X8600357Y-19841910D01*
X8606548Y-19854291D01*
X8606548Y-19866672D01*
X8600357Y-19885244D01*
X8526071Y-19959530D01*
X8606548Y-19959530D01*
D10*
D11*
X13526071Y-19829530D02*
X13606548Y-19829530D01*
X13563214Y-19879053D01*
X13581786Y-19879053D01*
X13594167Y-19885244D01*
X13600357Y-19891434D01*
X13606548Y-19903815D01*
X13606548Y-19934768D01*
X13600357Y-19947149D01*
X13594167Y-19953339D01*
X13581786Y-19959530D01*
X13544643Y-19959530D01*
X13532262Y-19953339D01*
X13526071Y-19947149D01*
D10*
D11*
X18594167Y-19872863D02*
X18594167Y-19959530D01*
X18563214Y-19823339D02*
X18532262Y-19916196D01*
X18612738Y-19916196D01*
D10*
D11*
X23600357Y-19829530D02*
X23538452Y-19829530D01*
X23532262Y-19891434D01*
X23538452Y-19885244D01*
X23550833Y-19879053D01*
X23581786Y-19879053D01*
X23594167Y-19885244D01*
X23600357Y-19891434D01*
X23606548Y-19903815D01*
X23606548Y-19934768D01*
X23600357Y-19947149D01*
X23594167Y-19953339D01*
X23581786Y-19959530D01*
X23550833Y-19959530D01*
X23538452Y-19953339D01*
X23532262Y-19947149D01*
D10*
D11*
X28594167Y-19829530D02*
X28569405Y-19829530D01*
X28557024Y-19835720D01*
X28550833Y-19841910D01*
X28538452Y-19860482D01*
X28532262Y-19885244D01*
X28532262Y-19934768D01*
X28538452Y-19947149D01*
X28544643Y-19953339D01*
X28557024Y-19959530D01*
X28581786Y-19959530D01*
X28594167Y-19953339D01*
X28600357Y-19947149D01*
X28606548Y-19934768D01*
X28606548Y-19903815D01*
X28600357Y-19891434D01*
X28594167Y-19885244D01*
X28581786Y-19879053D01*
X28557024Y-19879053D01*
X28544643Y-19885244D01*
X28538452Y-19891434D01*
X28532262Y-19903815D01*
D10*
D11*
X1000000Y-6000000D02*
X1200000Y-6000000D01*
D10*
D11*
X1000000Y-11000000D02*
X1200000Y-11000000D01*
D10*
D11*
X1000000Y-16000000D02*
X1200000Y-16000000D01*
D10*
D11*
X1069048Y-3521667D02*
X1130952Y-3521667D01*
X1056667Y-3558809D02*
X1100000Y-3428809D01*
X1143333Y-3558809D01*
D10*
D11*
X1109286Y-8490714D02*
X1127857Y-8496905D01*
X1134048Y-8503095D01*
X1140238Y-8515476D01*
X1140238Y-8534048D01*
X1134048Y-8546429D01*
X1127857Y-8552619D01*
X1115476Y-8558810D01*
X1065952Y-8558810D01*
X1065952Y-8428810D01*
X1109286Y-8428810D01*
X1121667Y-8435000D01*
X1127857Y-8441190D01*
X1134048Y-8453571D01*
X1134048Y-8465952D01*
X1127857Y-8478333D01*
X1121667Y-8484524D01*
X1109286Y-8490714D01*
X1065952Y-8490714D01*
D10*
D11*
X1140238Y-13546428D02*
X1134048Y-13552619D01*
X1115476Y-13558809D01*
X1103095Y-13558809D01*
X1084524Y-13552619D01*
X1072143Y-13540238D01*
X1065952Y-13527857D01*
X1059762Y-13503095D01*
X1059762Y-13484524D01*
X1065952Y-13459762D01*
X1072143Y-13447381D01*
X1084524Y-13435000D01*
X1103095Y-13428809D01*
X1115476Y-13428809D01*
X1134048Y-13435000D01*
X1140238Y-13441190D01*
D10*
D11*
X1065952Y-18558810D02*
X1065952Y-18428810D01*
X1096905Y-18428810D01*
X1115476Y-18435000D01*
X1127857Y-18447381D01*
X1134048Y-18459762D01*
X1140238Y-18484524D01*
X1140238Y-18503095D01*
X1134048Y-18527857D01*
X1127857Y-18540238D01*
X1115476Y-18552619D01*
X1096905Y-18558810D01*
X1065952Y-18558810D01*
D10*
D11*
X28700220Y-6000000D02*
X28500220Y-6000000D01*
D10*
D11*
X28700220Y-11000000D02*
X28500220Y-11000000D01*
D10*
D11*
X28700220Y-16000000D02*
X28500220Y-16000000D01*
D10*
D11*
X28569268Y-3521667D02*
X28631172Y-3521667D01*
X28556887Y-3558809D02*
X28600220Y-3428809D01*
X28643553Y-3558809D01*
D10*
D11*
X28609506Y-8490714D02*
X28628077Y-8496905D01*
X28634268Y-8503095D01*
X28640458Y-8515476D01*
X28640458Y-8534048D01*
X28634268Y-8546429D01*
X28628077Y-8552619D01*
X28615696Y-8558810D01*
X28566172Y-8558810D01*
X28566172Y-8428810D01*
X28609506Y-8428810D01*
X28621887Y-8435000D01*
X28628077Y-8441190D01*
X28634268Y-8453571D01*
X28634268Y-8465952D01*
X28628077Y-8478333D01*
X28621887Y-8484524D01*
X28609506Y-8490714D01*
X28566172Y-8490714D01*
D10*
D11*
X28640458Y-13546428D02*
X28634268Y-13552619D01*
X28615696Y-13558809D01*
X28603315Y-13558809D01*
X28584744Y-13552619D01*
X28572363Y-13540238D01*
X28566172Y-13527857D01*
X28559982Y-13503095D01*
X28559982Y-13484524D01*
X28566172Y-13459762D01*
X28572363Y-13447381D01*
X28584744Y-13435000D01*
X28603315Y-13428809D01*
X28615696Y-13428809D01*
X28634268Y-13435000D01*
X28640458Y-13441190D01*
D10*
D11*
X28566172Y-18558810D02*
X28566172Y-18428810D01*
X28597125Y-18428810D01*
X28615696Y-18435000D01*
X28628077Y-18447381D01*
X28634268Y-18459762D01*
X28640458Y-18484524D01*
X28640458Y-18503095D01*
X28634268Y-18527857D01*
X28628077Y-18540238D01*
X28615696Y-18552619D01*
X28597125Y-18558810D01*
X28566172Y-18558810D01*
D10*
D11*
X20043434Y-19378577D02*
X20043434Y-19228577D01*
X20079149Y-19228577D01*
X20100577Y-19235720D01*
X20114863Y-19250006D01*
X20122006Y-19264291D01*
X20129149Y-19292863D01*
X20129149Y-19314291D01*
X20122006Y-19342863D01*
X20114863Y-19357149D01*
X20100577Y-19371434D01*
X20079149Y-19378577D01*
X20043434Y-19378577D01*
X20257720Y-19378577D02*
X20257720Y-19300006D01*
X20250577Y-19285720D01*
X20236291Y-19278577D01*
X20207720Y-19278577D01*
X20193434Y-19285720D01*
X20257720Y-19371434D02*
X20243434Y-19378577D01*
X20207720Y-19378577D01*
X20193434Y-19371434D01*
X20186291Y-19357149D01*
X20186291Y-19342863D01*
X20193434Y-19328577D01*
X20207720Y-19321434D01*
X20243434Y-19321434D01*
X20257720Y-19314291D01*
X20307720Y-19278577D02*
X20364863Y-19278577D01*
X20329149Y-19228577D02*
X20329149Y-19357149D01*
X20336291Y-19371434D01*
X20350577Y-19378577D01*
X20364863Y-19378577D01*
X20472006Y-19371434D02*
X20457720Y-19378577D01*
X20429149Y-19378577D01*
X20414863Y-19371434D01*
X20407720Y-19357149D01*
X20407720Y-19300006D01*
X20414863Y-19285720D01*
X20429149Y-19278577D01*
X20457720Y-19278577D01*
X20472006Y-19285720D01*
X20479149Y-19300006D01*
X20479149Y-19314291D01*
X20407720Y-19328577D01*
X20543434Y-19364291D02*
X20550577Y-19371434D01*
X20543434Y-19378577D01*
X20536291Y-19371434D01*
X20543434Y-19364291D01*
X20543434Y-19378577D01*
X20543434Y-19285720D02*
X20550577Y-19292863D01*
X20543434Y-19300006D01*
X20536291Y-19292863D01*
X20543434Y-19285720D01*
X20543434Y-19300006D01*
D10*
D11*
X17700220Y-19450720D02*
X28500220Y-19450720D01*
D10*
D11*
X17843434Y-19658577D02*
X17843434Y-19508577D01*
X17929149Y-19658577D02*
X17864863Y-19572863D01*
X17929149Y-19508577D02*
X17843434Y-19594291D01*
X17993434Y-19658577D02*
X17993434Y-19558577D01*
X17993434Y-19508577D02*
X17986291Y-19515720D01*
X17993434Y-19522863D01*
X18000577Y-19515720D01*
X17993434Y-19508577D01*
X17993434Y-19522863D01*
X18150577Y-19644291D02*
X18143434Y-19651434D01*
X18122006Y-19658577D01*
X18107720Y-19658577D01*
X18086291Y-19651434D01*
X18072006Y-19637149D01*
X18064863Y-19622863D01*
X18057720Y-19594291D01*
X18057720Y-19572863D01*
X18064863Y-19544291D01*
X18072006Y-19530006D01*
X18086291Y-19515720D01*
X18107720Y-19508577D01*
X18122006Y-19508577D01*
X18143434Y-19515720D01*
X18150577Y-19522863D01*
X18279149Y-19658577D02*
X18279149Y-19580006D01*
X18272006Y-19565720D01*
X18257720Y-19558577D01*
X18229149Y-19558577D01*
X18214863Y-19565720D01*
X18279149Y-19651434D02*
X18264863Y-19658577D01*
X18229149Y-19658577D01*
X18214863Y-19651434D01*
X18207720Y-19637149D01*
X18207720Y-19622863D01*
X18214863Y-19608577D01*
X18229149Y-19601434D01*
X18264863Y-19601434D01*
X18279149Y-19594291D01*
X18414863Y-19658577D02*
X18414863Y-19508577D01*
X18414863Y-19651434D02*
X18400577Y-19658577D01*
X18372006Y-19658577D01*
X18357720Y-19651434D01*
X18350577Y-19644291D01*
X18343434Y-19630006D01*
X18343434Y-19587149D01*
X18350577Y-19572863D01*
X18357720Y-19565720D01*
X18372006Y-19558577D01*
X18400577Y-19558577D01*
X18414863Y-19565720D01*
X18600577Y-19580006D02*
X18650577Y-19580006D01*
X18672006Y-19658577D02*
X18600577Y-19658577D01*
X18600577Y-19508577D01*
X18672006Y-19508577D01*
X18736291Y-19644291D02*
X18743434Y-19651434D01*
X18736291Y-19658577D01*
X18729149Y-19651434D01*
X18736291Y-19644291D01*
X18736291Y-19658577D01*
X18807720Y-19658577D02*
X18807720Y-19508577D01*
X18843434Y-19508577D01*
X18864863Y-19515720D01*
X18879149Y-19530006D01*
X18886291Y-19544291D01*
X18893434Y-19572863D01*
X18893434Y-19594291D01*
X18886291Y-19622863D01*
X18879149Y-19637149D01*
X18864863Y-19651434D01*
X18843434Y-19658577D01*
X18807720Y-19658577D01*
X18957720Y-19644291D02*
X18964863Y-19651434D01*
X18957720Y-19658577D01*
X18950577Y-19651434D01*
X18957720Y-19644291D01*
X18957720Y-19658577D01*
X19022006Y-19615720D02*
X19093434Y-19615720D01*
X19007720Y-19658577D02*
X19057720Y-19508577D01*
X19107720Y-19658577D01*
X19157720Y-19644291D02*
X19164863Y-19651434D01*
X19157720Y-19658577D01*
X19150577Y-19651434D01*
X19157720Y-19644291D01*
X19157720Y-19658577D01*
X19457720Y-19558577D02*
X19457720Y-19708577D01*
X19457720Y-19565720D02*
X19472006Y-19558577D01*
X19500577Y-19558577D01*
X19514863Y-19565720D01*
X19522006Y-19572863D01*
X19529149Y-19587149D01*
X19529149Y-19630006D01*
X19522006Y-19644291D01*
X19514863Y-19651434D01*
X19500577Y-19658577D01*
X19472006Y-19658577D01*
X19457720Y-19651434D01*
X19657720Y-19651434D02*
X19643434Y-19658577D01*
X19614863Y-19658577D01*
X19600577Y-19651434D01*
X19593434Y-19644291D01*
X19586291Y-19630006D01*
X19586291Y-19587149D01*
X19593434Y-19572863D01*
X19600577Y-19565720D01*
X19614863Y-19558577D01*
X19643434Y-19558577D01*
X19657720Y-19565720D01*
X19722006Y-19658577D02*
X19722006Y-19508577D01*
X19722006Y-19565720D02*
X19736291Y-19558577D01*
X19764863Y-19558577D01*
X19779149Y-19565720D01*
X19786291Y-19572863D01*
X19793434Y-19587149D01*
X19793434Y-19630006D01*
X19786291Y-19644291D01*
X19779149Y-19651434D01*
X19764863Y-19658577D01*
X19736291Y-19658577D01*
X19722006Y-19651434D01*
X19857720Y-19558577D02*
X19857720Y-19658577D01*
X19857720Y-19572863D02*
X19864863Y-19565720D01*
X19879149Y-19558577D01*
X19900577Y-19558577D01*
X19914863Y-19565720D01*
X19922006Y-19580006D01*
X19922006Y-19658577D01*
X20050577Y-19651434D02*
X20036291Y-19658577D01*
X20007720Y-19658577D01*
X19993434Y-19651434D01*
X19986291Y-19637149D01*
X19986291Y-19580006D01*
X19993434Y-19565720D01*
X20007720Y-19558577D01*
X20036291Y-19558577D01*
X20050577Y-19565720D01*
X20057720Y-19580006D01*
X20057720Y-19594291D01*
X19986291Y-19608577D01*
X20107720Y-19558577D02*
X20136291Y-19658577D01*
X20164863Y-19587149D01*
X20193434Y-19658577D01*
X20222006Y-19558577D01*
X20464863Y-19508577D02*
X20393434Y-19508577D01*
X20386291Y-19580006D01*
X20393434Y-19572863D01*
X20407720Y-19565720D01*
X20443434Y-19565720D01*
X20457720Y-19572863D01*
X20464863Y-19580006D01*
X20472006Y-19594291D01*
X20472006Y-19630006D01*
X20464863Y-19644291D01*
X20457720Y-19651434D01*
X20443434Y-19658577D01*
X20407720Y-19658577D01*
X20393434Y-19651434D01*
X20386291Y-19644291D01*
X20536291Y-19644291D02*
X20543434Y-19651434D01*
X20536291Y-19658577D01*
X20529149Y-19651434D01*
X20536291Y-19644291D01*
X20536291Y-19658577D01*
X20686291Y-19658577D02*
X20600577Y-19658577D01*
X20643434Y-19658577D02*
X20643434Y-19508577D01*
X20629149Y-19530006D01*
X20614863Y-19544291D01*
X20600577Y-19551434D01*
X20750577Y-19644291D02*
X20757720Y-19651434D01*
X20750577Y-19658577D01*
X20743434Y-19651434D01*
X20750577Y-19644291D01*
X20750577Y-19658577D01*
X20886291Y-19508577D02*
X20857720Y-19508577D01*
X20843434Y-19515720D01*
X20836291Y-19522863D01*
X20822006Y-19544291D01*
X20814863Y-19572863D01*
X20814863Y-19630006D01*
X20822006Y-19644291D01*
X20829149Y-19651434D01*
X20843434Y-19658577D01*
X20872006Y-19658577D01*
X20886291Y-19651434D01*
X20893434Y-19644291D01*
X20900577Y-19630006D01*
X20900577Y-19594291D01*
X20893434Y-19580006D01*
X20886291Y-19572863D01*
X20872006Y-19565720D01*
X20843434Y-19565720D01*
X20829149Y-19572863D01*
X20822006Y-19580006D01*
X20814863Y-19594291D01*
X20964863Y-19601434D02*
X21079149Y-19601434D01*
X21214863Y-19651434D02*
X21200577Y-19658577D01*
X21172006Y-19658577D01*
X21157720Y-19651434D01*
X21150577Y-19644291D01*
X21143434Y-19630006D01*
X21143434Y-19587149D01*
X21150577Y-19572863D01*
X21157720Y-19565720D01*
X21172006Y-19558577D01*
X21200577Y-19558577D01*
X21214863Y-19565720D01*
X21343434Y-19508577D02*
X21314863Y-19508577D01*
X21300577Y-19515720D01*
X21293434Y-19522863D01*
X21279149Y-19544291D01*
X21272006Y-19572863D01*
X21272006Y-19630006D01*
X21279149Y-19644291D01*
X21286291Y-19651434D01*
X21300577Y-19658577D01*
X21329149Y-19658577D01*
X21343434Y-19651434D01*
X21350577Y-19644291D01*
X21357720Y-19630006D01*
X21357720Y-19594291D01*
X21350577Y-19580006D01*
X21343434Y-19572863D01*
X21329149Y-19565720D01*
X21300577Y-19565720D01*
X21286291Y-19572863D01*
X21279149Y-19580006D01*
X21272006Y-19594291D01*
X21479149Y-19651434D02*
X21464863Y-19658577D01*
X21436291Y-19658577D01*
X21422006Y-19651434D01*
X21414863Y-19637149D01*
X21414863Y-19580006D01*
X21422006Y-19565720D01*
X21436291Y-19558577D01*
X21464863Y-19558577D01*
X21479149Y-19565720D01*
X21486291Y-19580006D01*
X21486291Y-19594291D01*
X21414863Y-19608577D01*
X21536291Y-19508577D02*
X21636291Y-19508577D01*
X21572006Y-19658577D01*
X21672006Y-19558577D02*
X21729149Y-19558577D01*
X21693434Y-19658577D02*
X21693434Y-19530006D01*
X21700577Y-19515720D01*
X21714863Y-19508577D01*
X21729149Y-19508577D01*
X21764863Y-19508577D02*
X21864863Y-19508577D01*
X21800577Y-19658577D01*
X21986291Y-19658577D02*
X21986291Y-19508577D01*
X21986291Y-19651434D02*
X21972006Y-19658577D01*
X21943434Y-19658577D01*
X21929149Y-19651434D01*
X21922006Y-19644291D01*
X21914863Y-19630006D01*
X21914863Y-19587149D01*
X21922006Y-19572863D01*
X21929149Y-19565720D01*
X21943434Y-19558577D01*
X21972006Y-19558577D01*
X21986291Y-19565720D01*
X22022006Y-19467720D02*
X22164863Y-19467720D01*
X22079149Y-19572863D02*
X22064863Y-19565720D01*
X22057720Y-19558577D01*
X22050577Y-19544291D01*
X22050577Y-19537149D01*
X22057720Y-19522863D01*
X22064863Y-19515720D01*
X22079149Y-19508577D01*
X22107720Y-19508577D01*
X22122006Y-19515720D01*
X22129149Y-19522863D01*
X22136291Y-19537149D01*
X22136291Y-19544291D01*
X22129149Y-19558577D01*
X22122006Y-19565720D01*
X22107720Y-19572863D01*
X22079149Y-19572863D01*
X22064863Y-19580006D01*
X22057720Y-19587149D01*
X22050577Y-19601434D01*
X22050577Y-19630006D01*
X22057720Y-19644291D01*
X22064863Y-19651434D01*
X22079149Y-19658577D01*
X22107720Y-19658577D01*
X22122006Y-19651434D01*
X22129149Y-19644291D01*
X22136291Y-19630006D01*
X22136291Y-19601434D01*
X22129149Y-19587149D01*
X22122006Y-19580006D01*
X22107720Y-19572863D01*
X22164863Y-19467720D02*
X22307720Y-19467720D01*
X22186291Y-19508577D02*
X22286291Y-19508577D01*
X22222006Y-19658577D01*
X22407720Y-19558577D02*
X22407720Y-19658577D01*
X22343434Y-19558577D02*
X22343434Y-19637149D01*
X22350577Y-19651434D01*
X22364863Y-19658577D01*
X22386291Y-19658577D01*
X22400577Y-19651434D01*
X22407720Y-19644291D01*
X22479148Y-19658577D02*
X22479148Y-19508577D01*
X22479148Y-19565720D02*
X22493434Y-19558577D01*
X22522006Y-19558577D01*
X22536291Y-19565720D01*
X22543434Y-19572863D01*
X22550577Y-19587149D01*
X22550577Y-19630006D01*
X22543434Y-19644291D01*
X22536291Y-19651434D01*
X22522006Y-19658577D01*
X22493434Y-19658577D01*
X22479148Y-19651434D01*
X22679148Y-19558577D02*
X22679148Y-19658577D01*
X22614863Y-19558577D02*
X22614863Y-19637149D01*
X22622006Y-19651434D01*
X22636291Y-19658577D01*
X22657720Y-19658577D01*
X22672006Y-19651434D01*
X22679148Y-19644291D01*
X22750577Y-19558577D02*
X22750577Y-19658577D01*
X22750577Y-19572863D02*
X22757720Y-19565720D01*
X22772006Y-19558577D01*
X22793434Y-19558577D01*
X22807720Y-19565720D01*
X22814863Y-19580006D01*
X22814863Y-19658577D01*
X22864863Y-19558577D02*
X22922006Y-19558577D01*
X22886291Y-19508577D02*
X22886291Y-19637149D01*
X22893434Y-19651434D01*
X22907720Y-19658577D01*
X22922006Y-19658577D01*
X23036291Y-19558577D02*
X23036291Y-19658577D01*
X22972006Y-19558577D02*
X22972006Y-19637149D01*
X22979148Y-19651434D01*
X22993434Y-19658577D01*
X23014863Y-19658577D01*
X23029148Y-19651434D01*
X23036291Y-19644291D01*
X23100577Y-19522863D02*
X23107720Y-19515720D01*
X23122006Y-19508577D01*
X23157720Y-19508577D01*
X23172006Y-19515720D01*
X23179148Y-19522863D01*
X23186291Y-19537149D01*
X23186291Y-19551434D01*
X23179148Y-19572863D01*
X23093434Y-19658577D01*
X23186291Y-19658577D01*
X23279148Y-19508577D02*
X23293434Y-19508577D01*
X23307720Y-19515720D01*
X23314863Y-19522863D01*
X23322006Y-19537149D01*
X23329148Y-19565720D01*
X23329148Y-19601434D01*
X23322006Y-19630006D01*
X23314863Y-19644291D01*
X23307720Y-19651434D01*
X23293434Y-19658577D01*
X23279148Y-19658577D01*
X23264863Y-19651434D01*
X23257720Y-19644291D01*
X23250577Y-19630006D01*
X23243434Y-19601434D01*
X23243434Y-19565720D01*
X23250577Y-19537149D01*
X23257720Y-19522863D01*
X23264863Y-19515720D01*
X23279148Y-19508577D01*
X23393434Y-19644291D02*
X23400577Y-19651434D01*
X23393434Y-19658577D01*
X23386291Y-19651434D01*
X23393434Y-19644291D01*
X23393434Y-19658577D01*
X23493434Y-19508577D02*
X23507720Y-19508577D01*
X23522006Y-19515720D01*
X23529148Y-19522863D01*
X23536291Y-19537149D01*
X23543434Y-19565720D01*
X23543434Y-19601434D01*
X23536291Y-19630006D01*
X23529148Y-19644291D01*
X23522006Y-19651434D01*
X23507720Y-19658577D01*
X23493434Y-19658577D01*
X23479148Y-19651434D01*
X23472006Y-19644291D01*
X23464863Y-19630006D01*
X23457720Y-19601434D01*
X23457720Y-19565720D01*
X23464863Y-19537149D01*
X23472006Y-19522863D01*
X23479148Y-19515720D01*
X23493434Y-19508577D01*
X23672006Y-19558577D02*
X23672006Y-19658577D01*
X23636291Y-19501434D02*
X23600577Y-19608577D01*
X23693434Y-19608577D01*
X23750577Y-19644291D02*
X23757720Y-19651434D01*
X23750577Y-19658577D01*
X23743434Y-19651434D01*
X23750577Y-19644291D01*
X23750577Y-19658577D01*
X23900577Y-19658577D02*
X23814863Y-19658577D01*
X23857720Y-19658577D02*
X23857720Y-19508577D01*
X23843434Y-19530006D01*
X23829148Y-19544291D01*
X23814863Y-19551434D01*
D10*
D11*
X17700220Y-19150720D02*
X28500220Y-19150720D01*
D10*
D12*
X26441148Y-19378577D02*
X26391148Y-19307149D01*
X26355434Y-19378577D02*
X26355434Y-19228577D01*
X26412577Y-19228577D01*
X26426863Y-19235720D01*
X26434006Y-19242863D01*
X26441148Y-19257149D01*
X26441148Y-19278577D01*
X26434006Y-19292863D01*
X26426863Y-19300006D01*
X26412577Y-19307149D01*
X26355434Y-19307149D01*
X26562577Y-19371434D02*
X26548291Y-19378577D01*
X26519720Y-19378577D01*
X26505434Y-19371434D01*
X26498291Y-19357149D01*
X26498291Y-19300006D01*
X26505434Y-19285720D01*
X26519720Y-19278577D01*
X26548291Y-19278577D01*
X26562577Y-19285720D01*
X26569720Y-19300006D01*
X26569720Y-19314291D01*
X26498291Y-19328577D01*
X26619720Y-19278577D02*
X26655434Y-19378577D01*
X26691148Y-19278577D01*
X26748291Y-19364291D02*
X26755434Y-19371434D01*
X26748291Y-19378577D01*
X26741148Y-19371434D01*
X26748291Y-19364291D01*
X26748291Y-19378577D01*
X26748291Y-19285720D02*
X26755434Y-19292863D01*
X26748291Y-19300006D01*
X26741148Y-19292863D01*
X26748291Y-19285720D01*
X26748291Y-19300006D01*
D10*
D11*
X17836291Y-19371434D02*
X17857720Y-19378577D01*
X17893434Y-19378577D01*
X17907720Y-19371434D01*
X17914863Y-19364291D01*
X17922006Y-19350006D01*
X17922006Y-19335720D01*
X17914863Y-19321434D01*
X17907720Y-19314291D01*
X17893434Y-19307149D01*
X17864863Y-19300006D01*
X17850577Y-19292863D01*
X17843434Y-19285720D01*
X17836291Y-19271434D01*
X17836291Y-19257149D01*
X17843434Y-19242863D01*
X17850577Y-19235720D01*
X17864863Y-19228577D01*
X17900577Y-19228577D01*
X17922006Y-19235720D01*
X17986291Y-19378577D02*
X17986291Y-19278577D01*
X17986291Y-19228577D02*
X17979149Y-19235720D01*
X17986291Y-19242863D01*
X17993434Y-19235720D01*
X17986291Y-19228577D01*
X17986291Y-19242863D01*
X18043434Y-19278577D02*
X18122006Y-19278577D01*
X18043434Y-19378577D01*
X18122006Y-19378577D01*
X18236291Y-19371434D02*
X18222006Y-19378577D01*
X18193434Y-19378577D01*
X18179149Y-19371434D01*
X18172006Y-19357149D01*
X18172006Y-19300006D01*
X18179149Y-19285720D01*
X18193434Y-19278577D01*
X18222006Y-19278577D01*
X18236291Y-19285720D01*
X18243434Y-19300006D01*
X18243434Y-19314291D01*
X18172006Y-19328577D01*
X18307720Y-19364291D02*
X18314863Y-19371434D01*
X18307720Y-19378577D01*
X18300577Y-19371434D01*
X18307720Y-19364291D01*
X18307720Y-19378577D01*
X18307720Y-19285720D02*
X18314863Y-19292863D01*
X18307720Y-19300006D01*
X18300577Y-19292863D01*
X18307720Y-19285720D01*
X18307720Y-19300006D01*
X18486291Y-19335720D02*
X18557720Y-19335720D01*
X18472006Y-19378577D02*
X18522006Y-19228577D01*
X18572006Y-19378577D01*
X18686291Y-19278577D02*
X18686291Y-19378577D01*
X18650577Y-19221434D02*
X18614863Y-19328577D01*
X18707720Y-19328577D01*
D10*
D11*
X26343434Y-19658577D02*
X26343434Y-19508577D01*
X26479148Y-19658577D02*
X26479148Y-19508577D01*
X26479148Y-19651434D02*
X26464863Y-19658577D01*
X26436291Y-19658577D01*
X26422006Y-19651434D01*
X26414863Y-19644291D01*
X26407720Y-19630006D01*
X26407720Y-19587149D01*
X26414863Y-19572863D01*
X26422006Y-19565720D01*
X26436291Y-19558577D01*
X26464863Y-19558577D01*
X26479148Y-19565720D01*
X26550577Y-19644291D02*
X26557720Y-19651434D01*
X26550577Y-19658577D01*
X26543434Y-19651434D01*
X26550577Y-19644291D01*
X26550577Y-19658577D01*
X26550577Y-19565720D02*
X26557720Y-19572863D01*
X26550577Y-19580006D01*
X26543434Y-19572863D01*
X26550577Y-19565720D01*
X26550577Y-19580006D01*
X26814863Y-19658577D02*
X26729148Y-19658577D01*
X26772006Y-19658577D02*
X26772006Y-19508577D01*
X26757720Y-19530006D01*
X26743434Y-19544291D01*
X26729148Y-19551434D01*
X26986291Y-19501434D02*
X26857720Y-19694291D01*
X27114863Y-19658577D02*
X27029148Y-19658577D01*
X27072006Y-19658577D02*
X27072006Y-19508577D01*
X27057720Y-19530006D01*
X27043434Y-19544291D01*
X27029148Y-19551434D01*
D10*
D11*
X17700220Y-18750720D02*
X28500220Y-18750720D01*
D10*
D13*
X17871458Y-18821196D02*
X17985744Y-18821196D01*
X17903601Y-19021196D02*
X17928601Y-18821196D01*
X18027410Y-19021196D02*
X18044077Y-18887863D01*
X18052410Y-18821196D02*
X18041696Y-18830720D01*
X18050030Y-18840244D01*
X18060744Y-18830720D01*
X18052410Y-18821196D01*
X18050030Y-18840244D01*
X18110744Y-18887863D02*
X18186934Y-18887863D01*
X18147649Y-18821196D02*
X18126220Y-18992625D01*
X18133363Y-19011672D01*
X18151220Y-19021196D01*
X18170268Y-19021196D01*
X18265506Y-19021196D02*
X18247649Y-19011672D01*
X18240506Y-18992625D01*
X18261934Y-18821196D01*
X18419077Y-19011672D02*
X18398839Y-19021196D01*
X18360744Y-19021196D01*
X18342887Y-19011672D01*
X18335744Y-18992625D01*
X18345268Y-18916434D01*
X18357172Y-18897387D01*
X18377410Y-18887863D01*
X18415506Y-18887863D01*
X18433363Y-18897387D01*
X18440506Y-18916434D01*
X18438125Y-18935482D01*
X18340506Y-18954530D01*
X18515506Y-19002149D02*
X18523839Y-19011672D01*
X18513125Y-19021196D01*
X18504791Y-19011672D01*
X18515506Y-19002149D01*
X18513125Y-19021196D01*
X18528601Y-18897387D02*
X18536934Y-18906910D01*
X18526220Y-18916434D01*
X18517887Y-18906910D01*
X18528601Y-18897387D01*
X18526220Y-18916434D01*
D10*
D11*
X17893434Y-18560006D02*
X17843434Y-18560006D01*
X17843434Y-18638577D02*
X17843434Y-18488577D01*
X17914863Y-18488577D01*
X17972006Y-18638577D02*
X17972006Y-18538577D01*
X17972006Y-18488577D02*
X17964863Y-18495720D01*
X17972006Y-18502863D01*
X17979149Y-18495720D01*
X17972006Y-18488577D01*
X17972006Y-18502863D01*
X18064863Y-18638577D02*
X18050577Y-18631434D01*
X18043434Y-18617149D01*
X18043434Y-18488577D01*
X18179149Y-18631434D02*
X18164863Y-18638577D01*
X18136291Y-18638577D01*
X18122006Y-18631434D01*
X18114863Y-18617149D01*
X18114863Y-18560006D01*
X18122006Y-18545720D01*
X18136291Y-18538577D01*
X18164863Y-18538577D01*
X18179149Y-18545720D01*
X18186291Y-18560006D01*
X18186291Y-18574291D01*
X18114863Y-18588577D01*
X18250577Y-18624291D02*
X18257720Y-18631434D01*
X18250577Y-18638577D01*
X18243434Y-18631434D01*
X18250577Y-18624291D01*
X18250577Y-18638577D01*
X18250577Y-18545720D02*
X18257720Y-18552863D01*
X18250577Y-18560006D01*
X18243434Y-18552863D01*
X18250577Y-18545720D01*
X18250577Y-18560006D01*
X18436291Y-18638577D02*
X18436291Y-18538577D01*
X18436291Y-18567149D02*
X18443434Y-18552863D01*
X18450577Y-18545720D01*
X18464863Y-18538577D01*
X18479149Y-18538577D01*
X18586291Y-18631434D02*
X18572006Y-18638577D01*
X18543434Y-18638577D01*
X18529149Y-18631434D01*
X18522006Y-18617149D01*
X18522006Y-18560006D01*
X18529149Y-18545720D01*
X18543434Y-18538577D01*
X18572006Y-18538577D01*
X18586291Y-18545720D01*
X18593434Y-18560006D01*
X18593434Y-18574291D01*
X18522006Y-18588577D01*
X18643434Y-18538577D02*
X18679149Y-18638577D01*
X18714863Y-18538577D01*
X18829149Y-18631434D02*
X18814863Y-18638577D01*
X18786291Y-18638577D01*
X18772006Y-18631434D01*
X18764863Y-18617149D01*
X18764863Y-18560006D01*
X18772006Y-18545720D01*
X18786291Y-18538577D01*
X18814863Y-18538577D01*
X18829149Y-18545720D01*
X18836291Y-18560006D01*
X18836291Y-18574291D01*
X18764863Y-18588577D01*
X18900577Y-18638577D02*
X18900577Y-18538577D01*
X18900577Y-18567149D02*
X18907720Y-18552863D01*
X18914863Y-18545720D01*
X18929149Y-18538577D01*
X18943434Y-18538577D01*
X18986291Y-18631434D02*
X19000577Y-18638577D01*
X19029149Y-18638577D01*
X19043434Y-18631434D01*
X19050577Y-18617149D01*
X19050577Y-18610006D01*
X19043434Y-18595720D01*
X19029149Y-18588577D01*
X19007720Y-18588577D01*
X18993434Y-18581434D01*
X18986291Y-18567149D01*
X18986291Y-18560006D01*
X18993434Y-18545720D01*
X19007720Y-18538577D01*
X19029149Y-18538577D01*
X19043434Y-18545720D01*
X19172006Y-18631434D02*
X19157720Y-18638577D01*
X19129149Y-18638577D01*
X19114863Y-18631434D01*
X19107720Y-18617149D01*
X19107720Y-18560006D01*
X19114863Y-18545720D01*
X19129149Y-18538577D01*
X19157720Y-18538577D01*
X19172006Y-18545720D01*
X19179149Y-18560006D01*
X19179149Y-18574291D01*
X19107720Y-18588577D01*
X19243434Y-18581434D02*
X19357720Y-18581434D01*
X19429149Y-18538577D02*
X19429149Y-18688577D01*
X19429149Y-18545720D02*
X19443434Y-18538577D01*
X19472006Y-18538577D01*
X19486291Y-18545720D01*
X19493434Y-18552863D01*
X19500577Y-18567149D01*
X19500577Y-18610006D01*
X19493434Y-18624291D01*
X19486291Y-18631434D01*
X19472006Y-18638577D01*
X19443434Y-18638577D01*
X19429149Y-18631434D01*
X19586291Y-18638577D02*
X19572006Y-18631434D01*
X19564863Y-18624291D01*
X19557720Y-18610006D01*
X19557720Y-18567149D01*
X19564863Y-18552863D01*
X19572006Y-18545720D01*
X19586291Y-18538577D01*
X19607720Y-18538577D01*
X19622006Y-18545720D01*
X19629149Y-18552863D01*
X19636291Y-18567149D01*
X19636291Y-18610006D01*
X19629149Y-18624291D01*
X19622006Y-18631434D01*
X19607720Y-18638577D01*
X19586291Y-18638577D01*
X19722006Y-18638577D02*
X19707720Y-18631434D01*
X19700577Y-18617149D01*
X19700577Y-18488577D01*
X19843434Y-18638577D02*
X19843434Y-18560006D01*
X19836291Y-18545720D01*
X19822006Y-18538577D01*
X19793434Y-18538577D01*
X19779149Y-18545720D01*
X19843434Y-18631434D02*
X19829149Y-18638577D01*
X19793434Y-18638577D01*
X19779149Y-18631434D01*
X19772006Y-18617149D01*
X19772006Y-18602863D01*
X19779149Y-18588577D01*
X19793434Y-18581434D01*
X19829149Y-18581434D01*
X19843434Y-18574291D01*
X19914863Y-18638577D02*
X19914863Y-18538577D01*
X19914863Y-18567149D02*
X19922006Y-18552863D01*
X19929149Y-18545720D01*
X19943434Y-18538577D01*
X19957720Y-18538577D01*
X20007720Y-18638577D02*
X20007720Y-18538577D01*
X20007720Y-18488577D02*
X20000577Y-18495720D01*
X20007720Y-18502863D01*
X20014863Y-18495720D01*
X20007720Y-18488577D01*
X20007720Y-18502863D01*
X20057720Y-18538577D02*
X20114863Y-18538577D01*
X20079149Y-18488577D02*
X20079149Y-18617149D01*
X20086291Y-18631434D01*
X20100577Y-18638577D01*
X20114863Y-18638577D01*
X20150577Y-18538577D02*
X20186291Y-18638577D01*
X20222006Y-18538577D02*
X20186291Y-18638577D01*
X20172006Y-18674291D01*
X20164863Y-18681434D01*
X20150577Y-18688577D01*
X20279149Y-18624291D02*
X20286291Y-18631434D01*
X20279149Y-18638577D01*
X20272006Y-18631434D01*
X20279149Y-18624291D01*
X20279149Y-18638577D01*
X20350577Y-18638577D02*
X20350577Y-18488577D01*
X20364863Y-18581434D02*
X20407720Y-18638577D01*
X20407720Y-18538577D02*
X20350577Y-18595720D01*
X20472006Y-18638577D02*
X20472006Y-18538577D01*
X20472006Y-18488577D02*
X20464863Y-18495720D01*
X20472006Y-18502863D01*
X20479149Y-18495720D01*
X20472006Y-18488577D01*
X20472006Y-18502863D01*
X20607720Y-18631434D02*
X20593434Y-18638577D01*
X20564863Y-18638577D01*
X20550577Y-18631434D01*
X20543434Y-18624291D01*
X20536291Y-18610006D01*
X20536291Y-18567149D01*
X20543434Y-18552863D01*
X20550577Y-18545720D01*
X20564863Y-18538577D01*
X20593434Y-18538577D01*
X20607720Y-18545720D01*
X20736291Y-18638577D02*
X20736291Y-18560006D01*
X20729149Y-18545720D01*
X20714863Y-18538577D01*
X20686291Y-18538577D01*
X20672006Y-18545720D01*
X20736291Y-18631434D02*
X20722006Y-18638577D01*
X20686291Y-18638577D01*
X20672006Y-18631434D01*
X20664863Y-18617149D01*
X20664863Y-18602863D01*
X20672006Y-18588577D01*
X20686291Y-18581434D01*
X20722006Y-18581434D01*
X20736291Y-18574291D01*
X20872006Y-18638577D02*
X20872006Y-18488577D01*
X20872006Y-18631434D02*
X20857720Y-18638577D01*
X20829149Y-18638577D01*
X20814863Y-18631434D01*
X20807720Y-18624291D01*
X20800577Y-18610006D01*
X20800577Y-18567149D01*
X20807720Y-18552863D01*
X20814863Y-18545720D01*
X20829149Y-18538577D01*
X20857720Y-18538577D01*
X20872006Y-18545720D01*
X20907720Y-18652863D02*
X21022006Y-18652863D01*
X21057720Y-18538577D02*
X21057720Y-18688577D01*
X21057720Y-18545720D02*
X21072006Y-18538577D01*
X21100577Y-18538577D01*
X21114863Y-18545720D01*
X21122006Y-18552863D01*
X21129149Y-18567149D01*
X21129149Y-18610006D01*
X21122006Y-18624291D01*
X21114863Y-18631434D01*
X21100577Y-18638577D01*
X21072006Y-18638577D01*
X21057720Y-18631434D01*
X21257720Y-18631434D02*
X21243434Y-18638577D01*
X21214863Y-18638577D01*
X21200577Y-18631434D01*
X21193434Y-18624291D01*
X21186291Y-18610006D01*
X21186291Y-18567149D01*
X21193434Y-18552863D01*
X21200577Y-18545720D01*
X21214863Y-18538577D01*
X21243434Y-18538577D01*
X21257720Y-18545720D01*
X21322006Y-18638577D02*
X21322006Y-18488577D01*
X21322006Y-18545720D02*
X21336291Y-18538577D01*
X21364863Y-18538577D01*
X21379149Y-18545720D01*
X21386291Y-18552863D01*
X21393434Y-18567149D01*
X21393434Y-18610006D01*
X21386291Y-18624291D01*
X21379149Y-18631434D01*
X21364863Y-18638577D01*
X21336291Y-18638577D01*
X21322006Y-18631434D01*
D10*
D11*
X17700220Y-18150720D02*
X28500220Y-18150720D01*
D10*
D11*
X17836291Y-18361434D02*
X17857720Y-18368577D01*
X17893434Y-18368577D01*
X17907720Y-18361434D01*
X17914863Y-18354291D01*
X17922006Y-18340006D01*
X17922006Y-18325720D01*
X17914863Y-18311434D01*
X17907720Y-18304291D01*
X17893434Y-18297149D01*
X17864863Y-18290006D01*
X17850577Y-18282863D01*
X17843434Y-18275720D01*
X17836291Y-18261434D01*
X17836291Y-18247149D01*
X17843434Y-18232863D01*
X17850577Y-18225720D01*
X17864863Y-18218577D01*
X17900577Y-18218577D01*
X17922006Y-18225720D01*
X17986291Y-18368577D02*
X17986291Y-18218577D01*
X18050577Y-18368577D02*
X18050577Y-18290006D01*
X18043434Y-18275720D01*
X18029149Y-18268577D01*
X18007720Y-18268577D01*
X17993434Y-18275720D01*
X17986291Y-18282863D01*
X18179149Y-18361434D02*
X18164863Y-18368577D01*
X18136291Y-18368577D01*
X18122006Y-18361434D01*
X18114863Y-18347149D01*
X18114863Y-18290006D01*
X18122006Y-18275720D01*
X18136291Y-18268577D01*
X18164863Y-18268577D01*
X18179149Y-18275720D01*
X18186291Y-18290006D01*
X18186291Y-18304291D01*
X18114863Y-18318577D01*
X18307720Y-18361434D02*
X18293434Y-18368577D01*
X18264863Y-18368577D01*
X18250577Y-18361434D01*
X18243434Y-18347149D01*
X18243434Y-18290006D01*
X18250577Y-18275720D01*
X18264863Y-18268577D01*
X18293434Y-18268577D01*
X18307720Y-18275720D01*
X18314863Y-18290006D01*
X18314863Y-18304291D01*
X18243434Y-18318577D01*
X18357720Y-18268577D02*
X18414863Y-18268577D01*
X18379149Y-18218577D02*
X18379149Y-18347149D01*
X18386291Y-18361434D01*
X18400577Y-18368577D01*
X18414863Y-18368577D01*
X18464863Y-18354291D02*
X18472006Y-18361434D01*
X18464863Y-18368577D01*
X18457720Y-18361434D01*
X18464863Y-18354291D01*
X18464863Y-18368577D01*
X18464863Y-18275720D02*
X18472006Y-18282863D01*
X18464863Y-18290006D01*
X18457720Y-18282863D01*
X18464863Y-18275720D01*
X18464863Y-18290006D01*
D10*
D11*
X19700220Y-19150720D02*
X19700220Y-19450720D01*
D10*
D11*
X26100220Y-19150720D02*
X26100220Y-19800720D01*
D12*
X10367857Y-6253571D02*
X10217857Y-6253571D01*
X10310714Y-6239286D02*
X10367857Y-6196428D01*
X10267857Y-6196428D02*
X10325000Y-6253571D01*
X10367857Y-6132143D02*
X10267857Y-6132143D01*
X10296429Y-6132143D02*
X10282143Y-6125000D01*
X10275000Y-6117857D01*
X10267857Y-6103571D01*
X10267857Y-6089286D01*
X10367857Y-6039286D02*
X10217857Y-6039286D01*
X10275000Y-6039286D02*
X10267857Y-6025000D01*
X10267857Y-5996428D01*
X10275000Y-5982143D01*
X10282143Y-5975000D01*
X10296429Y-5967857D01*
X10339286Y-5967857D01*
X10353571Y-5975000D01*
X10360714Y-5982143D01*
X10367857Y-5996428D01*
X10367857Y-6025000D01*
X10360714Y-6039286D01*
X10367857Y-5903571D02*
X10217857Y-5903571D01*
X10367857Y-5839286D02*
X10289286Y-5839286D01*
X10275000Y-5846428D01*
X10267857Y-5860714D01*
X10267857Y-5882143D01*
X10275000Y-5896428D01*
X10282143Y-5903571D01*
X10267857Y-5782143D02*
X10367857Y-5746428D01*
X10267857Y-5710714D01*
X10360714Y-5596428D02*
X10367857Y-5610714D01*
X10367857Y-5639286D01*
X10360714Y-5653571D01*
X10346429Y-5660714D01*
X10289286Y-5660714D01*
X10275000Y-5653571D01*
X10267857Y-5639286D01*
X10267857Y-5610714D01*
X10275000Y-5596428D01*
X10289286Y-5589286D01*
X10303571Y-5589286D01*
X10317857Y-5660714D01*
X10360714Y-5467857D02*
X10367857Y-5482143D01*
X10367857Y-5510714D01*
X10360714Y-5525000D01*
X10346429Y-5532143D01*
X10289286Y-5532143D01*
X10275000Y-5525000D01*
X10267857Y-5510714D01*
X10267857Y-5482143D01*
X10275000Y-5467857D01*
X10289286Y-5460714D01*
X10303571Y-5460714D01*
X10317857Y-5532143D01*
X10296429Y-5303571D02*
X10289286Y-5310714D01*
X10282143Y-5325000D01*
X10282143Y-5339286D01*
X10289286Y-5353571D01*
X10296429Y-5360714D01*
X10310714Y-5367857D01*
X10325000Y-5367857D01*
X10339286Y-5360714D01*
X10346429Y-5353571D01*
X10353571Y-5339286D01*
X10353571Y-5325000D01*
X10346429Y-5310714D01*
X10339286Y-5303571D01*
X10282143Y-5303571D02*
X10339286Y-5303571D01*
X10346429Y-5296429D01*
X10346429Y-5289286D01*
X10339286Y-5275000D01*
X10325000Y-5267857D01*
X10289286Y-5267857D01*
X10267857Y-5282143D01*
X10253571Y-5303571D01*
X10246429Y-5332143D01*
X10253571Y-5360714D01*
X10267857Y-5382143D01*
X10289286Y-5396429D01*
X10317857Y-5403571D01*
X10346429Y-5396429D01*
X10367857Y-5382143D01*
X10382143Y-5360714D01*
X10389286Y-5332143D01*
X10382143Y-5303571D01*
X10367857Y-5282143D01*
X10367857Y-5182143D02*
X10360714Y-5196429D01*
X10353571Y-5203571D01*
X10339286Y-5210714D01*
X10296429Y-5210714D01*
X10282143Y-5203571D01*
X10275000Y-5196429D01*
X10267857Y-5182143D01*
X10267857Y-5160714D01*
X10275000Y-5146429D01*
X10282143Y-5139286D01*
X10296429Y-5132143D01*
X10339286Y-5132143D01*
X10353571Y-5139286D01*
X10360714Y-5146429D01*
X10367857Y-5160714D01*
X10367857Y-5182143D01*
X10267857Y-5067857D02*
X10367857Y-5067857D01*
X10282143Y-5067857D02*
X10275000Y-5060714D01*
X10267857Y-5046429D01*
X10267857Y-5025000D01*
X10275000Y-5010714D01*
X10289286Y-5003571D01*
X10367857Y-5003571D01*
X10367857Y-4910714D02*
X10360714Y-4925000D01*
X10346429Y-4932143D01*
X10217857Y-4932143D01*
X10367857Y-4853571D02*
X10267857Y-4853571D01*
X10217857Y-4853571D02*
X10225000Y-4860714D01*
X10232143Y-4853571D01*
X10225000Y-4846429D01*
X10217857Y-4853571D01*
X10232143Y-4853571D01*
X10267857Y-4782143D02*
X10367857Y-4782143D01*
X10282143Y-4782143D02*
X10275000Y-4775000D01*
X10267857Y-4760714D01*
X10267857Y-4739286D01*
X10275000Y-4725000D01*
X10289286Y-4717857D01*
X10367857Y-4717857D01*
X10360714Y-4589286D02*
X10367857Y-4603571D01*
X10367857Y-4632143D01*
X10360714Y-4646429D01*
X10346429Y-4653571D01*
X10289286Y-4653571D01*
X10275000Y-4646429D01*
X10267857Y-4632143D01*
X10267857Y-4603571D01*
X10275000Y-4589286D01*
X10289286Y-4582143D01*
X10303571Y-4582143D01*
X10317857Y-4653571D01*
X10353571Y-4517857D02*
X10360714Y-4510714D01*
X10367857Y-4517857D01*
X10360714Y-4525000D01*
X10353571Y-4517857D01*
X10367857Y-4517857D01*
X10267857Y-4446429D02*
X10367857Y-4446429D01*
X10282143Y-4446429D02*
X10275000Y-4439286D01*
X10267857Y-4425000D01*
X10267857Y-4403571D01*
X10275000Y-4389286D01*
X10289286Y-4382143D01*
X10367857Y-4382143D01*
X10367857Y-4289286D02*
X10360714Y-4303571D01*
X10353571Y-4310714D01*
X10339286Y-4317857D01*
X10296429Y-4317857D01*
X10282143Y-4310714D01*
X10275000Y-4303571D01*
X10267857Y-4289286D01*
X10267857Y-4267857D01*
X10275000Y-4253571D01*
X10282143Y-4246429D01*
X10296429Y-4239286D01*
X10339286Y-4239286D01*
X10353571Y-4246429D01*
X10360714Y-4253571D01*
X10367857Y-4267857D01*
X10367857Y-4289286D01*
X9242857Y-6117857D02*
X9242857Y-5967857D01*
X9278571Y-5967857D01*
X9300000Y-5975000D01*
X9314286Y-5989286D01*
X9321429Y-6003571D01*
X9328571Y-6032143D01*
X9328571Y-6053571D01*
X9321429Y-6082143D01*
X9314286Y-6096428D01*
X9300000Y-6110714D01*
X9278571Y-6117857D01*
X9242857Y-6117857D01*
X9478571Y-6103571D02*
X9471429Y-6110714D01*
X9450000Y-6117857D01*
X9435714Y-6117857D01*
X9414286Y-6110714D01*
X9400000Y-6096428D01*
X9392857Y-6082143D01*
X9385714Y-6053571D01*
X9385714Y-6032143D01*
X9392857Y-6003571D01*
X9400000Y-5989286D01*
X9414286Y-5975000D01*
X9435714Y-5967857D01*
X9450000Y-5967857D01*
X9471429Y-5975000D01*
X9478571Y-5982143D01*
X9542857Y-6060714D02*
X9657143Y-6060714D01*
X9600000Y-6117857D02*
X9600000Y-6003571D01*
X9321429Y-6317857D02*
X9321429Y-6167857D01*
X9392857Y-6317857D02*
X9392857Y-6167857D01*
X9478571Y-6317857D01*
X9478571Y-6167857D01*
X8185714Y-5817857D02*
X8185714Y-5667857D01*
X8221428Y-5667857D01*
X8242857Y-5675000D01*
X8257143Y-5689286D01*
X8264286Y-5703571D01*
X8271428Y-5732143D01*
X8271428Y-5753571D01*
X8264286Y-5782143D01*
X8257143Y-5796428D01*
X8242857Y-5810714D01*
X8221428Y-5817857D01*
X8185714Y-5817857D01*
X8421429Y-5803571D02*
X8414286Y-5810714D01*
X8392857Y-5817857D01*
X8378571Y-5817857D01*
X8357143Y-5810714D01*
X8342857Y-5796428D01*
X8335714Y-5782143D01*
X8328571Y-5753571D01*
X8328571Y-5732143D01*
X8335714Y-5703571D01*
X8342857Y-5689286D01*
X8357143Y-5675000D01*
X8378571Y-5667857D01*
X8392857Y-5667857D01*
X8414286Y-5675000D01*
X8421429Y-5682143D01*
X8600000Y-5760714D02*
X8714286Y-5760714D01*
D14*
X9253000Y-3955000D02*
X9103000Y-3955000D01*
X9103000Y-3955000D02*
X9103000Y-3982000D01*
X9103000Y-3982000D02*
X8820000Y-3982000D01*
X9253000Y-4645000D02*
X9103000Y-4645000D01*
X9103000Y-4645000D02*
X9103000Y-4618000D01*
X9103000Y-4618000D02*
X8993000Y-4618000D01*
D11*
X9416667Y-4745238D02*
X9416667Y-4816667D01*
X9411905Y-4830952D01*
X9402381Y-4840476D01*
X9388095Y-4845238D01*
X9378571Y-4845238D01*
X9454762Y-4745238D02*
X9516667Y-4745238D01*
X9483333Y-4783333D01*
X9497619Y-4783333D01*
X9507143Y-4788095D01*
X9511905Y-4792857D01*
X9516667Y-4802381D01*
X9516667Y-4826190D01*
X9511905Y-4835714D01*
X9507143Y-4840476D01*
X9497619Y-4845238D01*
X9469048Y-4845238D01*
X9459524Y-4840476D01*
X9454762Y-4835714D01*
X9416667Y-4745238D02*
X9416667Y-4816667D01*
X9411905Y-4830952D01*
X9402381Y-4840476D01*
X9388095Y-4845238D01*
X9378571Y-4845238D01*
X9516667Y-4845238D02*
X9459524Y-4845238D01*
X9488095Y-4845238D02*
X9488095Y-4745238D01*
X9478571Y-4759524D01*
X9469048Y-4769048D01*
X9459524Y-4773810D01*
X10020476Y-4354762D02*
X10010952Y-4350000D01*
X10001429Y-4340476D01*
X9987143Y-4326190D01*
X9977619Y-4321429D01*
X9968095Y-4321429D01*
X9972857Y-4345238D02*
X9963333Y-4340476D01*
X9953810Y-4330952D01*
X9949048Y-4311905D01*
X9949048Y-4278571D01*
X9953810Y-4259524D01*
X9963333Y-4250000D01*
X9972857Y-4245238D01*
X9991905Y-4245238D01*
X10001429Y-4250000D01*
X10010952Y-4259524D01*
X10015714Y-4278571D01*
X10015714Y-4311905D01*
X10010952Y-4330952D01*
X10001429Y-4340476D01*
X9991905Y-4345238D01*
X9972857Y-4345238D01*
X10110952Y-4345238D02*
X10053810Y-4345238D01*
X10082381Y-4345238D02*
X10082381Y-4245238D01*
X10072857Y-4259524D01*
X10063333Y-4269048D01*
X10053810Y-4273810D01*
X8888095Y-4745238D02*
X8888095Y-4645238D01*
X8992857Y-4745238D02*
X8959524Y-4697619D01*
X8935714Y-4745238D02*
X8935714Y-4645238D01*
X8973810Y-4645238D01*
X8983333Y-4650000D01*
X8988095Y-4654762D01*
X8992857Y-4664286D01*
X8992857Y-4678571D01*
X8988095Y-4688095D01*
X8983333Y-4692857D01*
X8973810Y-4697619D01*
X8935714Y-4697619D01*
X9083333Y-4745238D02*
X9035714Y-4745238D01*
X9035714Y-4645238D01*
X9173810Y-4745238D02*
X9140476Y-4697619D01*
X9116667Y-4745238D02*
X9116667Y-4645238D01*
X9154762Y-4645238D01*
X9164286Y-4650000D01*
X9169048Y-4654762D01*
X9173810Y-4664286D01*
X9173810Y-4678571D01*
X9169048Y-4688095D01*
X9164286Y-4692857D01*
X9154762Y-4697619D01*
X9116667Y-4697619D01*
X9221429Y-4745238D02*
X9240476Y-4745238D01*
X9250000Y-4740476D01*
X9254762Y-4735714D01*
X9264286Y-4721429D01*
X9269048Y-4702381D01*
X9269048Y-4664286D01*
X9264286Y-4654762D01*
X9259524Y-4650000D01*
X9250000Y-4645238D01*
X9230952Y-4645238D01*
X9221429Y-4650000D01*
X9216667Y-4654762D01*
X9211905Y-4664286D01*
X9211905Y-4688095D01*
X9216667Y-4697619D01*
X9221429Y-4702381D01*
X9230952Y-4707143D01*
X9250000Y-4707143D01*
X9259524Y-4702381D01*
X9264286Y-4697619D01*
X9269048Y-4688095D01*
X9302381Y-4645238D02*
X9364286Y-4645238D01*
X9330952Y-4683333D01*
X9345238Y-4683333D01*
X9354762Y-4688095D01*
X9359524Y-4692857D01*
X9364286Y-4702381D01*
X9364286Y-4726190D01*
X9359524Y-4735714D01*
X9354762Y-4740476D01*
X9345238Y-4745238D01*
X9316667Y-4745238D01*
X9307143Y-4740476D01*
X9302381Y-4735714D01*
X9450000Y-4678571D02*
X9450000Y-4745238D01*
X9426190Y-4640476D02*
X9402381Y-4711905D01*
X9464286Y-4711905D01*
X9492857Y-4645238D02*
X9554762Y-4645238D01*
X9521429Y-4683333D01*
X9535714Y-4683333D01*
X9545238Y-4688095D01*
X9550000Y-4692857D01*
X9554762Y-4702381D01*
X9554762Y-4726190D01*
X9550000Y-4735714D01*
X9545238Y-4740476D01*
X9535714Y-4745238D01*
X9507143Y-4745238D01*
X9497619Y-4740476D01*
X9492857Y-4735714D01*
X9583333Y-4645238D02*
X9640476Y-4645238D01*
X9611905Y-4745238D02*
X9611905Y-4645238D01*
X9730952Y-4745238D02*
X9697619Y-4697619D01*
X9673810Y-4745238D02*
X9673810Y-4645238D01*
X9711905Y-4645238D01*
X9721429Y-4650000D01*
X9726190Y-4654762D01*
X9730952Y-4664286D01*
X9730952Y-4678571D01*
X9726190Y-4688095D01*
X9721429Y-4692857D01*
X9711905Y-4697619D01*
X9673810Y-4697619D01*
X9773810Y-4745238D02*
X9773810Y-4645238D01*
X9811905Y-4645238D01*
X9821429Y-4650000D01*
X9826190Y-4654762D01*
X9830952Y-4664286D01*
X9830952Y-4678571D01*
X9826190Y-4688095D01*
X9821429Y-4692857D01*
X9811905Y-4697619D01*
X9773810Y-4697619D01*
X9907143Y-4692857D02*
X9921429Y-4697619D01*
X9926190Y-4702381D01*
X9930952Y-4711905D01*
X9930952Y-4726190D01*
X9926190Y-4735714D01*
X9921429Y-4740476D01*
X9911905Y-4745238D01*
X9873810Y-4745238D01*
X9873810Y-4645238D01*
X9907143Y-4645238D01*
X9916667Y-4650000D01*
X9921429Y-4654762D01*
X9926190Y-4664286D01*
X9926190Y-4673810D01*
X9921429Y-4683333D01*
X9916667Y-4688095D01*
X9907143Y-4692857D01*
X9873810Y-4692857D01*
X10007143Y-4692857D02*
X9973810Y-4692857D01*
X9973810Y-4745238D02*
X9973810Y-4645238D01*
X10021429Y-4645238D01*
M02*
