%FSLAX45Y45*%
G04 Gerber Fmt 4.5, Leading zero omitted, Abs format (unit mm)*
G04 Created by KiCad (PCBNEW 5.1.6-c6e7f7d~87~ubuntu20.04.1) date 2020-08-16 01:07:44*
%MOMM*%
%LPD*%
G01*
G04 APERTURE LIST*
%TA.AperFunction,Profile*%
%ADD10C,0.200000*%
%TD*%
%ADD11C,0.200000*%
%ADD12C,0.300000*%
G04 APERTURE END LIST*
D10*
X11000000Y-5250000D02*
G75*
G03*
X11000000Y-5250000I-1550000J0D01*
G01*
D11*
D12*
X8176428Y-7275714D02*
X8176428Y-6975714D01*
X8247857Y-6975714D01*
X8290714Y-6990000D01*
X8319286Y-7018571D01*
X8333571Y-7047143D01*
X8347857Y-7104286D01*
X8347857Y-7147143D01*
X8333571Y-7204286D01*
X8319286Y-7232857D01*
X8290714Y-7261429D01*
X8247857Y-7275714D01*
X8176428Y-7275714D01*
X8476428Y-7275714D02*
X8476428Y-7075714D01*
X8476428Y-7132857D02*
X8490714Y-7104286D01*
X8505000Y-7090000D01*
X8533571Y-7075714D01*
X8562143Y-7075714D01*
X8662143Y-7275714D02*
X8662143Y-7075714D01*
X8662143Y-6975714D02*
X8647857Y-6990000D01*
X8662143Y-7004286D01*
X8676428Y-6990000D01*
X8662143Y-6975714D01*
X8662143Y-7004286D01*
X8847857Y-7275714D02*
X8819286Y-7261429D01*
X8805000Y-7232857D01*
X8805000Y-6975714D01*
X9005000Y-7275714D02*
X8976428Y-7261429D01*
X8962143Y-7232857D01*
X8962143Y-6975714D01*
X9347857Y-7275714D02*
X9347857Y-6975714D01*
X9447857Y-7190000D01*
X9547857Y-6975714D01*
X9547857Y-7275714D01*
X9819286Y-7275714D02*
X9819286Y-7118571D01*
X9805000Y-7090000D01*
X9776428Y-7075714D01*
X9719286Y-7075714D01*
X9690714Y-7090000D01*
X9819286Y-7261429D02*
X9790714Y-7275714D01*
X9719286Y-7275714D01*
X9690714Y-7261429D01*
X9676428Y-7232857D01*
X9676428Y-7204286D01*
X9690714Y-7175714D01*
X9719286Y-7161429D01*
X9790714Y-7161429D01*
X9819286Y-7147143D01*
X9962143Y-7075714D02*
X9962143Y-7375714D01*
X9962143Y-7090000D02*
X9990714Y-7075714D01*
X10047857Y-7075714D01*
X10076428Y-7090000D01*
X10090714Y-7104286D01*
X10105000Y-7132857D01*
X10105000Y-7218571D01*
X10090714Y-7247143D01*
X10076428Y-7261429D01*
X10047857Y-7275714D01*
X9990714Y-7275714D01*
X9962143Y-7261429D01*
X10233571Y-7247143D02*
X10247857Y-7261429D01*
X10233571Y-7275714D01*
X10219286Y-7261429D01*
X10233571Y-7247143D01*
X10233571Y-7275714D01*
X10233571Y-7090000D02*
X10247857Y-7104286D01*
X10233571Y-7118571D01*
X10219286Y-7104286D01*
X10233571Y-7090000D01*
X10233571Y-7118571D01*
M02*
