G04 #@! TF.GenerationSoftware,KiCad,Pcbnew,5.1.6-c6e7f7d~87~ubuntu20.04.1*
G04 #@! TF.CreationDate,2020-09-03T11:24:11+02:00*
G04 #@! TF.ProjectId,reverse-polarity,72657665-7273-4652-9d70-6f6c61726974,rev?*
G04 #@! TF.SameCoordinates,Original*
G04 #@! TF.FileFunction,Copper,L1,Top*
G04 #@! TF.FilePolarity,Positive*
%FSLAX45Y45*%
G04 Gerber Fmt 4.5, Leading zero omitted, Abs format (unit mm)*
G04 Created by KiCad (PCBNEW 5.1.6-c6e7f7d~87~ubuntu20.04.1) date 2020-09-03 11:24:11*
%MOMM*%
%LPD*%
G01*
G04 APERTURE LIST*
%ADD10C,0.100000*%
%ADD11C,0.150000*%
%ADD12C,0.300000*%
%ADD13C,0.400000*%
G04 #@! TA.AperFunction,NonConductor*
%ADD14C,2.000000*%
G04 #@! TD*
G04 #@! TA.AperFunction,ComponentPad*
%ADD15C,5.600000*%
G04 #@! TD*
G04 #@! TA.AperFunction,SMDPad,CuDef*
%ADD16O,13.000000X10.000000*%
G04 #@! TD*
G04 #@! TA.AperFunction,SMDPad,CuDef*
%ADD17R,2.200000X1.200000*%
G04 #@! TD*
G04 #@! TA.AperFunction,SMDPad,CuDef*
%ADD18R,6.400000X5.800000*%
G04 #@! TD*
G04 #@! TA.AperFunction,ViaPad*
%ADD19C,0.800000*%
G04 #@! TD*
G04 #@! TA.AperFunction,Conductor*
%ADD20C,1.800000*%
G04 #@! TD*
G04 #@! TA.AperFunction,NonConductor*
%ADD21C,0.254000*%
G04 #@! TD*
G04 APERTURE END LIST*
D10*
D11*
X17700220Y-16600720D02*
X17700220Y-19800720D01*
X28500220Y-19800720D01*
X28500220Y-16600720D01*
X17700220Y-16600720D01*
D10*
D11*
X1000000Y-1000000D02*
X1000000Y-20000720D01*
X28700220Y-20000720D01*
X28700220Y-1000000D01*
X1000000Y-1000000D01*
D10*
D11*
X1200000Y-1200000D02*
X1200000Y-19800720D01*
X28500220Y-19800720D01*
X28500220Y-1200000D01*
X1200000Y-1200000D01*
D10*
D11*
X6000000Y-1200000D02*
X6000000Y-1000000D01*
D10*
D11*
X11000000Y-1200000D02*
X11000000Y-1000000D01*
D10*
D11*
X16000000Y-1200000D02*
X16000000Y-1000000D01*
D10*
D11*
X21000000Y-1200000D02*
X21000000Y-1000000D01*
D10*
D11*
X26000000Y-1200000D02*
X26000000Y-1000000D01*
D10*
D11*
X3606548Y-1158810D02*
X3532262Y-1158810D01*
X3569405Y-1158810D02*
X3569405Y-1028809D01*
X3557024Y-1047381D01*
X3544643Y-1059762D01*
X3532262Y-1065952D01*
D10*
D11*
X8532262Y-1041190D02*
X8538452Y-1035000D01*
X8550833Y-1028809D01*
X8581786Y-1028809D01*
X8594167Y-1035000D01*
X8600357Y-1041190D01*
X8606548Y-1053571D01*
X8606548Y-1065952D01*
X8600357Y-1084524D01*
X8526071Y-1158810D01*
X8606548Y-1158810D01*
D10*
D11*
X13526071Y-1028809D02*
X13606548Y-1028809D01*
X13563214Y-1078333D01*
X13581786Y-1078333D01*
X13594167Y-1084524D01*
X13600357Y-1090714D01*
X13606548Y-1103095D01*
X13606548Y-1134048D01*
X13600357Y-1146429D01*
X13594167Y-1152619D01*
X13581786Y-1158810D01*
X13544643Y-1158810D01*
X13532262Y-1152619D01*
X13526071Y-1146429D01*
D10*
D11*
X18594167Y-1072143D02*
X18594167Y-1158810D01*
X18563214Y-1022619D02*
X18532262Y-1115476D01*
X18612738Y-1115476D01*
D10*
D11*
X23600357Y-1028809D02*
X23538452Y-1028809D01*
X23532262Y-1090714D01*
X23538452Y-1084524D01*
X23550833Y-1078333D01*
X23581786Y-1078333D01*
X23594167Y-1084524D01*
X23600357Y-1090714D01*
X23606548Y-1103095D01*
X23606548Y-1134048D01*
X23600357Y-1146429D01*
X23594167Y-1152619D01*
X23581786Y-1158810D01*
X23550833Y-1158810D01*
X23538452Y-1152619D01*
X23532262Y-1146429D01*
D10*
D11*
X28594167Y-1028809D02*
X28569405Y-1028809D01*
X28557024Y-1035000D01*
X28550833Y-1041190D01*
X28538452Y-1059762D01*
X28532262Y-1084524D01*
X28532262Y-1134048D01*
X28538452Y-1146429D01*
X28544643Y-1152619D01*
X28557024Y-1158810D01*
X28581786Y-1158810D01*
X28594167Y-1152619D01*
X28600357Y-1146429D01*
X28606548Y-1134048D01*
X28606548Y-1103095D01*
X28600357Y-1090714D01*
X28594167Y-1084524D01*
X28581786Y-1078333D01*
X28557024Y-1078333D01*
X28544643Y-1084524D01*
X28538452Y-1090714D01*
X28532262Y-1103095D01*
D10*
D11*
X6000000Y-19800720D02*
X6000000Y-20000720D01*
D10*
D11*
X11000000Y-19800720D02*
X11000000Y-20000720D01*
D10*
D11*
X16000000Y-19800720D02*
X16000000Y-20000720D01*
D10*
D11*
X21000000Y-19800720D02*
X21000000Y-20000720D01*
D10*
D11*
X26000000Y-19800720D02*
X26000000Y-20000720D01*
D10*
D11*
X3606548Y-19959530D02*
X3532262Y-19959530D01*
X3569405Y-19959530D02*
X3569405Y-19829530D01*
X3557024Y-19848101D01*
X3544643Y-19860482D01*
X3532262Y-19866672D01*
D10*
D11*
X8532262Y-19841910D02*
X8538452Y-19835720D01*
X8550833Y-19829530D01*
X8581786Y-19829530D01*
X8594167Y-19835720D01*
X8600357Y-19841910D01*
X8606548Y-19854291D01*
X8606548Y-19866672D01*
X8600357Y-19885244D01*
X8526071Y-19959530D01*
X8606548Y-19959530D01*
D10*
D11*
X13526071Y-19829530D02*
X13606548Y-19829530D01*
X13563214Y-19879053D01*
X13581786Y-19879053D01*
X13594167Y-19885244D01*
X13600357Y-19891434D01*
X13606548Y-19903815D01*
X13606548Y-19934768D01*
X13600357Y-19947149D01*
X13594167Y-19953339D01*
X13581786Y-19959530D01*
X13544643Y-19959530D01*
X13532262Y-19953339D01*
X13526071Y-19947149D01*
D10*
D11*
X18594167Y-19872863D02*
X18594167Y-19959530D01*
X18563214Y-19823339D02*
X18532262Y-19916196D01*
X18612738Y-19916196D01*
D10*
D11*
X23600357Y-19829530D02*
X23538452Y-19829530D01*
X23532262Y-19891434D01*
X23538452Y-19885244D01*
X23550833Y-19879053D01*
X23581786Y-19879053D01*
X23594167Y-19885244D01*
X23600357Y-19891434D01*
X23606548Y-19903815D01*
X23606548Y-19934768D01*
X23600357Y-19947149D01*
X23594167Y-19953339D01*
X23581786Y-19959530D01*
X23550833Y-19959530D01*
X23538452Y-19953339D01*
X23532262Y-19947149D01*
D10*
D11*
X28594167Y-19829530D02*
X28569405Y-19829530D01*
X28557024Y-19835720D01*
X28550833Y-19841910D01*
X28538452Y-19860482D01*
X28532262Y-19885244D01*
X28532262Y-19934768D01*
X28538452Y-19947149D01*
X28544643Y-19953339D01*
X28557024Y-19959530D01*
X28581786Y-19959530D01*
X28594167Y-19953339D01*
X28600357Y-19947149D01*
X28606548Y-19934768D01*
X28606548Y-19903815D01*
X28600357Y-19891434D01*
X28594167Y-19885244D01*
X28581786Y-19879053D01*
X28557024Y-19879053D01*
X28544643Y-19885244D01*
X28538452Y-19891434D01*
X28532262Y-19903815D01*
D10*
D11*
X1000000Y-6000000D02*
X1200000Y-6000000D01*
D10*
D11*
X1000000Y-11000000D02*
X1200000Y-11000000D01*
D10*
D11*
X1000000Y-16000000D02*
X1200000Y-16000000D01*
D10*
D11*
X1069048Y-3521667D02*
X1130952Y-3521667D01*
X1056667Y-3558809D02*
X1100000Y-3428809D01*
X1143333Y-3558809D01*
D10*
D11*
X1109286Y-8490714D02*
X1127857Y-8496905D01*
X1134048Y-8503095D01*
X1140238Y-8515476D01*
X1140238Y-8534048D01*
X1134048Y-8546429D01*
X1127857Y-8552619D01*
X1115476Y-8558810D01*
X1065952Y-8558810D01*
X1065952Y-8428810D01*
X1109286Y-8428810D01*
X1121667Y-8435000D01*
X1127857Y-8441190D01*
X1134048Y-8453571D01*
X1134048Y-8465952D01*
X1127857Y-8478333D01*
X1121667Y-8484524D01*
X1109286Y-8490714D01*
X1065952Y-8490714D01*
D10*
D11*
X1140238Y-13546428D02*
X1134048Y-13552619D01*
X1115476Y-13558809D01*
X1103095Y-13558809D01*
X1084524Y-13552619D01*
X1072143Y-13540238D01*
X1065952Y-13527857D01*
X1059762Y-13503095D01*
X1059762Y-13484524D01*
X1065952Y-13459762D01*
X1072143Y-13447381D01*
X1084524Y-13435000D01*
X1103095Y-13428809D01*
X1115476Y-13428809D01*
X1134048Y-13435000D01*
X1140238Y-13441190D01*
D10*
D11*
X1065952Y-18558810D02*
X1065952Y-18428810D01*
X1096905Y-18428810D01*
X1115476Y-18435000D01*
X1127857Y-18447381D01*
X1134048Y-18459762D01*
X1140238Y-18484524D01*
X1140238Y-18503095D01*
X1134048Y-18527857D01*
X1127857Y-18540238D01*
X1115476Y-18552619D01*
X1096905Y-18558810D01*
X1065952Y-18558810D01*
D10*
D11*
X28700220Y-6000000D02*
X28500220Y-6000000D01*
D10*
D11*
X28700220Y-11000000D02*
X28500220Y-11000000D01*
D10*
D11*
X28700220Y-16000000D02*
X28500220Y-16000000D01*
D10*
D11*
X28569268Y-3521667D02*
X28631172Y-3521667D01*
X28556887Y-3558809D02*
X28600220Y-3428809D01*
X28643553Y-3558809D01*
D10*
D11*
X28609506Y-8490714D02*
X28628077Y-8496905D01*
X28634268Y-8503095D01*
X28640458Y-8515476D01*
X28640458Y-8534048D01*
X28634268Y-8546429D01*
X28628077Y-8552619D01*
X28615696Y-8558810D01*
X28566172Y-8558810D01*
X28566172Y-8428810D01*
X28609506Y-8428810D01*
X28621887Y-8435000D01*
X28628077Y-8441190D01*
X28634268Y-8453571D01*
X28634268Y-8465952D01*
X28628077Y-8478333D01*
X28621887Y-8484524D01*
X28609506Y-8490714D01*
X28566172Y-8490714D01*
D10*
D11*
X28640458Y-13546428D02*
X28634268Y-13552619D01*
X28615696Y-13558809D01*
X28603315Y-13558809D01*
X28584744Y-13552619D01*
X28572363Y-13540238D01*
X28566172Y-13527857D01*
X28559982Y-13503095D01*
X28559982Y-13484524D01*
X28566172Y-13459762D01*
X28572363Y-13447381D01*
X28584744Y-13435000D01*
X28603315Y-13428809D01*
X28615696Y-13428809D01*
X28634268Y-13435000D01*
X28640458Y-13441190D01*
D10*
D11*
X28566172Y-18558810D02*
X28566172Y-18428810D01*
X28597125Y-18428810D01*
X28615696Y-18435000D01*
X28628077Y-18447381D01*
X28634268Y-18459762D01*
X28640458Y-18484524D01*
X28640458Y-18503095D01*
X28634268Y-18527857D01*
X28628077Y-18540238D01*
X28615696Y-18552619D01*
X28597125Y-18558810D01*
X28566172Y-18558810D01*
D10*
D11*
X20043434Y-19378577D02*
X20043434Y-19228577D01*
X20079149Y-19228577D01*
X20100577Y-19235720D01*
X20114863Y-19250006D01*
X20122006Y-19264291D01*
X20129149Y-19292863D01*
X20129149Y-19314291D01*
X20122006Y-19342863D01*
X20114863Y-19357149D01*
X20100577Y-19371434D01*
X20079149Y-19378577D01*
X20043434Y-19378577D01*
X20257720Y-19378577D02*
X20257720Y-19300006D01*
X20250577Y-19285720D01*
X20236291Y-19278577D01*
X20207720Y-19278577D01*
X20193434Y-19285720D01*
X20257720Y-19371434D02*
X20243434Y-19378577D01*
X20207720Y-19378577D01*
X20193434Y-19371434D01*
X20186291Y-19357149D01*
X20186291Y-19342863D01*
X20193434Y-19328577D01*
X20207720Y-19321434D01*
X20243434Y-19321434D01*
X20257720Y-19314291D01*
X20307720Y-19278577D02*
X20364863Y-19278577D01*
X20329149Y-19228577D02*
X20329149Y-19357149D01*
X20336291Y-19371434D01*
X20350577Y-19378577D01*
X20364863Y-19378577D01*
X20472006Y-19371434D02*
X20457720Y-19378577D01*
X20429149Y-19378577D01*
X20414863Y-19371434D01*
X20407720Y-19357149D01*
X20407720Y-19300006D01*
X20414863Y-19285720D01*
X20429149Y-19278577D01*
X20457720Y-19278577D01*
X20472006Y-19285720D01*
X20479149Y-19300006D01*
X20479149Y-19314291D01*
X20407720Y-19328577D01*
X20543434Y-19364291D02*
X20550577Y-19371434D01*
X20543434Y-19378577D01*
X20536291Y-19371434D01*
X20543434Y-19364291D01*
X20543434Y-19378577D01*
X20543434Y-19285720D02*
X20550577Y-19292863D01*
X20543434Y-19300006D01*
X20536291Y-19292863D01*
X20543434Y-19285720D01*
X20543434Y-19300006D01*
D10*
D11*
X17700220Y-19450720D02*
X28500220Y-19450720D01*
D10*
D11*
X17843434Y-19658577D02*
X17843434Y-19508577D01*
X17929149Y-19658577D02*
X17864863Y-19572863D01*
X17929149Y-19508577D02*
X17843434Y-19594291D01*
X17993434Y-19658577D02*
X17993434Y-19558577D01*
X17993434Y-19508577D02*
X17986291Y-19515720D01*
X17993434Y-19522863D01*
X18000577Y-19515720D01*
X17993434Y-19508577D01*
X17993434Y-19522863D01*
X18150577Y-19644291D02*
X18143434Y-19651434D01*
X18122006Y-19658577D01*
X18107720Y-19658577D01*
X18086291Y-19651434D01*
X18072006Y-19637149D01*
X18064863Y-19622863D01*
X18057720Y-19594291D01*
X18057720Y-19572863D01*
X18064863Y-19544291D01*
X18072006Y-19530006D01*
X18086291Y-19515720D01*
X18107720Y-19508577D01*
X18122006Y-19508577D01*
X18143434Y-19515720D01*
X18150577Y-19522863D01*
X18279149Y-19658577D02*
X18279149Y-19580006D01*
X18272006Y-19565720D01*
X18257720Y-19558577D01*
X18229149Y-19558577D01*
X18214863Y-19565720D01*
X18279149Y-19651434D02*
X18264863Y-19658577D01*
X18229149Y-19658577D01*
X18214863Y-19651434D01*
X18207720Y-19637149D01*
X18207720Y-19622863D01*
X18214863Y-19608577D01*
X18229149Y-19601434D01*
X18264863Y-19601434D01*
X18279149Y-19594291D01*
X18414863Y-19658577D02*
X18414863Y-19508577D01*
X18414863Y-19651434D02*
X18400577Y-19658577D01*
X18372006Y-19658577D01*
X18357720Y-19651434D01*
X18350577Y-19644291D01*
X18343434Y-19630006D01*
X18343434Y-19587149D01*
X18350577Y-19572863D01*
X18357720Y-19565720D01*
X18372006Y-19558577D01*
X18400577Y-19558577D01*
X18414863Y-19565720D01*
X18600577Y-19580006D02*
X18650577Y-19580006D01*
X18672006Y-19658577D02*
X18600577Y-19658577D01*
X18600577Y-19508577D01*
X18672006Y-19508577D01*
X18736291Y-19644291D02*
X18743434Y-19651434D01*
X18736291Y-19658577D01*
X18729149Y-19651434D01*
X18736291Y-19644291D01*
X18736291Y-19658577D01*
X18807720Y-19658577D02*
X18807720Y-19508577D01*
X18843434Y-19508577D01*
X18864863Y-19515720D01*
X18879149Y-19530006D01*
X18886291Y-19544291D01*
X18893434Y-19572863D01*
X18893434Y-19594291D01*
X18886291Y-19622863D01*
X18879149Y-19637149D01*
X18864863Y-19651434D01*
X18843434Y-19658577D01*
X18807720Y-19658577D01*
X18957720Y-19644291D02*
X18964863Y-19651434D01*
X18957720Y-19658577D01*
X18950577Y-19651434D01*
X18957720Y-19644291D01*
X18957720Y-19658577D01*
X19022006Y-19615720D02*
X19093434Y-19615720D01*
X19007720Y-19658577D02*
X19057720Y-19508577D01*
X19107720Y-19658577D01*
X19157720Y-19644291D02*
X19164863Y-19651434D01*
X19157720Y-19658577D01*
X19150577Y-19651434D01*
X19157720Y-19644291D01*
X19157720Y-19658577D01*
X19457720Y-19558577D02*
X19457720Y-19708577D01*
X19457720Y-19565720D02*
X19472006Y-19558577D01*
X19500577Y-19558577D01*
X19514863Y-19565720D01*
X19522006Y-19572863D01*
X19529149Y-19587149D01*
X19529149Y-19630006D01*
X19522006Y-19644291D01*
X19514863Y-19651434D01*
X19500577Y-19658577D01*
X19472006Y-19658577D01*
X19457720Y-19651434D01*
X19657720Y-19651434D02*
X19643434Y-19658577D01*
X19614863Y-19658577D01*
X19600577Y-19651434D01*
X19593434Y-19644291D01*
X19586291Y-19630006D01*
X19586291Y-19587149D01*
X19593434Y-19572863D01*
X19600577Y-19565720D01*
X19614863Y-19558577D01*
X19643434Y-19558577D01*
X19657720Y-19565720D01*
X19722006Y-19658577D02*
X19722006Y-19508577D01*
X19722006Y-19565720D02*
X19736291Y-19558577D01*
X19764863Y-19558577D01*
X19779149Y-19565720D01*
X19786291Y-19572863D01*
X19793434Y-19587149D01*
X19793434Y-19630006D01*
X19786291Y-19644291D01*
X19779149Y-19651434D01*
X19764863Y-19658577D01*
X19736291Y-19658577D01*
X19722006Y-19651434D01*
X19857720Y-19558577D02*
X19857720Y-19658577D01*
X19857720Y-19572863D02*
X19864863Y-19565720D01*
X19879149Y-19558577D01*
X19900577Y-19558577D01*
X19914863Y-19565720D01*
X19922006Y-19580006D01*
X19922006Y-19658577D01*
X20050577Y-19651434D02*
X20036291Y-19658577D01*
X20007720Y-19658577D01*
X19993434Y-19651434D01*
X19986291Y-19637149D01*
X19986291Y-19580006D01*
X19993434Y-19565720D01*
X20007720Y-19558577D01*
X20036291Y-19558577D01*
X20050577Y-19565720D01*
X20057720Y-19580006D01*
X20057720Y-19594291D01*
X19986291Y-19608577D01*
X20107720Y-19558577D02*
X20136291Y-19658577D01*
X20164863Y-19587149D01*
X20193434Y-19658577D01*
X20222006Y-19558577D01*
X20464863Y-19508577D02*
X20393434Y-19508577D01*
X20386291Y-19580006D01*
X20393434Y-19572863D01*
X20407720Y-19565720D01*
X20443434Y-19565720D01*
X20457720Y-19572863D01*
X20464863Y-19580006D01*
X20472006Y-19594291D01*
X20472006Y-19630006D01*
X20464863Y-19644291D01*
X20457720Y-19651434D01*
X20443434Y-19658577D01*
X20407720Y-19658577D01*
X20393434Y-19651434D01*
X20386291Y-19644291D01*
X20536291Y-19644291D02*
X20543434Y-19651434D01*
X20536291Y-19658577D01*
X20529149Y-19651434D01*
X20536291Y-19644291D01*
X20536291Y-19658577D01*
X20686291Y-19658577D02*
X20600577Y-19658577D01*
X20643434Y-19658577D02*
X20643434Y-19508577D01*
X20629149Y-19530006D01*
X20614863Y-19544291D01*
X20600577Y-19551434D01*
X20750577Y-19644291D02*
X20757720Y-19651434D01*
X20750577Y-19658577D01*
X20743434Y-19651434D01*
X20750577Y-19644291D01*
X20750577Y-19658577D01*
X20886291Y-19508577D02*
X20857720Y-19508577D01*
X20843434Y-19515720D01*
X20836291Y-19522863D01*
X20822006Y-19544291D01*
X20814863Y-19572863D01*
X20814863Y-19630006D01*
X20822006Y-19644291D01*
X20829149Y-19651434D01*
X20843434Y-19658577D01*
X20872006Y-19658577D01*
X20886291Y-19651434D01*
X20893434Y-19644291D01*
X20900577Y-19630006D01*
X20900577Y-19594291D01*
X20893434Y-19580006D01*
X20886291Y-19572863D01*
X20872006Y-19565720D01*
X20843434Y-19565720D01*
X20829149Y-19572863D01*
X20822006Y-19580006D01*
X20814863Y-19594291D01*
X20964863Y-19601434D02*
X21079149Y-19601434D01*
X21214863Y-19651434D02*
X21200577Y-19658577D01*
X21172006Y-19658577D01*
X21157720Y-19651434D01*
X21150577Y-19644291D01*
X21143434Y-19630006D01*
X21143434Y-19587149D01*
X21150577Y-19572863D01*
X21157720Y-19565720D01*
X21172006Y-19558577D01*
X21200577Y-19558577D01*
X21214863Y-19565720D01*
X21343434Y-19508577D02*
X21314863Y-19508577D01*
X21300577Y-19515720D01*
X21293434Y-19522863D01*
X21279149Y-19544291D01*
X21272006Y-19572863D01*
X21272006Y-19630006D01*
X21279149Y-19644291D01*
X21286291Y-19651434D01*
X21300577Y-19658577D01*
X21329149Y-19658577D01*
X21343434Y-19651434D01*
X21350577Y-19644291D01*
X21357720Y-19630006D01*
X21357720Y-19594291D01*
X21350577Y-19580006D01*
X21343434Y-19572863D01*
X21329149Y-19565720D01*
X21300577Y-19565720D01*
X21286291Y-19572863D01*
X21279149Y-19580006D01*
X21272006Y-19594291D01*
X21479149Y-19651434D02*
X21464863Y-19658577D01*
X21436291Y-19658577D01*
X21422006Y-19651434D01*
X21414863Y-19637149D01*
X21414863Y-19580006D01*
X21422006Y-19565720D01*
X21436291Y-19558577D01*
X21464863Y-19558577D01*
X21479149Y-19565720D01*
X21486291Y-19580006D01*
X21486291Y-19594291D01*
X21414863Y-19608577D01*
X21536291Y-19508577D02*
X21636291Y-19508577D01*
X21572006Y-19658577D01*
X21672006Y-19558577D02*
X21729149Y-19558577D01*
X21693434Y-19658577D02*
X21693434Y-19530006D01*
X21700577Y-19515720D01*
X21714863Y-19508577D01*
X21729149Y-19508577D01*
X21764863Y-19508577D02*
X21864863Y-19508577D01*
X21800577Y-19658577D01*
X21986291Y-19658577D02*
X21986291Y-19508577D01*
X21986291Y-19651434D02*
X21972006Y-19658577D01*
X21943434Y-19658577D01*
X21929149Y-19651434D01*
X21922006Y-19644291D01*
X21914863Y-19630006D01*
X21914863Y-19587149D01*
X21922006Y-19572863D01*
X21929149Y-19565720D01*
X21943434Y-19558577D01*
X21972006Y-19558577D01*
X21986291Y-19565720D01*
X22022006Y-19467720D02*
X22164863Y-19467720D01*
X22079149Y-19572863D02*
X22064863Y-19565720D01*
X22057720Y-19558577D01*
X22050577Y-19544291D01*
X22050577Y-19537149D01*
X22057720Y-19522863D01*
X22064863Y-19515720D01*
X22079149Y-19508577D01*
X22107720Y-19508577D01*
X22122006Y-19515720D01*
X22129149Y-19522863D01*
X22136291Y-19537149D01*
X22136291Y-19544291D01*
X22129149Y-19558577D01*
X22122006Y-19565720D01*
X22107720Y-19572863D01*
X22079149Y-19572863D01*
X22064863Y-19580006D01*
X22057720Y-19587149D01*
X22050577Y-19601434D01*
X22050577Y-19630006D01*
X22057720Y-19644291D01*
X22064863Y-19651434D01*
X22079149Y-19658577D01*
X22107720Y-19658577D01*
X22122006Y-19651434D01*
X22129149Y-19644291D01*
X22136291Y-19630006D01*
X22136291Y-19601434D01*
X22129149Y-19587149D01*
X22122006Y-19580006D01*
X22107720Y-19572863D01*
X22164863Y-19467720D02*
X22307720Y-19467720D01*
X22186291Y-19508577D02*
X22286291Y-19508577D01*
X22222006Y-19658577D01*
X22407720Y-19558577D02*
X22407720Y-19658577D01*
X22343434Y-19558577D02*
X22343434Y-19637149D01*
X22350577Y-19651434D01*
X22364863Y-19658577D01*
X22386291Y-19658577D01*
X22400577Y-19651434D01*
X22407720Y-19644291D01*
X22479148Y-19658577D02*
X22479148Y-19508577D01*
X22479148Y-19565720D02*
X22493434Y-19558577D01*
X22522006Y-19558577D01*
X22536291Y-19565720D01*
X22543434Y-19572863D01*
X22550577Y-19587149D01*
X22550577Y-19630006D01*
X22543434Y-19644291D01*
X22536291Y-19651434D01*
X22522006Y-19658577D01*
X22493434Y-19658577D01*
X22479148Y-19651434D01*
X22679148Y-19558577D02*
X22679148Y-19658577D01*
X22614863Y-19558577D02*
X22614863Y-19637149D01*
X22622006Y-19651434D01*
X22636291Y-19658577D01*
X22657720Y-19658577D01*
X22672006Y-19651434D01*
X22679148Y-19644291D01*
X22750577Y-19558577D02*
X22750577Y-19658577D01*
X22750577Y-19572863D02*
X22757720Y-19565720D01*
X22772006Y-19558577D01*
X22793434Y-19558577D01*
X22807720Y-19565720D01*
X22814863Y-19580006D01*
X22814863Y-19658577D01*
X22864863Y-19558577D02*
X22922006Y-19558577D01*
X22886291Y-19508577D02*
X22886291Y-19637149D01*
X22893434Y-19651434D01*
X22907720Y-19658577D01*
X22922006Y-19658577D01*
X23036291Y-19558577D02*
X23036291Y-19658577D01*
X22972006Y-19558577D02*
X22972006Y-19637149D01*
X22979148Y-19651434D01*
X22993434Y-19658577D01*
X23014863Y-19658577D01*
X23029148Y-19651434D01*
X23036291Y-19644291D01*
X23100577Y-19522863D02*
X23107720Y-19515720D01*
X23122006Y-19508577D01*
X23157720Y-19508577D01*
X23172006Y-19515720D01*
X23179148Y-19522863D01*
X23186291Y-19537149D01*
X23186291Y-19551434D01*
X23179148Y-19572863D01*
X23093434Y-19658577D01*
X23186291Y-19658577D01*
X23279148Y-19508577D02*
X23293434Y-19508577D01*
X23307720Y-19515720D01*
X23314863Y-19522863D01*
X23322006Y-19537149D01*
X23329148Y-19565720D01*
X23329148Y-19601434D01*
X23322006Y-19630006D01*
X23314863Y-19644291D01*
X23307720Y-19651434D01*
X23293434Y-19658577D01*
X23279148Y-19658577D01*
X23264863Y-19651434D01*
X23257720Y-19644291D01*
X23250577Y-19630006D01*
X23243434Y-19601434D01*
X23243434Y-19565720D01*
X23250577Y-19537149D01*
X23257720Y-19522863D01*
X23264863Y-19515720D01*
X23279148Y-19508577D01*
X23393434Y-19644291D02*
X23400577Y-19651434D01*
X23393434Y-19658577D01*
X23386291Y-19651434D01*
X23393434Y-19644291D01*
X23393434Y-19658577D01*
X23493434Y-19508577D02*
X23507720Y-19508577D01*
X23522006Y-19515720D01*
X23529148Y-19522863D01*
X23536291Y-19537149D01*
X23543434Y-19565720D01*
X23543434Y-19601434D01*
X23536291Y-19630006D01*
X23529148Y-19644291D01*
X23522006Y-19651434D01*
X23507720Y-19658577D01*
X23493434Y-19658577D01*
X23479148Y-19651434D01*
X23472006Y-19644291D01*
X23464863Y-19630006D01*
X23457720Y-19601434D01*
X23457720Y-19565720D01*
X23464863Y-19537149D01*
X23472006Y-19522863D01*
X23479148Y-19515720D01*
X23493434Y-19508577D01*
X23672006Y-19558577D02*
X23672006Y-19658577D01*
X23636291Y-19501434D02*
X23600577Y-19608577D01*
X23693434Y-19608577D01*
X23750577Y-19644291D02*
X23757720Y-19651434D01*
X23750577Y-19658577D01*
X23743434Y-19651434D01*
X23750577Y-19644291D01*
X23750577Y-19658577D01*
X23900577Y-19658577D02*
X23814863Y-19658577D01*
X23857720Y-19658577D02*
X23857720Y-19508577D01*
X23843434Y-19530006D01*
X23829148Y-19544291D01*
X23814863Y-19551434D01*
D10*
D11*
X17700220Y-19150720D02*
X28500220Y-19150720D01*
D10*
D12*
X26441148Y-19378577D02*
X26391148Y-19307149D01*
X26355434Y-19378577D02*
X26355434Y-19228577D01*
X26412577Y-19228577D01*
X26426863Y-19235720D01*
X26434006Y-19242863D01*
X26441148Y-19257149D01*
X26441148Y-19278577D01*
X26434006Y-19292863D01*
X26426863Y-19300006D01*
X26412577Y-19307149D01*
X26355434Y-19307149D01*
X26562577Y-19371434D02*
X26548291Y-19378577D01*
X26519720Y-19378577D01*
X26505434Y-19371434D01*
X26498291Y-19357149D01*
X26498291Y-19300006D01*
X26505434Y-19285720D01*
X26519720Y-19278577D01*
X26548291Y-19278577D01*
X26562577Y-19285720D01*
X26569720Y-19300006D01*
X26569720Y-19314291D01*
X26498291Y-19328577D01*
X26619720Y-19278577D02*
X26655434Y-19378577D01*
X26691148Y-19278577D01*
X26748291Y-19364291D02*
X26755434Y-19371434D01*
X26748291Y-19378577D01*
X26741148Y-19371434D01*
X26748291Y-19364291D01*
X26748291Y-19378577D01*
X26748291Y-19285720D02*
X26755434Y-19292863D01*
X26748291Y-19300006D01*
X26741148Y-19292863D01*
X26748291Y-19285720D01*
X26748291Y-19300006D01*
D10*
D11*
X17836291Y-19371434D02*
X17857720Y-19378577D01*
X17893434Y-19378577D01*
X17907720Y-19371434D01*
X17914863Y-19364291D01*
X17922006Y-19350006D01*
X17922006Y-19335720D01*
X17914863Y-19321434D01*
X17907720Y-19314291D01*
X17893434Y-19307149D01*
X17864863Y-19300006D01*
X17850577Y-19292863D01*
X17843434Y-19285720D01*
X17836291Y-19271434D01*
X17836291Y-19257149D01*
X17843434Y-19242863D01*
X17850577Y-19235720D01*
X17864863Y-19228577D01*
X17900577Y-19228577D01*
X17922006Y-19235720D01*
X17986291Y-19378577D02*
X17986291Y-19278577D01*
X17986291Y-19228577D02*
X17979149Y-19235720D01*
X17986291Y-19242863D01*
X17993434Y-19235720D01*
X17986291Y-19228577D01*
X17986291Y-19242863D01*
X18043434Y-19278577D02*
X18122006Y-19278577D01*
X18043434Y-19378577D01*
X18122006Y-19378577D01*
X18236291Y-19371434D02*
X18222006Y-19378577D01*
X18193434Y-19378577D01*
X18179149Y-19371434D01*
X18172006Y-19357149D01*
X18172006Y-19300006D01*
X18179149Y-19285720D01*
X18193434Y-19278577D01*
X18222006Y-19278577D01*
X18236291Y-19285720D01*
X18243434Y-19300006D01*
X18243434Y-19314291D01*
X18172006Y-19328577D01*
X18307720Y-19364291D02*
X18314863Y-19371434D01*
X18307720Y-19378577D01*
X18300577Y-19371434D01*
X18307720Y-19364291D01*
X18307720Y-19378577D01*
X18307720Y-19285720D02*
X18314863Y-19292863D01*
X18307720Y-19300006D01*
X18300577Y-19292863D01*
X18307720Y-19285720D01*
X18307720Y-19300006D01*
X18486291Y-19335720D02*
X18557720Y-19335720D01*
X18472006Y-19378577D02*
X18522006Y-19228577D01*
X18572006Y-19378577D01*
X18686291Y-19278577D02*
X18686291Y-19378577D01*
X18650577Y-19221434D02*
X18614863Y-19328577D01*
X18707720Y-19328577D01*
D10*
D11*
X26343434Y-19658577D02*
X26343434Y-19508577D01*
X26479148Y-19658577D02*
X26479148Y-19508577D01*
X26479148Y-19651434D02*
X26464863Y-19658577D01*
X26436291Y-19658577D01*
X26422006Y-19651434D01*
X26414863Y-19644291D01*
X26407720Y-19630006D01*
X26407720Y-19587149D01*
X26414863Y-19572863D01*
X26422006Y-19565720D01*
X26436291Y-19558577D01*
X26464863Y-19558577D01*
X26479148Y-19565720D01*
X26550577Y-19644291D02*
X26557720Y-19651434D01*
X26550577Y-19658577D01*
X26543434Y-19651434D01*
X26550577Y-19644291D01*
X26550577Y-19658577D01*
X26550577Y-19565720D02*
X26557720Y-19572863D01*
X26550577Y-19580006D01*
X26543434Y-19572863D01*
X26550577Y-19565720D01*
X26550577Y-19580006D01*
X26814863Y-19658577D02*
X26729148Y-19658577D01*
X26772006Y-19658577D02*
X26772006Y-19508577D01*
X26757720Y-19530006D01*
X26743434Y-19544291D01*
X26729148Y-19551434D01*
X26986291Y-19501434D02*
X26857720Y-19694291D01*
X27114863Y-19658577D02*
X27029148Y-19658577D01*
X27072006Y-19658577D02*
X27072006Y-19508577D01*
X27057720Y-19530006D01*
X27043434Y-19544291D01*
X27029148Y-19551434D01*
D10*
D11*
X17700220Y-18750720D02*
X28500220Y-18750720D01*
D10*
D13*
X17871458Y-18821196D02*
X17985744Y-18821196D01*
X17903601Y-19021196D02*
X17928601Y-18821196D01*
X18027410Y-19021196D02*
X18044077Y-18887863D01*
X18052410Y-18821196D02*
X18041696Y-18830720D01*
X18050030Y-18840244D01*
X18060744Y-18830720D01*
X18052410Y-18821196D01*
X18050030Y-18840244D01*
X18110744Y-18887863D02*
X18186934Y-18887863D01*
X18147649Y-18821196D02*
X18126220Y-18992625D01*
X18133363Y-19011672D01*
X18151220Y-19021196D01*
X18170268Y-19021196D01*
X18265506Y-19021196D02*
X18247649Y-19011672D01*
X18240506Y-18992625D01*
X18261934Y-18821196D01*
X18419077Y-19011672D02*
X18398839Y-19021196D01*
X18360744Y-19021196D01*
X18342887Y-19011672D01*
X18335744Y-18992625D01*
X18345268Y-18916434D01*
X18357172Y-18897387D01*
X18377410Y-18887863D01*
X18415506Y-18887863D01*
X18433363Y-18897387D01*
X18440506Y-18916434D01*
X18438125Y-18935482D01*
X18340506Y-18954530D01*
X18515506Y-19002149D02*
X18523839Y-19011672D01*
X18513125Y-19021196D01*
X18504791Y-19011672D01*
X18515506Y-19002149D01*
X18513125Y-19021196D01*
X18528601Y-18897387D02*
X18536934Y-18906910D01*
X18526220Y-18916434D01*
X18517887Y-18906910D01*
X18528601Y-18897387D01*
X18526220Y-18916434D01*
D10*
D11*
X17893434Y-18560006D02*
X17843434Y-18560006D01*
X17843434Y-18638577D02*
X17843434Y-18488577D01*
X17914863Y-18488577D01*
X17972006Y-18638577D02*
X17972006Y-18538577D01*
X17972006Y-18488577D02*
X17964863Y-18495720D01*
X17972006Y-18502863D01*
X17979149Y-18495720D01*
X17972006Y-18488577D01*
X17972006Y-18502863D01*
X18064863Y-18638577D02*
X18050577Y-18631434D01*
X18043434Y-18617149D01*
X18043434Y-18488577D01*
X18179149Y-18631434D02*
X18164863Y-18638577D01*
X18136291Y-18638577D01*
X18122006Y-18631434D01*
X18114863Y-18617149D01*
X18114863Y-18560006D01*
X18122006Y-18545720D01*
X18136291Y-18538577D01*
X18164863Y-18538577D01*
X18179149Y-18545720D01*
X18186291Y-18560006D01*
X18186291Y-18574291D01*
X18114863Y-18588577D01*
X18250577Y-18624291D02*
X18257720Y-18631434D01*
X18250577Y-18638577D01*
X18243434Y-18631434D01*
X18250577Y-18624291D01*
X18250577Y-18638577D01*
X18250577Y-18545720D02*
X18257720Y-18552863D01*
X18250577Y-18560006D01*
X18243434Y-18552863D01*
X18250577Y-18545720D01*
X18250577Y-18560006D01*
X18436291Y-18638577D02*
X18436291Y-18538577D01*
X18436291Y-18567149D02*
X18443434Y-18552863D01*
X18450577Y-18545720D01*
X18464863Y-18538577D01*
X18479149Y-18538577D01*
X18586291Y-18631434D02*
X18572006Y-18638577D01*
X18543434Y-18638577D01*
X18529149Y-18631434D01*
X18522006Y-18617149D01*
X18522006Y-18560006D01*
X18529149Y-18545720D01*
X18543434Y-18538577D01*
X18572006Y-18538577D01*
X18586291Y-18545720D01*
X18593434Y-18560006D01*
X18593434Y-18574291D01*
X18522006Y-18588577D01*
X18643434Y-18538577D02*
X18679149Y-18638577D01*
X18714863Y-18538577D01*
X18829149Y-18631434D02*
X18814863Y-18638577D01*
X18786291Y-18638577D01*
X18772006Y-18631434D01*
X18764863Y-18617149D01*
X18764863Y-18560006D01*
X18772006Y-18545720D01*
X18786291Y-18538577D01*
X18814863Y-18538577D01*
X18829149Y-18545720D01*
X18836291Y-18560006D01*
X18836291Y-18574291D01*
X18764863Y-18588577D01*
X18900577Y-18638577D02*
X18900577Y-18538577D01*
X18900577Y-18567149D02*
X18907720Y-18552863D01*
X18914863Y-18545720D01*
X18929149Y-18538577D01*
X18943434Y-18538577D01*
X18986291Y-18631434D02*
X19000577Y-18638577D01*
X19029149Y-18638577D01*
X19043434Y-18631434D01*
X19050577Y-18617149D01*
X19050577Y-18610006D01*
X19043434Y-18595720D01*
X19029149Y-18588577D01*
X19007720Y-18588577D01*
X18993434Y-18581434D01*
X18986291Y-18567149D01*
X18986291Y-18560006D01*
X18993434Y-18545720D01*
X19007720Y-18538577D01*
X19029149Y-18538577D01*
X19043434Y-18545720D01*
X19172006Y-18631434D02*
X19157720Y-18638577D01*
X19129149Y-18638577D01*
X19114863Y-18631434D01*
X19107720Y-18617149D01*
X19107720Y-18560006D01*
X19114863Y-18545720D01*
X19129149Y-18538577D01*
X19157720Y-18538577D01*
X19172006Y-18545720D01*
X19179149Y-18560006D01*
X19179149Y-18574291D01*
X19107720Y-18588577D01*
X19243434Y-18581434D02*
X19357720Y-18581434D01*
X19429149Y-18538577D02*
X19429149Y-18688577D01*
X19429149Y-18545720D02*
X19443434Y-18538577D01*
X19472006Y-18538577D01*
X19486291Y-18545720D01*
X19493434Y-18552863D01*
X19500577Y-18567149D01*
X19500577Y-18610006D01*
X19493434Y-18624291D01*
X19486291Y-18631434D01*
X19472006Y-18638577D01*
X19443434Y-18638577D01*
X19429149Y-18631434D01*
X19586291Y-18638577D02*
X19572006Y-18631434D01*
X19564863Y-18624291D01*
X19557720Y-18610006D01*
X19557720Y-18567149D01*
X19564863Y-18552863D01*
X19572006Y-18545720D01*
X19586291Y-18538577D01*
X19607720Y-18538577D01*
X19622006Y-18545720D01*
X19629149Y-18552863D01*
X19636291Y-18567149D01*
X19636291Y-18610006D01*
X19629149Y-18624291D01*
X19622006Y-18631434D01*
X19607720Y-18638577D01*
X19586291Y-18638577D01*
X19722006Y-18638577D02*
X19707720Y-18631434D01*
X19700577Y-18617149D01*
X19700577Y-18488577D01*
X19843434Y-18638577D02*
X19843434Y-18560006D01*
X19836291Y-18545720D01*
X19822006Y-18538577D01*
X19793434Y-18538577D01*
X19779149Y-18545720D01*
X19843434Y-18631434D02*
X19829149Y-18638577D01*
X19793434Y-18638577D01*
X19779149Y-18631434D01*
X19772006Y-18617149D01*
X19772006Y-18602863D01*
X19779149Y-18588577D01*
X19793434Y-18581434D01*
X19829149Y-18581434D01*
X19843434Y-18574291D01*
X19914863Y-18638577D02*
X19914863Y-18538577D01*
X19914863Y-18567149D02*
X19922006Y-18552863D01*
X19929149Y-18545720D01*
X19943434Y-18538577D01*
X19957720Y-18538577D01*
X20007720Y-18638577D02*
X20007720Y-18538577D01*
X20007720Y-18488577D02*
X20000577Y-18495720D01*
X20007720Y-18502863D01*
X20014863Y-18495720D01*
X20007720Y-18488577D01*
X20007720Y-18502863D01*
X20057720Y-18538577D02*
X20114863Y-18538577D01*
X20079149Y-18488577D02*
X20079149Y-18617149D01*
X20086291Y-18631434D01*
X20100577Y-18638577D01*
X20114863Y-18638577D01*
X20150577Y-18538577D02*
X20186291Y-18638577D01*
X20222006Y-18538577D02*
X20186291Y-18638577D01*
X20172006Y-18674291D01*
X20164863Y-18681434D01*
X20150577Y-18688577D01*
X20279149Y-18624291D02*
X20286291Y-18631434D01*
X20279149Y-18638577D01*
X20272006Y-18631434D01*
X20279149Y-18624291D01*
X20279149Y-18638577D01*
X20350577Y-18638577D02*
X20350577Y-18488577D01*
X20364863Y-18581434D02*
X20407720Y-18638577D01*
X20407720Y-18538577D02*
X20350577Y-18595720D01*
X20472006Y-18638577D02*
X20472006Y-18538577D01*
X20472006Y-18488577D02*
X20464863Y-18495720D01*
X20472006Y-18502863D01*
X20479149Y-18495720D01*
X20472006Y-18488577D01*
X20472006Y-18502863D01*
X20607720Y-18631434D02*
X20593434Y-18638577D01*
X20564863Y-18638577D01*
X20550577Y-18631434D01*
X20543434Y-18624291D01*
X20536291Y-18610006D01*
X20536291Y-18567149D01*
X20543434Y-18552863D01*
X20550577Y-18545720D01*
X20564863Y-18538577D01*
X20593434Y-18538577D01*
X20607720Y-18545720D01*
X20736291Y-18638577D02*
X20736291Y-18560006D01*
X20729149Y-18545720D01*
X20714863Y-18538577D01*
X20686291Y-18538577D01*
X20672006Y-18545720D01*
X20736291Y-18631434D02*
X20722006Y-18638577D01*
X20686291Y-18638577D01*
X20672006Y-18631434D01*
X20664863Y-18617149D01*
X20664863Y-18602863D01*
X20672006Y-18588577D01*
X20686291Y-18581434D01*
X20722006Y-18581434D01*
X20736291Y-18574291D01*
X20872006Y-18638577D02*
X20872006Y-18488577D01*
X20872006Y-18631434D02*
X20857720Y-18638577D01*
X20829149Y-18638577D01*
X20814863Y-18631434D01*
X20807720Y-18624291D01*
X20800577Y-18610006D01*
X20800577Y-18567149D01*
X20807720Y-18552863D01*
X20814863Y-18545720D01*
X20829149Y-18538577D01*
X20857720Y-18538577D01*
X20872006Y-18545720D01*
X20907720Y-18652863D02*
X21022006Y-18652863D01*
X21057720Y-18538577D02*
X21057720Y-18688577D01*
X21057720Y-18545720D02*
X21072006Y-18538577D01*
X21100577Y-18538577D01*
X21114863Y-18545720D01*
X21122006Y-18552863D01*
X21129149Y-18567149D01*
X21129149Y-18610006D01*
X21122006Y-18624291D01*
X21114863Y-18631434D01*
X21100577Y-18638577D01*
X21072006Y-18638577D01*
X21057720Y-18631434D01*
X21257720Y-18631434D02*
X21243434Y-18638577D01*
X21214863Y-18638577D01*
X21200577Y-18631434D01*
X21193434Y-18624291D01*
X21186291Y-18610006D01*
X21186291Y-18567149D01*
X21193434Y-18552863D01*
X21200577Y-18545720D01*
X21214863Y-18538577D01*
X21243434Y-18538577D01*
X21257720Y-18545720D01*
X21322006Y-18638577D02*
X21322006Y-18488577D01*
X21322006Y-18545720D02*
X21336291Y-18538577D01*
X21364863Y-18538577D01*
X21379149Y-18545720D01*
X21386291Y-18552863D01*
X21393434Y-18567149D01*
X21393434Y-18610006D01*
X21386291Y-18624291D01*
X21379149Y-18631434D01*
X21364863Y-18638577D01*
X21336291Y-18638577D01*
X21322006Y-18631434D01*
D10*
D11*
X17700220Y-18150720D02*
X28500220Y-18150720D01*
D10*
D11*
X17836291Y-18361434D02*
X17857720Y-18368577D01*
X17893434Y-18368577D01*
X17907720Y-18361434D01*
X17914863Y-18354291D01*
X17922006Y-18340006D01*
X17922006Y-18325720D01*
X17914863Y-18311434D01*
X17907720Y-18304291D01*
X17893434Y-18297149D01*
X17864863Y-18290006D01*
X17850577Y-18282863D01*
X17843434Y-18275720D01*
X17836291Y-18261434D01*
X17836291Y-18247149D01*
X17843434Y-18232863D01*
X17850577Y-18225720D01*
X17864863Y-18218577D01*
X17900577Y-18218577D01*
X17922006Y-18225720D01*
X17986291Y-18368577D02*
X17986291Y-18218577D01*
X18050577Y-18368577D02*
X18050577Y-18290006D01*
X18043434Y-18275720D01*
X18029149Y-18268577D01*
X18007720Y-18268577D01*
X17993434Y-18275720D01*
X17986291Y-18282863D01*
X18179149Y-18361434D02*
X18164863Y-18368577D01*
X18136291Y-18368577D01*
X18122006Y-18361434D01*
X18114863Y-18347149D01*
X18114863Y-18290006D01*
X18122006Y-18275720D01*
X18136291Y-18268577D01*
X18164863Y-18268577D01*
X18179149Y-18275720D01*
X18186291Y-18290006D01*
X18186291Y-18304291D01*
X18114863Y-18318577D01*
X18307720Y-18361434D02*
X18293434Y-18368577D01*
X18264863Y-18368577D01*
X18250577Y-18361434D01*
X18243434Y-18347149D01*
X18243434Y-18290006D01*
X18250577Y-18275720D01*
X18264863Y-18268577D01*
X18293434Y-18268577D01*
X18307720Y-18275720D01*
X18314863Y-18290006D01*
X18314863Y-18304291D01*
X18243434Y-18318577D01*
X18357720Y-18268577D02*
X18414863Y-18268577D01*
X18379149Y-18218577D02*
X18379149Y-18347149D01*
X18386291Y-18361434D01*
X18400577Y-18368577D01*
X18414863Y-18368577D01*
X18464863Y-18354291D02*
X18472006Y-18361434D01*
X18464863Y-18368577D01*
X18457720Y-18361434D01*
X18464863Y-18354291D01*
X18464863Y-18368577D01*
X18464863Y-18275720D02*
X18472006Y-18282863D01*
X18464863Y-18290006D01*
X18457720Y-18282863D01*
X18464863Y-18275720D01*
X18464863Y-18290006D01*
D10*
D11*
X19700220Y-19150720D02*
X19700220Y-19450720D01*
D10*
D11*
X26100220Y-19150720D02*
X26100220Y-19800720D01*
D14*
X10953567Y-5250000D02*
G75*
G03*
X10953567Y-5250000I-1503567J0D01*
G01*
D15*
X8300000Y-5250000D03*
D16*
X9450000Y-5250000D03*
D17*
X8930000Y-4072000D03*
X8930000Y-4528000D03*
D18*
X9560000Y-4300000D03*
D19*
X10953567Y-5250000D03*
X7946433Y-5250000D03*
X9450000Y-3750000D03*
X9450000Y-6750000D03*
X10050000Y-4600000D03*
D20*
X9450000Y-5250000D02*
X9350000Y-5250000D01*
X8930000Y-4830000D02*
X8930000Y-4528000D01*
X9350000Y-5250000D02*
X8930000Y-4830000D01*
X8300000Y-4702000D02*
X8300000Y-5250000D01*
X8930000Y-4072000D02*
X8300000Y-4702000D01*
X9560000Y-4300000D02*
X9750000Y-4300000D01*
X9750000Y-4300000D02*
X10050000Y-4600000D01*
D21*
G36*
X9553420Y-3913930D02*
G01*
X9690248Y-3931645D01*
X9751893Y-3946193D01*
X9240000Y-3946193D01*
X9227552Y-3947419D01*
X9215582Y-3951050D01*
X9204551Y-3956946D01*
X9194882Y-3964881D01*
X9186946Y-3974551D01*
X9181050Y-3985582D01*
X9177419Y-3997552D01*
X9176193Y-4010000D01*
X9176193Y-4590000D01*
X9177419Y-4602448D01*
X9181050Y-4614418D01*
X9186946Y-4625449D01*
X9194882Y-4635119D01*
X9204551Y-4643054D01*
X9215582Y-4648950D01*
X9227552Y-4652581D01*
X9240000Y-4653807D01*
X9880000Y-4653807D01*
X9886122Y-4653204D01*
X9946791Y-4713873D01*
X9964307Y-4728248D01*
X9990974Y-4742502D01*
X10019909Y-4751279D01*
X10050000Y-4754243D01*
X10080091Y-4751279D01*
X10109026Y-4742502D01*
X10135693Y-4728248D01*
X10159066Y-4709066D01*
X10178248Y-4685693D01*
X10192502Y-4659026D01*
X10201279Y-4630091D01*
X10204243Y-4600000D01*
X10201279Y-4569909D01*
X10192502Y-4540974D01*
X10178248Y-4514307D01*
X10163873Y-4496791D01*
X9943807Y-4276726D01*
X9943807Y-4010000D01*
X9943280Y-4004642D01*
X9954841Y-4008664D01*
X10079800Y-4067151D01*
X10198084Y-4138177D01*
X10308438Y-4220989D01*
X10409692Y-4314708D01*
X10500773Y-4418342D01*
X10580716Y-4530791D01*
X10648673Y-4650864D01*
X10703923Y-4777289D01*
X10745882Y-4908724D01*
X10774104Y-5043776D01*
X10788290Y-5181015D01*
X10788290Y-5318985D01*
X10774104Y-5456224D01*
X10745882Y-5591276D01*
X10703923Y-5722711D01*
X10648673Y-5849136D01*
X10580716Y-5969209D01*
X10500773Y-6081658D01*
X10409692Y-6185292D01*
X10308438Y-6279011D01*
X10198084Y-6361823D01*
X10079800Y-6432849D01*
X9954841Y-6491336D01*
X9824529Y-6536665D01*
X9690248Y-6568355D01*
X9553420Y-6586070D01*
X9415496Y-6589623D01*
X9277938Y-6578975D01*
X9142203Y-6554239D01*
X9009731Y-6515679D01*
X8881926Y-6463702D01*
X8760143Y-6398859D01*
X8645673Y-6321838D01*
X8539728Y-6233455D01*
X8443433Y-6134648D01*
X8357807Y-6026463D01*
X8283760Y-5910047D01*
X8222074Y-5786635D01*
X8173405Y-5657534D01*
X8147342Y-5558569D01*
X8199805Y-5580299D01*
X8266168Y-5593500D01*
X8333832Y-5593500D01*
X8400195Y-5580299D01*
X8462708Y-5554406D01*
X8518969Y-5516814D01*
X8566814Y-5468969D01*
X8604406Y-5412708D01*
X8630299Y-5350195D01*
X8643500Y-5283832D01*
X8643500Y-5216168D01*
X8630299Y-5149805D01*
X8604406Y-5087292D01*
X8566814Y-5031032D01*
X8518969Y-4983186D01*
X8462708Y-4945594D01*
X8453500Y-4941780D01*
X8453500Y-4765582D01*
X8756751Y-4462331D01*
X8756193Y-4468000D01*
X8756193Y-4588000D01*
X8757419Y-4600448D01*
X8761050Y-4612418D01*
X8766946Y-4623449D01*
X8774882Y-4633119D01*
X8776500Y-4634447D01*
X8776500Y-4822459D01*
X8775757Y-4830000D01*
X8776500Y-4837541D01*
X8776500Y-4837541D01*
X8778721Y-4860091D01*
X8787498Y-4889026D01*
X8801752Y-4915693D01*
X8820934Y-4939066D01*
X8825325Y-4942670D01*
X8776875Y-5033315D01*
X8744653Y-5139535D01*
X8733774Y-5250000D01*
X8744653Y-5360465D01*
X8776875Y-5466686D01*
X8829200Y-5564579D01*
X8899617Y-5650383D01*
X8985421Y-5720800D01*
X9083315Y-5773125D01*
X9189535Y-5805347D01*
X9272317Y-5813500D01*
X9627683Y-5813500D01*
X9710465Y-5805347D01*
X9816686Y-5773125D01*
X9914579Y-5720800D01*
X10000383Y-5650383D01*
X10070800Y-5564579D01*
X10123125Y-5466686D01*
X10155347Y-5360465D01*
X10166227Y-5250000D01*
X10155347Y-5139535D01*
X10123125Y-5033315D01*
X10070800Y-4935421D01*
X10000383Y-4849617D01*
X9914579Y-4779200D01*
X9816686Y-4726875D01*
X9710465Y-4694653D01*
X9627683Y-4686500D01*
X9272317Y-4686500D01*
X9189535Y-4694653D01*
X9083500Y-4726819D01*
X9083500Y-4634447D01*
X9085119Y-4633119D01*
X9093054Y-4623449D01*
X9098950Y-4612418D01*
X9102581Y-4600448D01*
X9103807Y-4588000D01*
X9103807Y-4468000D01*
X9102581Y-4455552D01*
X9098950Y-4443582D01*
X9093054Y-4432551D01*
X9085119Y-4422882D01*
X9075449Y-4414946D01*
X9064418Y-4409050D01*
X9052448Y-4405419D01*
X9040000Y-4404193D01*
X9021104Y-4404193D01*
X9015693Y-4399752D01*
X8989026Y-4385498D01*
X8960091Y-4376721D01*
X8930000Y-4373757D01*
X8899909Y-4376721D01*
X8870974Y-4385498D01*
X8844307Y-4399752D01*
X8838896Y-4404193D01*
X8820000Y-4404193D01*
X8814331Y-4404751D01*
X9023275Y-4195807D01*
X9040000Y-4195807D01*
X9052448Y-4194581D01*
X9064418Y-4190950D01*
X9075449Y-4185054D01*
X9085119Y-4177118D01*
X9093054Y-4167449D01*
X9098950Y-4156418D01*
X9102581Y-4144448D01*
X9103807Y-4132000D01*
X9103807Y-4012000D01*
X9102581Y-3999552D01*
X9098950Y-3987582D01*
X9093054Y-3976551D01*
X9085119Y-3966881D01*
X9081067Y-3963556D01*
X9142203Y-3945761D01*
X9277938Y-3921025D01*
X9415496Y-3910377D01*
X9553420Y-3913930D01*
G37*
X9553420Y-3913930D02*
X9690248Y-3931645D01*
X9751893Y-3946193D01*
X9240000Y-3946193D01*
X9227552Y-3947419D01*
X9215582Y-3951050D01*
X9204551Y-3956946D01*
X9194882Y-3964881D01*
X9186946Y-3974551D01*
X9181050Y-3985582D01*
X9177419Y-3997552D01*
X9176193Y-4010000D01*
X9176193Y-4590000D01*
X9177419Y-4602448D01*
X9181050Y-4614418D01*
X9186946Y-4625449D01*
X9194882Y-4635119D01*
X9204551Y-4643054D01*
X9215582Y-4648950D01*
X9227552Y-4652581D01*
X9240000Y-4653807D01*
X9880000Y-4653807D01*
X9886122Y-4653204D01*
X9946791Y-4713873D01*
X9964307Y-4728248D01*
X9990974Y-4742502D01*
X10019909Y-4751279D01*
X10050000Y-4754243D01*
X10080091Y-4751279D01*
X10109026Y-4742502D01*
X10135693Y-4728248D01*
X10159066Y-4709066D01*
X10178248Y-4685693D01*
X10192502Y-4659026D01*
X10201279Y-4630091D01*
X10204243Y-4600000D01*
X10201279Y-4569909D01*
X10192502Y-4540974D01*
X10178248Y-4514307D01*
X10163873Y-4496791D01*
X9943807Y-4276726D01*
X9943807Y-4010000D01*
X9943280Y-4004642D01*
X9954841Y-4008664D01*
X10079800Y-4067151D01*
X10198084Y-4138177D01*
X10308438Y-4220989D01*
X10409692Y-4314708D01*
X10500773Y-4418342D01*
X10580716Y-4530791D01*
X10648673Y-4650864D01*
X10703923Y-4777289D01*
X10745882Y-4908724D01*
X10774104Y-5043776D01*
X10788290Y-5181015D01*
X10788290Y-5318985D01*
X10774104Y-5456224D01*
X10745882Y-5591276D01*
X10703923Y-5722711D01*
X10648673Y-5849136D01*
X10580716Y-5969209D01*
X10500773Y-6081658D01*
X10409692Y-6185292D01*
X10308438Y-6279011D01*
X10198084Y-6361823D01*
X10079800Y-6432849D01*
X9954841Y-6491336D01*
X9824529Y-6536665D01*
X9690248Y-6568355D01*
X9553420Y-6586070D01*
X9415496Y-6589623D01*
X9277938Y-6578975D01*
X9142203Y-6554239D01*
X9009731Y-6515679D01*
X8881926Y-6463702D01*
X8760143Y-6398859D01*
X8645673Y-6321838D01*
X8539728Y-6233455D01*
X8443433Y-6134648D01*
X8357807Y-6026463D01*
X8283760Y-5910047D01*
X8222074Y-5786635D01*
X8173405Y-5657534D01*
X8147342Y-5558569D01*
X8199805Y-5580299D01*
X8266168Y-5593500D01*
X8333832Y-5593500D01*
X8400195Y-5580299D01*
X8462708Y-5554406D01*
X8518969Y-5516814D01*
X8566814Y-5468969D01*
X8604406Y-5412708D01*
X8630299Y-5350195D01*
X8643500Y-5283832D01*
X8643500Y-5216168D01*
X8630299Y-5149805D01*
X8604406Y-5087292D01*
X8566814Y-5031032D01*
X8518969Y-4983186D01*
X8462708Y-4945594D01*
X8453500Y-4941780D01*
X8453500Y-4765582D01*
X8756751Y-4462331D01*
X8756193Y-4468000D01*
X8756193Y-4588000D01*
X8757419Y-4600448D01*
X8761050Y-4612418D01*
X8766946Y-4623449D01*
X8774882Y-4633119D01*
X8776500Y-4634447D01*
X8776500Y-4822459D01*
X8775757Y-4830000D01*
X8776500Y-4837541D01*
X8776500Y-4837541D01*
X8778721Y-4860091D01*
X8787498Y-4889026D01*
X8801752Y-4915693D01*
X8820934Y-4939066D01*
X8825325Y-4942670D01*
X8776875Y-5033315D01*
X8744653Y-5139535D01*
X8733774Y-5250000D01*
X8744653Y-5360465D01*
X8776875Y-5466686D01*
X8829200Y-5564579D01*
X8899617Y-5650383D01*
X8985421Y-5720800D01*
X9083315Y-5773125D01*
X9189535Y-5805347D01*
X9272317Y-5813500D01*
X9627683Y-5813500D01*
X9710465Y-5805347D01*
X9816686Y-5773125D01*
X9914579Y-5720800D01*
X10000383Y-5650383D01*
X10070800Y-5564579D01*
X10123125Y-5466686D01*
X10155347Y-5360465D01*
X10166227Y-5250000D01*
X10155347Y-5139535D01*
X10123125Y-5033315D01*
X10070800Y-4935421D01*
X10000383Y-4849617D01*
X9914579Y-4779200D01*
X9816686Y-4726875D01*
X9710465Y-4694653D01*
X9627683Y-4686500D01*
X9272317Y-4686500D01*
X9189535Y-4694653D01*
X9083500Y-4726819D01*
X9083500Y-4634447D01*
X9085119Y-4633119D01*
X9093054Y-4623449D01*
X9098950Y-4612418D01*
X9102581Y-4600448D01*
X9103807Y-4588000D01*
X9103807Y-4468000D01*
X9102581Y-4455552D01*
X9098950Y-4443582D01*
X9093054Y-4432551D01*
X9085119Y-4422882D01*
X9075449Y-4414946D01*
X9064418Y-4409050D01*
X9052448Y-4405419D01*
X9040000Y-4404193D01*
X9021104Y-4404193D01*
X9015693Y-4399752D01*
X8989026Y-4385498D01*
X8960091Y-4376721D01*
X8930000Y-4373757D01*
X8899909Y-4376721D01*
X8870974Y-4385498D01*
X8844307Y-4399752D01*
X8838896Y-4404193D01*
X8820000Y-4404193D01*
X8814331Y-4404751D01*
X9023275Y-4195807D01*
X9040000Y-4195807D01*
X9052448Y-4194581D01*
X9064418Y-4190950D01*
X9075449Y-4185054D01*
X9085119Y-4177118D01*
X9093054Y-4167449D01*
X9098950Y-4156418D01*
X9102581Y-4144448D01*
X9103807Y-4132000D01*
X9103807Y-4012000D01*
X9102581Y-3999552D01*
X9098950Y-3987582D01*
X9093054Y-3976551D01*
X9085119Y-3966881D01*
X9081067Y-3963556D01*
X9142203Y-3945761D01*
X9277938Y-3921025D01*
X9415496Y-3910377D01*
X9553420Y-3913930D01*
M02*
